<svg width="70" height="72" viewBox="0 0 70 72" fill="none" xmlns="http://www.w3.org/2000/svg">
<path d="M41.6303 68.8491C41.6507 68.8208 41.671 68.7939 41.6913 68.7683L41.6899 68.767C41.671 68.7926 41.652 68.8195 41.6303 68.8491ZM40.8627 55.9548C40.8858 55.9844 40.9142 56.0046 40.944 56.0208C40.9155 55.9992 40.8885 55.975 40.86 55.9507C40.8614 55.9521 40.8627 55.9534 40.8627 55.9548ZM68.3614 27.0927C68.3817 27.1048 68.3993 27.1169 68.4142 27.1344C68.4792 27.2072 68.4413 27.2637 68.5239 27.4604C68.5631 27.5546 68.6037 27.6287 68.6335 27.6772C68.5469 28.5688 68.5821 28.985 68.6335 29.2004C68.6389 29.2206 68.6877 29.4227 68.6877 29.6893C68.6877 29.8819 68.6877 29.9775 68.6335 30.0705C68.6308 30.0745 68.6295 30.0759 68.6267 30.0799C68.9814 29.8429 69.2969 29.5924 69.5622 29.2557C69.791 28.9661 70.0117 28.6792 69.9995 28.2765C69.99 27.9695 69.8479 27.6099 69.5622 27.4065C69.4241 27.3082 69.2522 27.2691 68.9056 27.1897C68.6823 27.1371 68.4805 27.1075 68.3614 27.0927ZM56.1148 35.5628L56.4424 34.2577L56.2245 29.4725L56.3341 26.6442C56.3165 25.1829 56.2976 23.7216 56.28 22.2603C56.2624 22.2725 56.2448 22.2832 56.2245 22.294C55.9997 22.4206 55.8643 22.3492 55.6775 22.4031C55.1712 22.5472 55.2714 23.3189 54.803 23.4913C54.4049 23.6368 53.9934 23.2085 53.8187 23.3822C53.7091 23.4927 53.8472 23.692 53.8187 23.9263C53.8025 24.0664 53.728 24.189 53.6224 24.2967C53.6346 24.2981 53.6468 24.3008 53.6549 24.3075C53.6766 24.3263 53.7172 24.3991 53.4911 24.7964L53.6008 25.5573L53.3815 26.3183V28.7115V41.1103C53.3639 41.455 53.3449 41.7985 53.3273 42.1433C53.2948 42.1958 53.2501 42.2604 53.2176 42.2524C53.173 42.2402 53.1852 42.0921 53.1635 42.0894C53.1324 42.0867 53.1107 42.3682 53.0349 42.449C53.4031 42.6604 53.9108 42.7089 54.2574 42.5244C54.6161 42.3332 54.6798 41.9614 54.914 41.9803C55.09 41.9951 55.1983 42.2173 55.3513 42.5244C55.9036 43.6369 55.84 43.4227 56.0079 43.8295C56.0322 43.8901 56.0566 43.948 56.081 44.0059C56.0769 43.8928 56.0864 43.7621 56.1175 43.6126C56.1148 40.9284 56.1148 38.2456 56.1148 35.5628ZM58.4407 20.0677C58.4488 20.0677 58.4569 20.065 58.465 20.065C58.6722 20.0664 58.817 20.2873 58.8482 20.3371L58.9578 33.8227V39.4779L58.8482 44.0463C58.8075 44.2295 58.7683 44.4126 58.7277 44.5958C58.7317 44.5945 58.7344 44.5904 58.7385 44.5891C58.9091 44.5285 59.0133 44.8099 59.5034 45.0241C59.6374 45.082 60.1505 45.2988 60.7056 45.1332C60.8342 45.0941 61.0657 45.0227 61.2525 44.8073C61.3053 44.7453 61.4366 44.5945 61.4705 44.3722C61.5138 44.0961 61.3744 43.948 61.4705 43.8281C61.5585 43.719 61.702 43.8093 61.7981 43.719C62.0323 43.5009 61.4976 42.6712 61.6885 42.5231C61.7792 42.453 61.9579 42.5918 62.0161 42.5231C62.0946 42.4301 61.8157 42.1244 61.7859 41.9507C61.771 41.9426 61.7561 41.9345 61.7426 41.9251C61.5856 41.8106 61.5815 41.5816 61.5788 41.4362C61.5639 40.721 61.5707 40.0611 61.5788 39.587V38.0638V34.3654V31.8644V30.2334V25.9923V18.3788C61.549 18.2024 61.5382 18.0677 61.5409 17.9654C61.4894 18.0031 61.4299 18.034 61.3595 18.0529C61.1605 18.1068 61.151 18.0004 60.9222 18.0529C60.5066 18.1485 60.4836 18.5095 59.938 19.032C59.6631 19.2947 59.387 19.4751 59.0634 19.6839C58.7223 19.9061 58.7155 19.8738 58.5165 20.0098C58.4907 20.03 58.4664 20.0489 58.4407 20.0677ZM41.61 54.1124C41.6168 54.1447 41.6236 54.1783 41.6276 54.2147C41.6642 54.4679 41.7007 54.7225 41.7373 54.9757C41.74 55.1023 41.7265 55.3501 41.5545 55.4928C41.5437 55.5023 41.5315 55.5117 41.518 55.5198C41.4977 55.5198 41.4489 55.4996 41.3907 55.4713C41.6073 55.6167 41.7955 55.7568 41.8998 55.6827C41.9593 55.6396 41.981 55.5332 41.8998 55.1386C41.8199 54.7454 41.7535 54.4289 41.61 54.1124ZM10.8528 13.2677C11.1452 13.1761 11.1547 12.9741 11.3997 12.9418C11.6488 12.9081 11.9412 13.0495 12.0563 13.2677C12.1524 13.4509 12.0482 13.5492 12.0563 13.9209C12.059 14.0192 12.0739 14.3977 12.2756 14.7909C12.3365 14.9108 12.4922 15.2071 12.8226 15.4428C13.2152 15.7243 13.6132 15.7499 13.9164 15.7687C14.2441 15.7903 14.9535 15.7795 15.0103 15.5505C15.0509 15.3876 14.7152 15.2906 14.4634 14.8987C14.2061 14.496 14.1791 14.0044 14.2441 13.7027C14.4255 12.8744 16.2152 12.4286 16.3208 12.3977C16.3953 12.3761 16.5726 12.3276 16.6484 12.1795C16.7378 12.0057 16.6444 11.7754 16.5388 11.5276C16.4074 11.2165 16.3411 11.2232 16.3195 11.0926C16.2626 10.7384 16.6904 10.3236 17.0844 10.1135C17.653 9.81044 17.8317 10.1014 18.5059 9.78754C18.9079 9.60034 19.1151 9.37138 19.3804 9.46162C19.5876 9.53165 19.6891 9.74579 19.708 9.78754C19.8191 10.0219 19.7311 10.1862 19.708 10.5485C19.6918 10.8044 19.7338 11.0455 19.8177 11.5276C19.9016 12.0071 19.9423 12.2468 20.037 12.3977C20.2117 12.6805 20.4838 12.8071 21.0212 13.0495C21.3137 13.1815 21.7347 13.3687 22.3331 13.4845C22.7095 13.5573 23.163 13.6448 23.7546 13.5936C24.219 13.5532 24.5195 13.4482 24.6292 13.5936C24.6468 13.6179 24.6698 13.6704 24.5195 14.1377C24.4166 14.4583 24.3638 14.6199 24.3002 14.6818C24.1039 14.8717 23.9143 14.7344 23.5353 14.8987C23.3227 14.9916 23.0831 14.7775 23.098 15.0078C23.1129 15.2394 23.343 15.4549 23.2077 15.5519C22.7731 15.863 24.4098 15.8778 25.5037 15.7701C25.8246 15.7377 25.2451 15.5519 26.0507 15.5519C26.8156 15.5519 28.0123 15.5519 29.002 15.5519C29.3296 15.5519 29.9537 15.7243 30.0959 15.4428C30.2055 15.226 30.1514 14.8273 30.2055 14.8987C30.2312 14.9337 29.9686 14.5903 30.0959 14.4637C30.1947 14.3667 30.655 14.7115 30.8608 14.2455C30.9 14.1566 31.1112 14.3128 31.1884 14.3546C31.2872 14.4084 31.5756 14.3411 31.6257 14.1377C31.6785 13.9196 31.6243 13.832 31.6257 13.7027C31.6311 13.3741 31.7001 13.2852 31.845 13.1586C32.2132 12.834 32.8955 12.8313 33.8134 12.1795C34.4795 11.7067 35.021 11.3687 35.7819 10.5485C36.1081 10.197 36.387 9.89529 36.6564 9.46027C36.8365 9.16936 37.0382 8.89057 37.2034 8.59023C37.3076 8.40033 37.3361 8.33299 37.4227 8.2643C37.7964 7.96531 38.4827 8.24949 38.5166 8.2643C39.2233 8.56734 38.8361 9.52896 39.8284 10.5485C40.2292 10.9593 40.9223 12.1795 42.0148 13.0495C42.5699 13.4913 43.3104 13.4212 43.4363 13.9196C43.6557 14.7896 43.4363 15.1155 43.6557 15.3337C43.8858 15.5627 44.0699 15.5451 45.4048 15.4428C46.4946 15.3593 46.4987 15.3337 47.7009 15.3337C48.6363 15.3337 48.6052 15.2179 49.0127 15.2246C49.7749 15.2381 49.9969 15.0064 50.5439 15.1155C50.6779 15.1425 51.0746 15.0455 51.4184 14.6805C51.7054 14.3761 51.918 14.0664 52.075 13.5923C52.247 13.0751 52.2226 12.8165 52.1847 12.5041C52.1143 11.933 51.7528 11.7498 51.8571 11.3081C51.8963 11.1397 52.01 10.904 52.1847 10.8731C52.3783 10.8381 52.5204 11.0764 52.8413 11.4172C53.5331 12.1525 53.9487 12.1903 53.9352 12.5054C53.9243 12.7626 53.6468 12.7734 53.3882 13.2663C53.3165 13.4037 53.2826 13.6785 53.2786 14.0273C53.2731 14.5983 53.6062 15.1155 54.0435 15.4414C54.2547 15.599 54.4036 15.4994 54.5904 15.6596C54.8977 15.9223 54.9153 16.3478 54.918 16.4206C54.9289 16.6765 54.8517 16.9175 54.6987 17.1815C54.4361 17.6381 54.2222 17.6893 54.2614 17.8347C54.3088 18.0071 54.6567 18.1149 54.918 18.0516C55.0967 18.0085 55.0927 17.9196 55.3553 17.8347C55.5638 17.766 55.6139 17.8064 55.7926 17.7256C55.9375 17.661 55.9307 17.6219 56.1202 17.5088C56.4018 17.3404 56.4614 17.397 56.5575 17.2906C56.6455 17.1936 56.6523 17.0091 56.6672 16.6374C56.678 16.3654 56.6834 16.2307 56.6672 16.0933C56.6469 15.9155 56.6171 15.8455 56.6672 15.7674C56.7416 15.6502 56.8784 15.6933 56.9948 15.5492C57.072 15.4536 57.03 15.4105 57.1044 15.3324C57.2317 15.1963 57.4551 15.2165 57.5417 15.2233C57.6717 15.234 57.7922 15.2448 57.8693 15.3324C58.0088 15.4899 57.8382 15.7054 57.979 15.8765C58.0548 15.968 58.1929 16.0152 58.3066 15.9856C58.4366 15.9505 58.4989 15.8239 58.5259 15.7687C58.6221 15.5667 58.5314 15.459 58.5259 15.1155C58.5192 14.6818 58.6573 14.527 58.5259 14.3546C58.4528 14.2576 58.3784 14.267 58.3066 14.1377C58.2267 13.9923 58.2768 13.9047 58.197 13.8118C58.1293 13.7323 58.0264 13.7202 57.8693 13.7027C57.5756 13.6704 57.5065 13.7552 57.3224 13.7027C57.1383 13.6502 57.1721 13.5546 56.9948 13.4859C56.6848 13.366 56.483 13.6192 56.2299 13.4859C56.1094 13.4226 55.9903 13.2798 56.0106 13.16C56.043 12.9741 56.3937 12.9633 56.4478 12.7249C56.4681 12.636 56.4235 12.6199 56.4478 12.5081C56.479 12.3599 56.5751 12.2953 56.6672 12.1822C56.7877 12.034 56.8932 11.8105 56.8851 11.6381C56.877 11.4455 56.7227 11.3054 56.4478 11.0939C55.8562 10.6401 55.3079 10.3222 55.136 10.2239C54.4726 9.84276 54.4171 9.83468 54.2614 9.6798C54.0218 9.44007 53.9798 9.28518 53.7145 9.13569C53.4221 8.97138 53.33 9.08182 53.0579 8.91885C52.7438 8.7303 52.5868 8.41649 52.5109 8.26565C52.3485 7.93972 52.4257 7.86295 52.2916 7.72154C52.0439 7.45891 51.5416 7.47507 51.1978 7.61245C51.0136 7.68652 51.0488 7.72558 50.5412 8.15656C49.9143 8.68989 49.7086 8.75993 49.6666 9.0266C49.6463 9.16128 49.672 9.31212 49.5569 9.46162C49.4689 9.57744 49.3931 9.56667 49.3376 9.67845C49.2821 9.79158 49.343 9.83738 49.3376 10.1135C49.3335 10.3115 49.3011 10.3492 49.3376 10.4394C49.3863 10.562 49.496 10.6199 49.5569 10.6576C49.6206 10.6966 49.7045 10.7599 50.1039 11.4185C50.3882 11.8872 50.5303 12.1229 50.5412 12.1795C50.6332 12.6953 50.2663 13.1492 49.9942 13.4845C49.7884 13.7391 49.5691 14.0017 49.2293 14.0286C49.1427 14.0354 48.9288 14.0515 48.792 13.9196C48.5145 13.6515 48.9382 13.1478 48.6824 12.7236C48.4942 12.4111 48.0528 12.3317 47.8078 12.2886C47.6237 12.2562 47.6399 12.2886 47.0429 12.2886C46.4851 12.2886 46.4134 12.2603 46.0587 12.2886C45.8312 12.3061 45.6268 12.3357 45.4021 12.3977C45.2383 12.4421 45.13 12.4852 45.0745 12.5068C44.69 12.6482 44.0916 12.6913 43.5433 12.5068C43.1047 12.3586 42.8271 12.1081 42.6687 11.9626C42.3709 11.6879 42.2152 11.4172 41.9038 10.8744C41.8145 10.7182 41.6439 10.4111 41.4665 10.0044C41.3813 9.80775 41.4219 9.88182 41.1389 9.13434C40.9372 8.60235 40.9006 8.52424 40.9196 8.37339C40.9534 8.09999 41.1105 8.06363 41.2472 7.72019C41.3921 7.35925 41.2526 7.30403 41.3569 6.85015C41.4747 6.33971 41.7508 5.95318 41.8483 5.81715C42.0121 5.59224 42.0663 5.58415 42.1759 5.38213C42.2869 5.18011 42.425 4.92826 42.3953 4.62119C42.3736 4.4057 42.2842 4.31546 42.3411 4.1323C42.3682 4.04341 42.398 4.03667 42.5049 3.86024C42.5401 3.80233 42.6498 3.62051 42.7242 3.42522C42.819 3.17067 42.8312 2.95249 42.8339 2.88111C42.842 2.62926 42.8515 2.34239 42.6701 2.17404C42.5428 2.05686 42.4332 2.09457 42.3425 1.9572C42.2558 1.82521 42.3249 1.73094 42.2328 1.63127C42.1583 1.55046 42.0703 1.56663 41.9052 1.52218C41.671 1.46023 41.6696 1.38077 41.4679 1.30534C41.0793 1.15989 40.879 1.37673 40.5933 1.19625C40.4512 1.10602 40.5013 1.05349 40.374 0.979417C40.0234 0.773355 39.6023 1.15585 39.3898 0.979417C39.2774 0.886487 39.3708 0.759887 39.2801 0.544398C39.1407 0.21443 38.7048 -0.0091405 38.2959 0.000287156C37.8519 0.0110616 37.3997 0.297932 37.3117 0.653489C37.2548 0.883793 37.3902 0.984804 37.3117 1.08851C37.1167 1.34575 36.295 0.703321 35.4529 0.979417C35.1903 1.06561 35.0305 1.20703 34.7963 1.41444C34.6528 1.54238 34.0246 2.09996 33.9217 2.93768C33.8987 3.12354 33.9353 3.04946 33.9217 3.59088C33.9109 4.00165 33.8852 4.22253 34.0314 4.35182C34.1194 4.42994 34.1654 4.3828 34.2507 4.46092C34.3712 4.57135 34.3347 4.72354 34.3604 5.22186C34.3793 5.60301 34.4091 5.68921 34.47 5.76597C34.5621 5.88315 34.6447 5.87102 34.6894 5.98416C34.7584 6.15789 34.6068 6.29931 34.6894 6.41918C34.7421 6.49594 34.8247 6.46901 34.9087 6.52827C35.0684 6.64005 35.0332 6.92423 35.0183 7.18012C34.9696 7.98955 35.1456 8.03131 35.0183 8.48518C34.9425 8.75454 34.8207 8.95118 34.6907 9.13838C33.873 10.3034 32.5138 11.3458 32.285 11.5317C31.2398 12.3788 30.7863 12.6293 30.2082 12.7276C29.7385 12.8084 29.3296 12.7626 29.006 12.7276C28.053 12.6226 27.965 12.3317 27.0376 12.1835C26.1671 12.0448 26.1346 12.2751 25.3981 12.0744C24.8904 11.937 24.7023 11.7727 24.1959 11.7485C23.6734 11.7243 23.63 11.8872 23.2117 11.8576C22.6066 11.8145 21.8742 11.4145 21.6806 10.7694C21.5587 10.3653 21.6332 9.81583 21.8999 9.68115C22.0529 9.60438 22.2099 9.69596 22.3372 9.57205C22.4441 9.46835 22.3927 9.34444 22.4468 9.13704C22.5429 8.76532 22.8232 8.72087 22.8841 8.48383C22.9721 8.14444 22.5226 7.75386 22.2275 7.5047C21.6156 6.98484 21.0104 6.4717 20.2591 6.52557C19.4332 6.58483 19.4847 7.25689 18.1823 7.72154C17.3172 8.02996 16.4332 8.04747 16.4332 8.04747C15.7617 8.06093 15.6385 7.93299 15.231 8.04747C14.6434 8.21312 13.9557 8.74377 13.9191 9.35252C13.8839 9.92357 14.4377 10.2589 14.2468 10.6576C14.1642 10.8286 13.9977 10.904 13.8095 10.9835C13.1069 11.2798 12.7846 10.9485 12.17 11.0926C11.619 11.2219 11.2548 11.6461 10.5305 12.5068C10.2449 12.8461 10.1379 13.036 10.2029 13.1586C10.276 13.3121 10.6077 13.3445 10.8528 13.2677ZM40.8627 1.90198C40.9575 1.76057 41.1145 1.74171 41.1362 1.73902L41.5735 1.84811L42.0108 2.28313V3.04407C41.759 3.09121 41.7116 3.10872 41.6276 3.09795C41.6141 3.0966 41.3406 3.0562 41.2445 2.82589C41.1836 2.68044 41.2283 2.54171 41.2445 2.49996L40.8072 2.17404C40.8032 2.1471 40.7829 2.02185 40.8627 1.90198ZM34.6866 3.80637C34.6866 3.80637 34.6866 2.93633 34.6866 2.82724C34.6961 2.74778 34.7124 2.65485 34.7408 2.55518C34.7868 2.39761 34.8477 2.27101 34.9046 2.17404C34.9764 2.09861 35.1023 1.98548 35.2877 1.90198C35.5165 1.79828 35.7223 1.7902 35.8347 1.79289C35.8969 1.7875 35.9714 1.78616 36.0526 1.79289C36.1609 1.80232 36.253 1.82387 36.3261 1.84676C36.3924 1.92218 36.4141 2.02723 36.3803 2.11882C36.3396 2.23464 36.2313 2.27639 36.2164 2.28178C36.0702 2.28178 35.9254 2.28178 35.7792 2.28178C35.7115 2.32353 35.5951 2.40703 35.5057 2.55384C35.3635 2.78818 35.3866 3.02253 35.396 3.09795C35.4028 3.19492 35.4042 3.30401 35.396 3.42387C35.3866 3.56798 35.3663 3.69593 35.3419 3.80502H34.6866V3.80637ZM35.0684 5.49122C35.082 5.32153 35.1077 5.18819 35.1226 5.11008C35.1551 5.06563 35.2079 5.00368 35.2864 4.94711C35.3703 4.88651 35.4502 4.85553 35.5057 4.83802C35.5599 5.00099 35.6154 5.16395 35.6695 5.32691C35.7372 5.47641 35.8252 5.72153 35.8333 6.03399C35.8387 6.23062 35.8103 6.39763 35.7792 6.52288L35.9971 6.84881L35.7792 7.17474L35.2322 6.95655C35.0792 6.135 35.04 5.84409 35.0684 5.49122ZM65.735 53.8336C65.4873 53.4672 65.9164 52.8975 65.735 52.7453C65.6023 52.6349 65.2801 52.8625 65.1881 52.7453C65.1299 52.6699 65.2476 52.5541 65.1881 52.4194C65.1258 52.2767 64.9579 52.3157 64.8604 52.2026C64.6912 52.0046 65.0229 51.6868 64.9701 51.2234C64.9335 50.8962 64.7088 50.5231 64.4232 50.4625C64.0888 50.3911 63.8397 50.7844 63.6583 50.6807C63.5039 50.5918 63.6582 50.2915 63.5486 49.9197C63.3956 49.3972 62.8378 49.1265 62.4547 48.9406C61.9741 48.7076 61.5571 48.6605 61.1429 48.6147C60.7787 48.5743 60.3414 48.5244 59.831 48.6147C58.8576 48.7857 57.4659 49.4861 57.317 50.4639C57.2683 50.7817 57.3441 51.1723 57.0977 51.3339C56.8932 51.4672 56.678 51.3069 56.5507 51.443C56.3666 51.6396 56.7484 52.0477 56.5507 52.5312C56.5155 52.6187 56.5088 52.5878 56.3314 52.8571C56.0891 53.2248 55.9659 53.412 55.8941 53.6181C55.7032 54.1662 56.0309 54.4046 55.7845 54.814C55.6626 55.0161 55.4474 55.1858 55.3472 55.14C55.2849 55.1117 55.3174 55.0228 55.2375 54.9231C55.1198 54.775 54.8625 54.7359 54.6906 54.814C54.5674 54.8706 54.5782 54.9447 54.4713 55.0309C54.1491 55.2948 53.5669 54.9891 53.4871 55.14C53.441 55.2275 53.6333 55.338 53.5967 55.4659C53.5439 55.6491 53.0714 55.7002 52.7221 55.6841C52.075 55.6544 51.7623 55.3918 51.52 55.575C51.3954 55.6693 51.4563 55.7555 51.302 55.9009C51.0515 56.1366 50.5953 56.1891 50.4274 56.01C50.3191 55.8955 50.4125 55.773 50.3178 55.6841C50.1188 55.4982 49.6341 55.9696 49.2239 55.7932C48.968 55.6827 48.8218 55.3541 48.8963 55.2491C49.0046 55.0955 49.561 55.4605 49.7708 55.2491C49.894 55.1252 49.8358 54.8612 49.7708 54.7049C49.626 54.3561 49.1968 54.2443 49.2239 54.1608C49.2415 54.1043 49.4486 54.1204 49.7708 54.1608C50.5344 54.2578 50.7943 54.3521 51.1923 54.2699C51.4969 54.2066 51.5944 54.0989 51.6296 54.0531C51.7907 53.843 51.7745 53.4874 51.6296 53.3999C51.566 53.3622 51.52 53.3999 51.4103 53.3999C51.1937 53.3999 51.0556 53.2464 50.7537 52.9649C50.2866 52.5299 50.1837 52.4948 50.2068 52.4208C50.2555 52.2659 50.7781 52.2349 51.191 52.3117C51.5552 52.3804 51.7339 52.5137 51.8476 52.4208C51.9938 52.2996 51.8665 51.9305 51.8476 51.8767C51.6526 51.3123 51.1341 51.3272 50.973 50.8975C50.6359 50.0019 51.3386 49.3904 51.0827 48.1783C50.969 47.6369 50.7253 47.2679 50.5357 46.9823C50.357 46.7116 49.7099 45.7325 48.5673 45.3514C48.4576 45.315 48.3507 45.2867 48.2464 45.2638C48.3046 45.4389 48.3629 45.6126 48.4211 45.7877C48.4211 46.1675 48.4116 51.5305 48.4035 57.272V57.3689C48.4035 57.3689 48.4563 57.3689 48.4143 57.4066C48.6038 57.3878 48.792 57.3541 49.2239 57.3151C49.9671 57.2477 50.0619 57.2881 50.973 57.206C51.4793 57.1602 51.6905 57.1265 51.8476 57.0969C52.362 57.0013 52.6314 56.9501 52.9415 56.771C53.261 56.5851 53.395 56.3925 53.4884 56.445C53.6454 56.5326 53.3598 57.1252 53.5981 57.3151C53.7429 57.4295 53.992 57.3245 54.0353 57.4242C54.0651 57.4915 53.9704 57.5898 53.9257 57.641C53.7226 57.8794 53.7172 58.2349 53.7077 58.946C53.6996 59.4861 53.6955 59.7555 53.8174 59.9252C53.9717 60.1407 54.0909 60.0599 54.474 60.3602C54.6012 60.4599 54.9153 60.7104 55.1306 61.1211C55.2633 61.3757 55.2118 61.4107 55.3499 61.6653C55.5367 62.01 55.7831 62.2269 55.8968 62.3185C56.0945 62.476 56.6225 62.8976 57.099 62.7535C57.359 62.674 57.3414 62.5057 57.7556 62.3185C57.9614 62.2242 58.2498 62.0935 58.4122 62.2094C58.6248 62.3616 58.4082 62.7925 58.6315 62.9703C58.7439 63.0605 58.882 63.0174 59.1785 62.9703C59.8716 62.8585 59.8134 62.9784 60.4903 62.8612C61.0603 62.7629 61.3459 62.7144 61.4746 62.5353C61.7006 62.2215 61.4624 61.8336 61.6939 61.6653C61.8279 61.5669 61.9606 61.6612 62.3505 61.6653C62.3505 61.6653 62.7052 61.6693 63.1154 61.5562C63.5148 61.4471 63.9331 61.0107 64.7548 60.142C64.8483 60.0437 64.9877 59.8929 64.9742 59.707C64.962 59.5373 64.8334 59.4942 64.7548 59.272C64.7386 59.2235 64.6384 58.9366 64.7548 58.7279C64.9281 58.4181 65.4358 58.5393 65.5198 58.2928C65.5834 58.1056 65.3248 57.9427 65.4101 57.7487C65.471 57.6114 65.6213 57.6464 65.7377 57.5306C66.0274 57.2437 65.6781 56.4531 65.624 56.1972C65.5198 56.1501 65.3695 56.0504 65.3004 55.8996C65.1975 55.6773 65.2977 55.4066 65.4101 55.2464C65.5996 54.9784 65.8013 55.0619 65.957 54.8113C66.0978 54.5837 66.0883 54.2605 65.957 54.0504C65.8704 53.9171 65.8122 53.948 65.735 53.8336ZM64.04 51.1696C64.1686 51.1009 64.3541 51.1197 64.4232 51.2234C64.5112 51.3581 64.3961 51.6248 64.2038 51.6585C64.0671 51.6827 63.8965 51.5857 63.8762 51.4403C63.8586 51.3177 63.9561 51.214 64.04 51.1696ZM60.378 50.4625C60.4159 50.045 60.7408 49.6113 61.1984 49.5386C61.6451 49.4672 61.9849 49.777 62.0729 49.8645C62.1569 49.948 62.4087 50.2268 62.4006 50.6255C62.3911 51.113 61.9944 51.6194 61.4718 51.6585C60.8423 51.7056 60.3238 51.0564 60.378 50.4625ZM54.9113 59.4888C54.7786 59.5602 54.6378 59.5427 54.6378 59.5427C54.5647 59.5333 54.5078 59.5077 54.474 59.4888C54.4469 59.3474 54.4252 59.1831 54.4198 58.9999C54.4104 58.7252 54.4374 58.4841 54.474 58.2928C54.5132 58.2713 54.6148 58.2228 54.7475 58.239C54.8206 58.2484 54.8761 58.274 54.9113 58.2928C55.1008 58.9043 55.0818 59.3972 54.9113 59.4888ZM56.8256 62.0451C56.701 62.0504 56.6049 62.0141 56.5521 61.9912C56.5521 61.8821 56.5521 61.773 56.5521 61.6653C56.4844 61.6895 56.391 61.7137 56.2786 61.7191C56.1121 61.7285 55.9781 61.6935 55.8955 61.6653C55.8603 61.5131 55.8427 61.4376 55.8413 61.3932C55.84 61.3339 55.8454 61.2383 55.8955 61.1211C56.0227 61.2114 56.15 61.303 56.2786 61.3932C56.3409 61.3878 56.4153 61.3865 56.4979 61.3932C56.6062 61.4026 56.6983 61.4242 56.7714 61.4471C56.9122 61.4902 57.0029 61.5696 57.0449 61.61C57.1491 61.7137 57.1924 61.8269 57.2087 61.8821C57.1681 61.9185 57.0313 62.0356 56.8256 62.0451ZM61.0887 61.936C61.0698 62.0141 60.9967 62.0599 60.9249 62.0989C60.7895 62.1717 60.5309 62.2915 60.1045 62.371C59.9041 62.3885 59.7038 62.4073 59.5034 62.4249L59.6131 62.0989C59.6361 62.0531 59.7146 61.9131 59.8865 61.8269C60.0585 61.7407 60.2182 61.7636 60.2697 61.773L60.9263 61.5562C61.0467 61.7582 61.1063 61.8605 61.0887 61.936ZM64.04 60.1959C63.8519 60.4087 63.7002 60.3656 63.5486 60.577C63.5188 60.6188 63.4755 60.6888 63.3848 60.74C63.3225 60.7764 63.2616 60.7885 63.221 60.7939C63.1668 60.74 63.1113 60.6848 63.0572 60.6309C63.0463 60.5986 63.0233 60.5124 63.0572 60.4141C63.11 60.2605 63.2548 60.204 63.2765 60.1959C63.4037 60.2134 63.531 60.2322 63.6596 60.2498C63.6352 60.1972 63.6 60.1016 63.6055 59.9777C63.6149 59.773 63.7327 59.637 63.7693 59.5966C63.7963 59.5912 63.9222 59.571 64.0427 59.6504C64.1849 59.7447 64.2038 59.9009 64.2066 59.9225C64.1524 60.0558 64.0874 60.142 64.04 60.1959ZM63.9859 58.9447C63.7652 59.0363 63.6461 58.9097 63.4389 58.9447C63.1614 58.9918 63.0842 59.2706 62.674 59.9238C62.5725 60.0854 62.2747 60.5487 61.7995 61.0121C61.6939 61.1144 61.3771 61.4147 61.2525 61.338C61.1713 61.2882 61.2512 61.1292 61.1429 61.0121C61.0197 60.8801 60.73 60.8814 60.5959 61.0121C60.5093 61.0956 60.5594 61.1642 60.4863 61.2289C60.3089 61.3865 59.919 61.07 59.7214 61.2289C59.6361 61.2976 59.6929 61.369 59.6117 61.4471C59.3924 61.6572 58.8306 61.2504 58.6275 61.4471C58.5314 61.54 58.6234 61.6626 58.5178 61.773C58.331 61.9696 57.7989 61.8484 57.7529 61.6639C57.7245 61.5508 57.8924 61.47 57.8626 61.338C57.8314 61.2046 57.627 61.1481 57.535 61.1211C56.6956 60.8666 56.3084 60.278 56.0038 60.4679C55.882 60.5447 55.8968 60.6686 55.7845 60.6861C55.6044 60.7131 55.3445 60.4208 55.3472 60.142C55.3485 60.0262 55.3946 59.9844 55.4568 59.8161C55.5002 59.7003 55.5286 59.5804 55.5665 59.1629C55.6247 58.5056 55.6545 58.1784 55.5665 58.0747C55.4027 57.8834 55.1861 58.006 54.9099 57.7487C54.7894 57.6356 54.6297 57.4242 54.6906 57.3137C54.7881 57.14 55.4122 57.3326 55.4555 57.2046C55.4785 57.14 55.3201 57.0821 55.2362 56.8787C55.1902 56.7656 55.1401 56.538 55.2362 56.4437C55.4298 56.2538 56.0891 56.7144 56.2204 56.5528C56.2813 56.4773 56.1541 56.3588 56.2204 56.2268C56.3098 56.0491 56.6793 55.9777 56.877 56.1177C57.0219 56.2215 56.9596 56.3588 57.0963 56.4437C57.3183 56.5837 57.6541 56.3265 57.7529 56.4437C57.8003 56.5016 57.7245 56.5689 57.7529 56.6605C57.8017 56.8221 58.1008 56.8316 59.1744 56.8787C59.4181 56.8895 59.7823 56.9043 59.831 56.7696C59.8459 56.7292 59.8094 56.6915 59.831 56.6605C59.877 56.5959 60.0869 56.678 60.2142 56.7144C60.3834 56.7629 60.6338 56.7952 60.9791 56.7144C61.9173 56.3575 62.586 56.0369 62.7823 55.8982C62.9624 55.7716 63.0558 55.6262 63.0558 55.6262C63.1221 55.5238 63.1018 55.5063 63.1655 55.408C63.2724 55.2437 63.355 55.2518 63.4931 55.0821C63.5459 55.0188 63.5824 54.9487 63.6569 54.81C63.7557 54.6255 63.8058 54.5339 63.8207 54.4289C63.8397 54.2982 63.7963 54.2834 63.7666 54.0477C63.7584 53.9871 63.7422 53.7703 63.7666 53.5036C63.7733 53.4322 63.7936 53.2639 63.8762 53.0686C63.9222 52.9595 63.975 52.8396 64.0955 52.7426C64.1537 52.6955 64.2607 52.6093 64.3148 52.6336C64.545 52.7426 63.5716 54.8652 64.0955 55.2437C64.2214 55.3353 64.3839 55.2881 64.5328 55.4619C64.6506 55.5979 64.7345 55.8403 64.6425 56.006C64.522 56.2215 64.2052 56.1231 64.0955 56.3319C63.9913 56.5326 64.2025 56.779 64.0955 56.876C64.017 56.946 63.8938 56.8289 63.7679 56.876C63.4647 56.9891 63.3591 57.9763 63.7679 58.2902C63.9872 58.4585 64.2621 58.3615 64.3148 58.5083C64.3609 58.6417 64.1889 58.8612 63.9859 58.9447ZM65.1881 57.3137C65.115 57.3137 65.0419 57.3137 64.9688 57.3137C64.9945 57.3622 65.0933 57.5629 65.0229 57.8026C64.9823 57.9386 64.9051 58.0289 64.8591 58.0747C64.8198 58.0962 64.7183 58.1447 64.5856 58.1285C64.5125 58.1191 64.457 58.0935 64.4218 58.0747C64.3771 57.9225 64.3677 57.7891 64.3677 57.6935C64.3677 57.5346 64.3961 57.4039 64.4218 57.3124C64.4949 57.3124 64.568 57.3124 64.6411 57.3124C64.5964 57.1602 64.587 57.0268 64.587 56.9312C64.587 56.7723 64.6154 56.6417 64.6411 56.5501C64.6953 56.4504 64.8009 56.3871 64.9146 56.3871C65.0283 56.3871 65.1339 56.4504 65.1881 56.5501C65.2327 56.7023 65.2422 56.8356 65.2422 56.9312C65.2436 57.0915 65.2151 57.2221 65.1881 57.3137ZM65.2977 54.8127C65.2585 54.8342 65.1569 54.8827 65.0243 54.8666C64.9511 54.8571 64.8956 54.8315 64.8604 54.8127C64.8239 54.6605 64.7928 54.4558 64.8063 54.2147C64.8144 54.0693 64.8347 53.9413 64.8604 53.8336C64.7873 53.8336 64.7142 53.8336 64.6411 53.8336C64.6208 53.7985 64.5951 53.7433 64.587 53.6706C64.5707 53.5386 64.6195 53.4376 64.6411 53.3985C64.6587 53.3743 64.7508 53.2571 64.9146 53.2356C65.142 53.206 65.291 53.3905 65.2977 53.3985C65.3383 53.6625 65.3519 53.9009 65.3519 54.1056C65.3519 54.3723 65.3289 54.6107 65.2977 54.8127ZM45.4007 60.903C45.2356 60.503 45.0203 60.4437 43.5419 58.837C43.4228 58.7077 43.3131 58.5865 43.2089 58.472C43.2319 58.507 43.2522 58.5393 43.2685 58.5662C43.0965 66.8572 42.9476 69.1872 42.8312 69.2249C42.8082 69.2316 42.7906 69.2343 42.7757 69.2343C42.7635 69.3515 42.6917 69.4067 42.6674 69.606C42.6403 69.8323 42.6823 70.1757 42.8853 70.367C43.2319 70.6943 43.8939 70.4411 44.0875 70.367C44.2622 70.2996 44.9012 70.0559 45.0717 69.4969C45.2491 68.9178 44.7739 68.4868 44.9621 68.301C45.0541 68.2107 45.268 68.2107 45.509 68.2848C45.5226 67.9333 45.7703 61.7865 45.7811 61.4134C45.5307 61.2289 45.4251 60.9649 45.4007 60.903ZM69.2333 31.6476C68.8055 31.49 68.7594 31.4308 68.4684 31.3217C68.1719 31.2099 67.9241 31.16 67.7319 31.1291C67.7414 31.1385 67.7508 31.1479 67.7576 31.1587C67.8009 31.2193 67.7982 31.2813 67.8673 31.3769C67.9918 31.5506 68.1976 31.6193 68.3587 31.6489C68.398 32.0597 68.4128 32.4422 68.4128 32.791C68.4128 33.2032 68.3912 33.5856 68.3587 33.9331C68.3384 34.0638 68.3343 34.1351 68.3045 34.2052C68.2802 34.2617 68.2314 34.3345 68.0852 34.4234C68.0771 34.4287 68.0582 34.4395 68.0108 34.4651C67.9945 34.4732 67.9769 34.4813 67.9593 34.4894C67.985 34.4853 68.0094 34.4813 68.0311 34.4786C68.5333 34.3991 68.6755 34.5096 68.9056 34.3695C69.1128 34.2429 69.1466 34.0624 69.3429 33.4995C69.7328 32.3789 69.9508 32.0853 69.7802 31.8685C69.7139 31.7809 69.6665 31.8065 69.2333 31.6476ZM65.735 56.2268C65.7472 56.2107 65.6578 56.1043 65.6253 56.1177C65.6118 56.1231 65.6118 56.1528 65.6213 56.1986C65.6822 56.2255 65.7282 56.2349 65.735 56.2268ZM67.0387 34.9446C67.0252 34.9553 67.0117 34.9621 66.9913 34.9634C66.9237 34.9688 66.8532 34.8678 66.7734 34.7452C66.7328 34.6833 66.6894 34.6186 66.6637 34.5271C66.6217 34.3762 66.6542 34.2456 66.6637 34.2011C66.7273 33.9183 66.6488 33.6207 66.6637 33.3311C66.6827 32.9607 66.6935 32.325 66.6637 31.156C66.9304 31.0819 67.1348 31.0456 67.2919 31.0348C67.2784 31.024 67.2689 31.0106 67.2648 30.993C67.2553 30.9459 67.2946 30.8974 67.3772 30.8395C67.3582 30.8368 67.3393 30.8355 67.319 30.8301C67.2079 30.7978 67.2052 30.7466 67.0996 30.721C66.9182 30.6779 66.7368 30.7829 66.6082 30.8839C66.6258 29.8146 66.6448 28.7452 66.6624 27.6759C66.7003 27.5654 66.8153 27.2866 67.0996 27.1317C67.2364 27.0577 67.3907 27.0429 67.5735 27.028C67.5369 27.0159 67.5071 26.9971 67.4814 26.9674C67.3839 26.8556 67.4097 26.6711 67.4814 26.4233C67.6358 25.894 67.847 25.6112 68.138 25.1183C68.6416 24.2644 68.7581 23.8428 68.7946 23.7041C68.8583 23.4563 68.8786 23.2772 68.9043 23.0509C68.9422 22.7169 68.9706 22.4489 68.953 22.2415C68.9029 22.3088 68.8149 22.3034 68.7405 22.3438C68.6173 22.4112 68.5049 22.6213 68.5767 23.2677C68.5767 23.2677 68.3587 23.8092 68.3573 23.8119C67.9945 24.7142 67.874 24.8853 67.6466 25.4981C67.6466 25.4981 67.1998 26.6994 66.7179 27.1843C66.7179 27.1843 66.7152 27.1856 66.7138 27.1856C66.6813 27.1843 66.6678 26.7385 66.6624 26.5849C66.6448 26.0206 66.6217 24.0327 66.6082 22.7236C66.6637 22.426 66.7815 22.2967 66.8817 22.2347C67.0049 22.158 67.1376 22.158 67.254 22.0745C67.1132 22.1257 66.9047 22.0799 66.8275 21.9627V21.9613C66.8153 21.9856 66.7977 22.0058 66.7734 22.0166C66.7355 22.0341 66.6921 22.026 66.6637 22.0166C66.7057 21.0415 66.6949 20.0058 66.6096 18.9176C66.5947 18.725 66.5771 18.5337 66.5568 18.3452C66.4999 18.3505 66.443 18.3586 66.3903 18.3734C66.0261 18.4691 65.8189 18.764 65.406 19.3526C65.1082 19.7768 65.0188 20.0085 64.6411 20.4408C64.4557 20.6509 64.2065 20.9324 64.0942 20.8758C63.994 20.8246 64.04 20.5216 64.0942 20.3317C64.1944 19.9829 64.3649 19.8832 64.7508 19.3526C65.0039 19.0038 65.1312 18.8246 65.1881 18.5916C65.249 18.3384 65.1813 18.3034 65.1881 17.8307C65.1935 17.432 65.2436 17.393 65.2977 16.7425C65.3492 16.1216 65.3966 15.999 65.2977 15.8724C65.203 15.7512 65.1244 15.793 64.6966 15.6004C64.2986 15.4212 64.2851 15.3472 64.0955 15.3283C64.0847 15.327 63.906 15.3122 63.7097 15.3822C63.7111 15.3822 63.7124 15.3822 63.7124 15.3835C63.7801 15.4172 63.7706 15.5357 63.7679 15.7593C63.7666 15.8388 63.8762 16.6468 63.8762 17.2879C63.8762 17.397 63.9859 17.7229 63.9859 17.7229C63.9859 17.7229 64.0955 20.1162 64.0955 20.224C64.0955 20.3317 63.7679 20.5499 63.7679 20.5499L63.6583 21.4199L64.2052 21.3108V22.3991V26.4233L64.0955 29.4685C64.0955 29.4685 64.0955 34.1446 64.0955 34.2537C64.0955 37.0065 64.0454 39.7257 63.9859 42.4099C63.952 42.4476 63.8654 42.5352 63.7273 42.5689C64.2025 42.6793 64.633 42.5891 64.9701 42.519C65.318 42.4463 65.5509 42.3938 65.735 42.1931C66.0342 41.8672 65.9841 41.3891 65.9543 41.1049C65.8799 40.4005 65.513 39.8456 65.1894 39.3648C64.8361 38.8409 64.568 38.5944 64.6425 38.4948C64.7034 38.4113 64.9308 38.523 65.6267 38.7116C65.9476 38.7991 66.1723 38.8598 66.3659 38.8934C66.3564 38.8867 66.3469 38.8826 66.3374 38.8746C66.0775 38.6564 66.3158 38.2496 66.3374 37.3513C66.3523 36.7345 66.4187 36.119 66.4471 35.5022C66.4579 35.257 66.4634 35.1183 66.5568 35.0671C66.7707 34.95 67.2662 35.3985 67.6683 35.8712C67.6439 35.8389 67.6209 35.8079 67.5951 35.7742C67.2377 35.3069 67.0103 35.1358 67.0387 34.9446ZM48.4617 21.7499C48.6837 21.8617 48.7446 21.991 49.0086 22.0758C49.1535 22.123 49.385 22.197 49.5556 22.0758C49.7492 21.9371 49.783 21.6004 49.6652 21.4226C49.6043 21.331 49.538 21.3351 49.4473 21.2044C49.4148 21.1573 49.2875 20.9795 49.3376 20.8785C49.4188 20.7155 49.9793 20.7048 50.3218 20.9876C50.4112 21.0617 50.4504 21.1263 50.6495 21.5317C51.0407 22.325 51.0556 22.4112 51.1964 22.5108C51.4699 22.7021 51.9126 22.7277 52.1806 22.5108C52.4189 22.3182 52.5028 21.9465 52.3999 21.8576C52.2903 21.7647 52.0507 22.0489 51.7433 21.9667C51.5673 21.9196 51.4699 21.7782 51.3061 21.5317C51.0109 21.09 51.103 20.9674 50.8688 20.6617C50.6874 20.4246 50.468 20.2819 50.2122 20.1176C49.8534 19.8859 49.653 19.8415 49.6652 19.7916C49.6869 19.7014 50.2866 19.9425 51.1964 19.9007C51.3873 19.8913 51.6567 19.8671 51.7433 20.0098C51.83 20.1512 51.6567 20.329 51.7433 20.4448C51.853 20.5916 52.3025 20.5364 52.3999 20.3357C52.4744 20.1822 52.3079 20.0125 52.3999 19.9007C52.4839 19.797 52.6721 19.8832 52.7276 19.7916C52.7925 19.6852 52.5651 19.5196 52.6179 19.3566C52.6599 19.2287 52.8237 19.2556 52.9455 19.1398C53.2109 18.8879 53.1202 18.1162 52.7262 17.8347C52.5638 17.7189 52.4067 17.7256 52.1793 17.5088C52.0452 17.3795 52.0561 17.3351 51.9599 17.2906C51.7122 17.1775 51.4712 17.4118 51.3034 17.2906C51.2181 17.2287 51.2614 17.1546 51.1937 17.0738C50.9459 16.7734 49.9712 17.327 49.7722 17.0738C49.6625 16.9337 49.9008 16.6845 49.7722 16.5297C49.6544 16.3896 49.4039 16.5324 49.0073 16.4206C48.7988 16.3627 48.6824 16.2711 48.57 16.2037C47.8917 15.7916 46.8967 15.9303 46.4933 15.9856C45.9409 16.0623 46.1128 16.1364 45.2911 16.3115C44.426 16.496 43.477 16.698 42.8853 16.3115C42.8325 16.2778 42.6796 16.1714 42.4481 16.0946C42.2612 16.0327 41.8795 15.9061 41.6832 16.0946C41.5383 16.2334 41.5667 16.4718 41.5735 16.5297C41.5979 16.7371 41.7211 16.8825 41.7928 16.9647C41.9715 17.1734 42.1001 17.1707 42.1204 17.2906C42.1489 17.4549 41.9431 17.6367 41.7928 17.7256C41.4476 17.9303 41.2053 17.7566 41.0279 17.9425C40.856 18.1229 40.879 18.496 41.0279 18.5957C41.1673 18.6873 41.3704 18.5095 41.4652 18.5957C41.5545 18.6765 41.5112 18.958 41.3555 19.1398C40.9805 19.5775 40.2034 19.1411 39.8244 19.5748C39.6646 19.758 39.6254 20.0381 39.7147 20.1189C39.8514 20.2415 40.263 19.863 40.4796 20.0098C40.6258 20.1081 40.5947 20.3856 40.5893 20.4448C40.5202 21.0819 39.7188 21.4684 39.1678 21.859C37.9845 22.698 38.6005 23.1034 36.9814 24.9041C36.9814 24.9041 35.396 26.6671 35.5598 27.2974C35.5666 27.3243 35.6126 27.4819 35.5598 27.5142C35.4989 27.5533 35.327 27.4119 35.2322 27.2974C35.0021 27.0213 35.0292 26.6859 35.0129 26.4274C35.0021 26.2509 34.9764 26.1957 34.466 25.0132C33.8026 23.4738 33.8378 23.5492 33.8094 23.49C33.364 22.5512 33.0445 21.5465 32.4975 20.6617C32.4474 20.5809 32.3269 20.395 32.3879 20.2267C32.442 20.0799 32.6004 20.0394 32.6072 19.9007C32.6099 19.8415 32.5842 19.7903 32.4975 19.6825C32.3405 19.4873 32.2132 19.3903 32.0602 19.2475C31.8287 19.0334 31.7137 18.9229 31.7326 18.8125C31.7516 18.698 31.8897 18.6266 31.9519 18.5957C32.1672 18.4852 32.3053 18.5768 32.3892 18.4866C32.4894 18.3788 32.4447 18.0879 32.2796 17.9425C32.0602 17.7499 31.7245 17.9021 31.623 17.7256C31.5864 17.6596 31.5918 17.5707 31.623 17.5088C31.7556 17.2381 32.3324 17.5021 32.8251 17.1829C32.8495 17.1667 33.1934 16.9364 33.2624 16.5297C33.276 16.4529 33.3288 16.1391 33.1528 15.9856C32.9064 15.7714 32.396 16.034 32.2782 16.0946C31.9601 16.2576 31.7759 16.4785 31.7313 16.5297C30.8838 17.494 27.7876 17.1169 27.6861 16.5297C27.6698 16.4394 27.7321 16.3802 27.6861 16.3115C27.5209 16.0637 26.5177 16.5458 26.3742 16.3115C26.3323 16.2441 26.4094 16.1889 26.3742 16.0946C26.2659 15.797 25.2979 15.6933 24.9527 16.0946C24.8024 16.2697 24.8891 16.4004 24.7334 16.5297C24.4464 16.7681 24.0172 16.43 23.7492 16.6388C23.5068 16.8273 23.7438 17.199 23.5299 17.3997C23.1454 17.7633 21.9567 16.9512 21.6711 17.2906C21.5763 17.4024 21.6684 17.5371 21.5614 17.6165C21.3489 17.7741 20.9292 17.2866 20.4675 17.3997C20.2794 17.4455 20.1656 17.5707 20.0303 17.7256C19.4955 18.3357 19.1665 19.4172 19.593 20.2267C19.6701 20.3735 19.8164 20.6496 20.0303 20.6617C20.297 20.6765 20.3782 20.2644 20.9048 19.9007C21.0497 19.7997 21.3624 19.5896 21.7794 19.5748C22.2194 19.5586 22.6634 19.7647 22.6539 19.9007C22.6472 20.0098 22.3534 19.9883 21.889 20.2267C21.579 20.3856 21.25 20.5553 21.1241 20.8799C20.9955 21.2112 21.1878 21.4186 21.0145 21.6408C20.8845 21.8078 20.6625 21.8347 20.4675 21.8576C19.8028 21.9384 19.4278 21.591 19.2654 21.7485C19.1422 21.8671 19.218 22.1943 19.375 22.4017C19.7284 22.8677 20.5461 22.791 21.0145 22.6186C21.1702 22.562 21.4572 22.457 21.6711 22.1836C21.908 21.8805 21.7875 21.7108 21.9987 21.3135C22.0163 21.2812 22.3832 20.6118 22.9829 20.5526C23.1467 20.5364 23.3877 20.5593 23.4202 20.6617C23.4527 20.7627 23.2605 20.8839 22.8733 21.2058C22.084 21.8617 22.0921 22.0179 22.1084 22.0758C22.1476 22.2213 22.3696 22.2765 22.436 22.2927C22.834 22.3923 23.2307 22.1041 23.4202 21.9667C23.7099 21.7566 23.7126 21.6489 23.8575 21.6408C24.2054 21.6219 24.5276 22.2253 24.6224 22.4017C24.8025 22.7385 24.7632 22.8462 24.95 23.055C25.0989 23.2206 25.4062 23.4684 25.6066 23.3809C25.8652 23.2691 25.7163 22.7007 25.9342 22.6199C26.1305 22.5472 26.4988 22.9149 26.6991 23.2731C26.9713 23.758 26.8494 24.0718 27.1364 24.2523C27.3557 24.391 27.5724 24.2967 27.6834 24.4704C27.7226 24.5324 27.7389 24.6132 27.6834 24.9055C27.6319 25.1762 27.5954 25.3688 27.464 25.6664C27.2488 26.162 27.0863 26.2361 27.1364 26.4274C27.1919 26.6455 27.4288 26.659 27.464 26.8624C27.4762 26.9297 27.4613 26.9957 27.4329 27.059C27.4898 26.993 27.5588 26.9418 27.6279 26.9163C27.8919 26.8179 28.0841 27.0967 28.5566 27.2974C28.6554 27.3392 28.7556 27.358 28.9478 27.4092C29.2971 27.5021 29.3878 27.5075 29.5949 27.5695C29.8711 27.653 30.0756 27.7526 30.1419 27.7863C30.5088 27.9735 30.766 28.2025 30.9068 28.3304C31.2737 28.6617 31.3265 28.8233 31.5079 28.8193C31.6135 28.8166 31.6094 28.7627 31.9993 28.5472C32.1577 28.4597 32.2687 28.4085 32.4366 28.3291C32.7223 28.1957 32.7954 28.1782 32.8387 28.1688C33.0066 28.1351 33.0973 28.1782 33.257 28.1647C33.4736 28.1472 33.6726 28.1351 33.9136 28.0557C34.6162 27.8253 34.7638 27.3822 35.1713 27.4577C35.2931 27.4806 35.4543 27.5493 35.4989 27.6745C35.6045 27.9722 34.998 28.4031 34.952 28.4355C34.7137 28.6025 34.466 28.6954 34.1871 28.7614C33.1758 29.0025 32.7033 28.6644 32.1645 29.0334C32.0751 29.094 31.8694 29.2395 31.8369 29.4685C31.8166 29.6072 31.8694 29.727 31.9465 29.9035C32.0806 30.2092 32.1685 30.2119 32.22 30.3924C32.2796 30.5998 32.2484 30.8947 32.0562 31.0994C31.8287 31.3419 31.5025 31.323 31.3996 31.3176C31.3062 31.3122 31.053 31.2974 30.8526 31.0994C30.5954 30.8462 30.6293 30.492 30.6333 30.4476C30.6685 30.1311 30.8743 30.0988 30.9609 29.7944C31.0665 29.4294 30.9054 29.0119 30.6875 28.7614C30.4086 28.4395 30.0106 28.3627 29.5394 28.2725C29.3431 28.2348 29.2578 28.2334 28.7163 28.1472C28.585 28.1257 28.4293 28.0988 28.2276 28.0557C27.8499 27.9762 27.4925 27.894 27.353 27.6206C27.3381 27.591 27.2853 27.4846 27.2989 27.3486C27.3043 27.2987 27.3165 27.2503 27.3368 27.2045C27.2677 27.2893 27.1865 27.3594 27.1351 27.4025C26.2321 28.1661 25.7813 28.5486 25.4956 28.7075C24.6278 29.191 24.0267 29.6584 22.8719 30.5567C22.241 31.0469 21.4667 31.3203 20.7952 31.7526C20.7329 31.793 20.5474 31.9143 20.3579 31.8617C20.2414 31.8294 20.1751 31.7459 20.0303 31.5358C19.7311 31.1062 19.5821 30.888 19.593 30.7749C19.6106 30.585 19.7527 30.4664 20.0303 30.2307C20.4499 29.8765 20.6273 29.9156 20.7952 29.6866C21.0158 29.389 20.9522 28.9984 20.9048 28.7075C20.7884 27.991 20.4039 27.4954 20.2482 27.2934C19.1868 25.9183 18.6561 25.2314 18.2798 24.6832C17.8073 23.9937 17.2549 23.3526 16.8583 22.6172C16.7283 22.3762 16.4359 21.8105 16.2017 21.8563C16.0907 21.8778 16.0081 22.0354 15.874 22.2913C15.7143 22.5957 15.7184 22.7129 15.6547 22.7263C15.4882 22.76 15.3176 21.9573 14.8898 21.2031C14.1682 19.929 13.4697 20.1229 12.9214 18.9189C12.6614 18.3465 12.6682 17.9721 12.2648 17.7229C11.8844 17.4859 11.2941 17.4603 11.0626 17.7229C10.8622 17.9506 11.0098 18.3021 10.8433 18.3748C10.67 18.4502 10.3721 18.1297 10.2963 18.0489C9.96465 17.692 9.89967 17.3835 9.74939 17.0697C9.36897 16.2751 8.94117 16.4893 8.32789 15.5465C8.03411 15.0953 8.02464 14.8798 7.67129 14.5674C7.49123 14.4084 7.21235 14.162 6.79673 14.1323C6.29852 14.0973 5.80709 14.3896 5.59454 14.7856C5.51873 14.9243 5.51873 15.001 5.48488 15.6556C5.41719 16.9647 5.39553 17.063 5.48488 17.2866C5.57559 17.5169 5.60537 17.4307 6.03182 18.1566C6.3784 18.7479 6.40277 18.8785 6.35944 18.9176C6.29988 18.9728 6.10764 18.8556 6.03182 18.8085C5.64192 18.5701 5.50654 18.2926 5.15726 17.8293C4.82422 17.3876 4.65229 17.1654 4.39235 17.0684C4.33955 17.0482 3.99027 16.9243 3.62745 17.0684C3.15091 17.2583 2.98303 17.7768 2.86254 18.1566C2.70279 18.6536 2.73393 19.0846 2.75288 19.3526C2.77455 19.6596 2.78538 19.8132 2.86254 20.0058C2.95596 20.2415 3.08863 20.4004 3.19017 20.7667C3.23349 20.9243 3.24973 21.0415 3.19017 21.0927C3.13195 21.1425 3.02635 21.1088 2.9722 21.0927C2.80568 21.0415 2.72039 20.9391 2.64458 20.8758C2.40225 20.6711 1.98392 20.6253 1.77002 20.7667C1.63193 20.8583 1.58996 21.0199 1.5507 21.2017C1.30701 22.3613 1.42479 23.3512 1.44104 23.4859C1.48301 23.824 1.50467 23.9923 1.5507 24.1391C1.77814 24.8691 2.30613 25.3499 2.53492 25.5533C3.01011 25.9748 3.33367 26.0678 3.29983 26.2065C3.26869 26.3358 2.96273 26.3519 2.09764 26.4233C0.716749 26.5378 0.517738 26.5782 0.348511 26.7492C0.00599656 27.0967 0.0818101 27.6812 0.129194 28.0543C0.158978 28.2886 0.265929 29.1089 0.894098 29.5775C1.3747 29.9345 1.7822 29.8038 2.42526 30.3385C2.62427 30.5042 2.7759 30.6348 2.75288 30.7735C2.69873 31.1008 1.77679 30.9015 1.00376 31.4254C0.295713 31.9075 -0.0941856 32.8665 0.0195347 33.7096C0.0615029 34.0207 0.103471 34.3318 0.347158 34.5796C1.03083 35.2759 2.40766 34.5688 2.86119 35.2314C2.97491 35.3971 3.00334 35.6086 2.97085 35.7756C2.85848 36.3439 2.04619 36.3116 1.54934 36.9715C1.21901 37.4119 1.04437 38.1379 1.33003 38.6025C1.71316 39.2234 2.85171 39.2705 3.18881 39.2557C3.26869 39.2517 3.36752 39.2422 3.51644 39.2557C4.00381 39.3015 4.11618 39.517 4.391 39.4725C4.70644 39.4214 4.8364 39.0914 4.93794 39.1466C5.03541 39.1991 4.95283 39.5251 4.93794 39.5816C4.85536 39.9035 4.70102 40.088 4.61032 40.2348C4.43838 40.5109 4.42349 40.7816 4.391 41.3231C4.33279 42.3251 4.28269 43.1884 4.82828 43.6073C5.40771 44.053 6.34591 43.7554 6.46775 43.7163C7.22047 43.4766 7.56434 42.9311 7.77959 43.0631C7.94611 43.1655 7.75252 43.4995 7.88925 44.1514C7.92581 44.3264 8.01651 44.7372 8.32654 45.1305C8.44567 45.2813 8.73133 45.6436 9.2011 45.7837C9.84281 45.9749 10.4777 45.6477 11.0599 45.3487C11.7598 44.9877 11.7476 44.7965 12.0441 44.8046C12.767 44.8261 12.9809 45.9803 13.7932 46.0005C14.0464 46.0073 14.2386 45.8995 14.4498 45.7837C14.6394 45.6786 15.0563 45.4039 15.4341 44.5877C15.9377 43.5009 15.805 42.6779 16.0907 42.6295C16.2897 42.5958 16.3655 42.9958 16.8556 43.1736C16.9057 43.1924 17.3226 43.3365 17.7301 43.1736C18.3475 42.9271 18.3407 42.2173 18.7143 42.1944C19.0433 42.1742 19.0975 42.7264 19.6986 42.9554C20.0465 43.0887 20.5542 43.1035 20.7925 42.8463C21.0673 42.55 20.8615 42.0261 21.0104 41.9763C21.1688 41.9237 21.3313 42.5338 21.7753 42.6295C22.13 42.7049 22.4888 42.414 22.7595 42.1944C23.3078 41.7486 23.4744 41.2705 23.6341 41.3244C23.7438 41.3608 23.756 41.6194 23.7438 41.7594C23.7302 41.9184 23.6639 42.1716 23.3065 42.5204C22.7365 43.0753 22.2546 43.0672 22.2126 43.3904C22.1909 43.5574 22.2965 43.746 22.4319 43.8254C22.677 43.9709 22.9288 43.7042 23.1968 43.8254C23.4229 43.9278 23.5326 44.2483 23.5244 44.4786C23.5001 45.1413 22.4793 45.548 22.4306 45.5669C21.1864 46.0463 20.6219 45.0201 19.3696 45.4578C18.7617 45.6706 18.3529 46.1029 17.7301 46.7628C17.5338 46.9716 17.4296 47.1143 17.4025 47.3069C17.3456 47.7029 17.6516 48.0113 17.5122 48.177C17.4323 48.2712 17.3186 48.1877 17.1845 48.2861C16.9652 48.4463 16.9855 48.8719 17.0749 49.1561C17.1602 49.4255 17.2698 49.4484 17.4025 49.7002C17.5528 49.9857 17.7179 50.5406 17.5122 50.8962C17.2048 51.4268 16.2761 51.1696 16.0907 51.6571C16.0216 51.8376 16.0744 52.0706 16.2003 52.2012C16.5279 52.5393 17.3416 52.1622 17.4025 52.3103C17.435 52.3898 17.2076 52.5245 16.9652 52.7453C16.4738 53.1925 16.0595 53.8659 16.2003 54.0504C16.3682 54.2699 17.2915 53.7568 17.4025 53.9413C17.4891 54.0841 16.9964 54.4841 17.0749 54.5945C17.1818 54.744 18.1241 54.0746 18.4964 54.3763C18.5546 54.4235 18.6155 54.5097 18.606 54.5945C18.5844 54.7682 18.2744 54.8639 18.0591 54.9204C16.9855 55.2033 15.9824 55.1373 15.9824 55.1373C15.1322 55.0821 14.879 54.9487 14.4512 55.1373C14.3023 55.2033 14.1669 55.2922 13.9042 55.3555C13.6755 55.4093 13.3316 55.4915 13.0297 55.3555C12.7427 55.2262 12.767 55.0241 12.2648 54.3763C12.0116 54.0504 11.8817 53.8861 11.7178 53.8322C11.4742 53.7528 11.2075 53.8201 10.7336 53.9413C10.4128 54.0235 10.3965 54.0571 10.2963 54.0504C9.8049 54.0154 9.49082 53.148 9.42177 52.9622C8.80849 51.3177 7.61578 49.948 6.79808 48.3938C4.9596 44.9015 4.93929 45.645 4.39235 44.1527C3.94153 42.9217 3.72357 41.781 2.64323 40.9985C2.41308 40.8315 1.74294 40.3453 1.11206 40.5635C0.482539 40.7816 0.257806 41.5763 0.237499 41.6517C-0.0576327 42.752 0.864314 43.6342 3.08051 46.6551C3.98486 47.8861 4.68207 48.9002 5.15726 49.5911C7.29358 52.6969 6.859 52.3494 7.34367 52.8544C7.91904 53.4524 8.74351 54.1635 8.54585 54.7036C8.43755 55.0012 8.08826 55.0497 7.99891 55.4645C7.93528 55.7649 8.03817 56.1029 8.21688 56.3346C8.47681 56.6699 8.75163 56.5945 8.87348 56.8787C9.01021 57.1992 8.72456 57.4524 8.87348 57.6396C9.05353 57.8659 9.55851 57.606 9.74804 57.8578C9.8577 58.0019 9.73856 58.1514 9.8577 58.2928C9.9836 58.4437 10.2097 58.3844 10.5143 58.4019C10.8852 58.4235 11.5527 58.5716 11.7165 58.946C11.8627 59.2801 11.5215 59.5952 11.7165 59.8161C11.7693 59.8767 11.9345 59.9292 12.2634 60.0329C12.5396 60.1205 12.5423 60.1056 12.591 60.142C12.6614 60.1932 12.7846 60.3225 12.8104 61.0121C12.8266 61.4498 12.7806 61.4969 12.8104 61.773C12.8496 62.1286 12.9539 62.3009 13.0297 62.5339C13.3262 63.4592 12.6953 63.936 13.0297 64.4922C13.2531 64.8612 13.7892 65.0767 14.1236 64.9272C14.4106 64.7979 14.4891 64.4249 14.5608 64.0572C14.7869 62.8976 14.5229 61.4053 14.0139 60.7939C13.953 60.7211 13.7486 60.4922 13.6863 60.1407C13.6538 59.9575 13.6727 59.8161 13.6863 59.7057C13.7959 58.8572 13.8501 58.4329 13.7959 58.2915C13.5888 57.7622 12.7874 57.7649 12.8117 57.5306C12.8307 57.346 13.3397 57.1656 13.7959 57.2046C14.1885 57.2369 14.4593 57.4255 14.5608 57.3137C14.6597 57.206 14.4729 56.9595 14.5608 56.8787C14.6922 56.7588 15.1741 57.245 15.4354 57.0955C15.5952 57.004 15.4977 56.775 15.6547 56.6605C15.9607 56.4369 16.6769 57.0565 16.8569 56.8787C16.9517 56.7858 16.7811 56.5918 16.8569 56.4437C17.0072 56.1487 17.9562 56.3629 18.9337 56.5528C21.1038 56.973 21.69 56.9326 22.214 56.7696C22.5348 56.6699 23.1494 56.48 23.3078 56.0087C23.4676 55.5305 23.0858 54.9757 23.3078 54.8127C23.3755 54.7629 23.4622 54.779 23.6355 54.8127C24.1404 54.911 24.3503 55.2208 24.51 55.1386C24.6048 55.0901 24.6346 54.9285 24.6197 54.8127C24.5723 54.4571 24.0768 54.4356 23.9631 54.0517C23.9143 53.8847 23.9333 53.6396 24.0727 53.5076C24.3124 53.2827 24.6806 53.6033 25.3846 53.5076C25.5998 53.478 26.0628 53.4161 26.2592 53.0726C26.3769 52.8679 26.4013 52.5595 26.2592 52.4194C26.1536 52.3171 26.0371 52.3817 25.7122 52.3103C25.5971 52.2847 25.3602 52.2322 25.1653 52.0935C24.8728 51.8834 24.7862 51.5521 24.728 51.3325C24.6901 51.1871 24.6061 50.7992 24.728 50.3534C24.8877 49.7689 25.3047 49.4484 25.8219 49.0484C26.4257 48.5824 26.9374 48.1864 27.6807 48.1783C28.2073 48.1729 28.5985 48.3642 28.8828 48.5042C29.2402 48.6793 29.8671 49.0672 30.3043 49.8093C30.5318 50.1958 31.0151 51.0174 30.7416 51.7676C30.4113 52.6713 29.3486 52.4625 28.6649 53.6167C28.3224 54.1932 28.1518 54.981 28.4456 55.2477C28.7096 55.4874 29.2389 55.2033 29.3201 55.3568C29.4406 55.5844 28.3549 56.379 28.1179 56.5528C27.0051 57.3676 26.1008 57.8013 25.6039 58.2928C24.9622 58.9272 24.9473 58.9447 24.9473 58.946C24.9026 59.0013 24.839 59.0821 24.728 59.1629C24.4992 59.3326 24.2718 59.3595 24.181 59.3797C23.5109 59.5292 23.4527 60.837 22.8692 60.903C22.6986 60.9218 22.5483 60.8275 22.3223 60.6848C22.0298 60.5016 21.8593 60.2605 21.7753 60.1407C21.5086 59.7582 21.5194 59.5306 21.338 59.4875C21.1363 59.4403 20.9292 59.6733 20.9008 59.7043C20.7884 59.8296 20.7261 59.9831 20.6814 60.5743C20.6395 61.1292 20.6192 61.4067 20.6814 61.7703C20.7721 62.2942 20.8926 62.2484 20.9008 62.5312C20.9143 63.0888 20.4405 63.268 19.8069 64.2713C19.5199 64.7266 19.3371 65.0228 19.2599 65.4673C19.195 65.8457 19.2532 66.1542 19.3696 66.7724C19.4711 67.3084 19.5808 67.8673 19.9165 68.5124C20.1291 68.9205 20.2658 69.1751 20.5731 69.3825C20.8493 69.5697 21.4301 69.8296 21.7753 69.6006C22.0948 69.3878 21.9161 68.9569 22.2126 67.8606C22.2356 67.7771 22.4861 66.8599 22.6499 66.8814C22.7555 66.8949 22.6986 67.2814 22.8678 67.7515C23.1048 68.4074 23.6206 68.7804 23.8521 68.9474C23.9319 69.0054 25.1775 69.8902 25.7109 69.4916C26.2307 69.1023 25.6919 67.7771 26.0385 67.6424C26.1211 67.6114 26.2388 67.6505 26.8034 68.1865C27.6901 69.0269 27.5954 69.1131 27.8973 69.2747C28.3183 69.4996 28.3887 69.2693 29.8657 69.3838C30.5034 69.4323 30.6604 69.4889 30.9596 69.3838C31.5404 69.1804 31.8369 68.6606 31.9438 68.732C32.0169 68.7804 31.8734 69.0242 31.8342 69.3838C31.7827 69.87 31.9574 70.2579 32.0535 70.472C32.484 71.4296 33.632 72.0613 34.6772 71.9953C34.707 71.9939 34.7706 71.9885 34.8572 71.9764C34.8396 71.9643 34.8329 71.9495 34.841 71.9414C34.8234 70.4734 34.8044 69.0054 34.7868 67.5373L34.8965 63.5131L35.0061 55.3568V50.2457C35.0061 50.2457 35.2079 44.6241 35.2255 44.1554C35.3297 41.2005 35.4461 36.55 35.4989 29.0927C35.5165 28.8934 35.5355 28.694 35.5531 28.4947C36.1907 28.9472 36.8284 29.4011 37.466 29.8536C37.6298 29.9075 37.7936 29.9627 37.9575 30.0166L38.0671 33.9318V37.8469L37.8478 38.5001L37.7381 42.8503C37.7381 42.8503 37.7381 45.2436 37.7381 45.3514C37.7381 45.4605 37.5188 52.2026 37.5188 52.2026V57.5319V61.9912C37.5188 64.239 37.5188 66.4868 37.5188 68.7346C37.4931 68.973 37.4444 69.2491 37.355 69.5508C37.3252 69.6532 37.2914 69.7488 37.2575 69.8431C37.3212 69.7246 37.3929 69.6438 37.5188 69.606C37.795 69.5239 37.948 69.7609 38.3934 69.932C39.0148 70.1717 39.7783 70.1178 40.3997 69.8714C40.133 69.7636 40.022 68.6565 40.5798 64.6026C40.5622 61.575 40.5432 58.5487 40.5256 55.5211C40.5487 55.5346 40.5676 55.548 40.5866 55.5629C40.5811 55.5319 40.5771 55.4996 40.5798 55.4672C40.5811 55.447 40.5893 55.3662 40.6339 55.3029C40.7071 54.6147 40.7802 53.9265 40.8519 53.2383C40.944 53.3029 41.0198 53.3595 41.0848 53.408C40.8275 53.1723 40.3876 52.8329 39.5956 52.313C38.5423 51.6234 38.3785 51.6073 38.2837 51.3339C37.994 50.5029 39.0852 49.4403 39.4859 49.0497C39.8447 48.6995 40.1669 48.3871 40.5243 48.2147C40.5419 42.2577 40.5608 36.3008 40.5784 30.3439C41.6425 30.2011 42.1326 30.0099 42.3817 29.855C42.4142 29.8348 42.6105 29.7109 42.888 29.5493C43.2265 29.3526 43.3957 29.2543 43.4201 29.2557C43.6881 29.2745 43.7382 33.521 43.1466 48.1244C43.0397 48.4787 42.9327 48.8329 42.8258 49.1871C42.9084 49.2477 42.9963 49.3096 43.0911 49.3756C44.0862 50.0652 44.579 50.2457 44.8402 50.8989C44.9255 51.1103 45.0514 51.4255 44.9499 51.7689C44.8321 52.1716 44.5059 52.2645 43.9657 52.9649C43.791 53.1911 43.5528 53.5049 43.6381 53.6167C43.7464 53.7608 44.2622 53.4093 44.5126 53.6167C44.625 53.7097 44.6223 53.8645 44.6223 54.1608C44.6223 55.4619 44.6791 55.5548 44.7319 55.575C44.8416 55.6167 44.977 55.3501 45.4968 54.9218C45.7595 54.7049 45.9071 54.5864 46.0072 54.5891C45.9341 54.4167 45.8989 54.2241 45.8245 54.0517C45.3263 52.8921 45.7148 50.0275 45.7148 50.0275C45.7148 49.9184 45.9328 45.6773 45.9328 45.5682C45.9869 45.4052 46.0411 45.2436 46.0966 45.0807C45.9693 45.0416 45.8421 44.9891 45.7148 44.9163C45.6106 44.8557 45.3439 44.6901 45.1679 44.3722C45.0528 44.1648 44.9039 43.7621 45.0582 43.6113C45.2532 43.4214 45.7486 43.8012 45.9328 43.6113C46.0573 43.482 45.972 43.1547 45.8231 42.9581C45.7013 42.7978 45.6119 42.8221 45.3858 42.6322C45.1516 42.4355 45.0298 42.2268 44.9485 42.0881C44.8754 41.9628 44.5884 41.4712 44.7292 41.3271C44.7902 41.2651 44.9066 41.2907 45.0569 41.3271C45.4143 41.4119 45.6796 41.4779 45.884 41.5237L45.8759 41.5197C45.8759 41.5197 45.9328 31.5398 45.9328 31.323C45.9531 31.2233 45.995 31.0927 46.0966 31.051C46.1264 31.0388 46.1548 31.0375 46.1846 31.0429C46.1142 30.9944 46.0316 30.9432 45.9328 30.888C45.7013 30.7587 45.4806 30.6631 45.4955 30.5621C45.5063 30.492 45.6268 30.4355 45.8231 30.3452C45.9788 30.2725 46.0072 30.2806 46.0424 30.2361C46.1399 30.1122 46.0736 29.8483 45.9328 29.692C45.7649 29.5062 45.5699 29.5641 45.2762 29.4738C44.9161 29.3648 44.6345 29.0025 44.074 28.2779C43.8046 27.9291 43.6787 27.7216 43.7464 27.6247C43.8195 27.5223 44.0469 27.6435 44.1836 27.5156C44.3204 27.3876 44.2879 27.0806 44.1836 26.8624C43.9955 26.4705 43.6245 26.4691 43.527 26.1014C43.5081 26.0301 43.5149 25.9452 43.527 25.7755C43.5568 25.3769 43.6353 25.1102 43.7464 24.6873C43.7761 24.5728 43.8398 24.321 43.9657 23.8172C44.1227 23.1869 44.1742 22.9634 44.2933 22.9472C44.4544 22.9257 44.5641 23.3014 44.7306 23.2731C44.866 23.2502 44.8416 22.9957 45.0582 22.729C45.2748 22.4637 45.6227 22.3209 45.7148 22.4031C45.8001 22.4785 45.6173 22.7061 45.7148 22.8381C45.8123 22.9701 46.1345 22.9284 46.3714 22.8381C47.1133 22.5553 47.0713 21.7768 47.6833 21.6421C47.912 21.5937 48.2139 21.6246 48.4617 21.7499ZM13.7499 62.0451C13.8271 62.5218 14.0234 62.5245 14.133 62.969C14.24 63.404 14.2089 64.0397 13.9137 64.1649C13.7756 64.2242 13.5807 64.1703 13.4764 64.0558C13.3167 63.8808 13.471 63.672 13.4223 63.1319C13.3925 62.8074 13.3316 62.8208 13.3126 62.4787C13.2896 62.0531 13.3803 61.9575 13.3668 61.7717C13.3654 61.7609 13.3627 61.7245 13.3844 61.6962C13.4236 61.6424 13.5265 61.6397 13.5847 61.6626C13.7107 61.7137 13.7296 61.9212 13.7499 62.0451ZM13.2585 61.0121C13.3316 60.9164 13.5143 60.9151 13.5861 61.0121C13.6335 61.0767 13.6213 61.1683 13.5861 61.2289C13.5428 61.3043 13.4494 61.3595 13.3668 61.338C13.2463 61.3057 13.1786 61.1144 13.2585 61.0121ZM24.9013 32.0274C23.6219 32.822 22.3615 33.5641 21.1296 34.2564L20.255 32.6254C20.255 32.6254 20.3646 32.4085 20.3646 32.2994C20.3646 32.1904 23.5353 30.6685 23.5353 30.5594C23.5353 29.9452 24.885 29.8604 25.7217 29.0361C25.9058 29.1142 26.2429 29.2853 26.5421 29.6341C26.89 30.0408 26.997 30.4678 27.0335 30.6671C26.3417 31.1223 25.631 31.5749 24.9013 32.0274ZM31.8436 40.9998C31.6013 41.2409 31.2859 41.2234 31.187 41.2167C31.0841 41.2113 30.8202 41.1965 30.6401 40.9998C30.4086 40.7466 30.4248 40.3062 30.6401 40.0207C30.8919 39.6867 31.3996 39.587 31.734 39.8025C32.0102 39.9803 32.0562 40.3022 32.0616 40.3466C32.0684 40.3897 32.1063 40.7399 31.8436 40.9998ZM31.9533 36.1069C31.669 36.2725 31.3048 36.1863 31.0787 35.9978C30.7822 35.7513 30.7105 35.319 30.8608 35.0187C30.9515 34.8355 31.1045 34.7426 31.1884 34.6927C31.2723 34.6415 31.6433 34.418 31.9533 34.5836C32.2349 34.7345 32.2687 35.1022 32.2809 35.2355C32.2917 35.3513 32.3405 35.8806 31.9533 36.1069ZM46.6422 61.3919C46.6476 61.3919 46.6516 61.3919 46.6571 61.3919C46.6571 61.3824 46.6557 61.3717 46.6557 61.3595C46.6516 61.3703 46.6476 61.3811 46.6422 61.3919ZM48.1341 64.274C48.1111 64.2403 48.0894 64.2094 48.0677 64.1784C48.0759 64.204 48.0799 64.2188 48.0799 64.2188C48.2329 64.7818 48.2437 65.035 48.2437 65.035C48.3074 66.4572 47.9012 67.8983 48.0258 68.9501C48.0366 69.039 48.065 69.2599 47.9811 69.5145C48.306 69.0741 48.5131 68.7791 48.681 68.2969C49.056 67.2235 48.8705 66.2821 48.7907 65.9037C48.7176 65.5616 48.5781 64.9313 48.1341 64.274ZM48.0786 41.8631C48.1679 41.8712 48.2302 41.8699 48.2424 41.8699C48.3236 41.8685 48.9572 41.8537 49.2266 41.4348C49.5095 40.9944 49.2036 40.3978 49.3363 40.3466C49.4527 40.3022 49.6016 40.7978 50.1012 41.1076C50.1418 41.1332 50.4207 41.3002 50.7903 41.3486C50.705 41.2194 50.7483 41.0335 50.7564 40.9985L50.8661 26.8597C50.8579 26.7439 50.8282 26.1109 51.2465 25.6179C50.6359 26.0691 50.0592 26.659 49.2266 27.5115C49.0168 27.727 48.6566 28.1136 48.6797 28.5998C48.6932 28.8853 48.8367 29.1412 48.899 29.253C49.0357 29.4994 49.1318 29.5425 49.4459 29.9062C49.7695 30.2806 49.9319 30.4678 49.9929 30.6671C50.1377 31.1398 49.9252 31.5654 49.8832 31.6462C49.8155 31.7769 49.6625 32.0691 49.3363 32.1904C49.1129 32.2739 48.9179 32.2361 48.6797 32.1904C48.3344 32.1244 48.2194 32.018 47.8051 31.8644C47.8024 31.8631 47.7983 31.8617 47.7956 31.8604C47.8173 31.8779 47.8376 31.8967 47.8592 31.9183C48.0217 32.0826 48.0962 32.2739 48.1327 32.4072L48.0786 41.8631Z" fill="white"/>
</svg>
