<svg width="48" height="63" viewBox="0 0 48 63" fill="none" xmlns="http://www.w3.org/2000/svg">
			<g filter="url(#filter0_d)">
				<path d="M14.236 43.8612C14.8322 44.0406 15.3853 44.2201 15.8982 44.398C20.3446 45.94 22.7738 50.0575 24.0857 54.5771C25.3635 50.1046 27.8549 45.8452 32.2555 44.3383C32.7174 44.1802 33.2122 44.0208 33.7422 43.8612C43.505 40.9079 44 33.0238 44 31.4736V0H4V31.476C4 33.0263 4.49261 40.9104 14.236 43.8612Z"
						fill="#D50000"/>
			</g>
			<path d="M27.4363 36.5996C27.4453 36.587 27.4543 36.5751 27.4633 36.5637L27.4627 36.5631C27.4543 36.5745 27.4459 36.5864 27.4363 36.5996ZM27.0964 30.8688C27.1065 30.882 27.1191 30.8909 27.1323 30.8981C27.1197 30.8885 27.1077 30.8778 27.0952 30.867C27.0958 30.8676 27.0964 30.8682 27.0964 30.8688ZM39.2743 18.0412C39.2833 18.0466 39.2911 18.052 39.2977 18.0597C39.3265 18.0921 39.3097 18.1172 39.3463 18.2046C39.3637 18.2465 39.3817 18.2794 39.3948 18.301C39.3565 18.6972 39.3721 18.8822 39.3948 18.978C39.3972 18.987 39.4188 19.0767 39.4188 19.1953C39.4188 19.2809 39.4188 19.3234 39.3948 19.3647C39.3936 19.3665 39.393 19.3671 39.3918 19.3688C39.5489 19.2635 39.6886 19.1522 39.8061 19.0025C39.9075 18.8738 40.0052 18.7463 39.9998 18.5673C39.9956 18.4309 39.9326 18.271 39.8061 18.1807C39.745 18.137 39.6688 18.1196 39.5154 18.0843C39.4164 18.0609 39.3271 18.0478 39.2743 18.0412ZM33.8508 21.8057L33.9959 21.2256L33.8994 19.0989L33.948 17.8419C33.9402 17.1924 33.9318 16.5429 33.924 15.8935C33.9162 15.8989 33.9084 15.9037 33.8994 15.9084C33.7999 15.9647 33.7399 15.933 33.6572 15.9569C33.433 16.021 33.4773 16.364 33.2699 16.4406C33.0936 16.5052 32.9114 16.3149 32.834 16.3921C32.7854 16.4412 32.8466 16.5298 32.834 16.6339C32.8268 16.6962 32.7938 16.7507 32.7471 16.7985C32.7525 16.7991 32.7579 16.8003 32.7615 16.8033C32.7711 16.8117 32.789 16.844 32.6889 17.0206L32.7375 17.3588L32.6404 17.697V18.7607V24.2712C32.6326 24.4245 32.6242 24.5771 32.6164 24.7303C32.602 24.7537 32.5822 24.7824 32.5678 24.7788C32.548 24.7734 32.5534 24.7076 32.5438 24.7064C32.53 24.7052 32.5204 24.8303 32.4869 24.8662C32.65 24.9602 32.8748 24.9817 33.0283 24.8997C33.1871 24.8147 33.2153 24.6495 33.319 24.6579C33.397 24.6645 33.4449 24.7633 33.5127 24.8997C33.7573 25.3942 33.7291 25.299 33.8035 25.4798C33.8143 25.5067 33.8251 25.5324 33.8359 25.5582C33.8341 25.5079 33.8383 25.4498 33.852 25.3834C33.8508 24.1904 33.8508 22.998 33.8508 21.8057ZM34.8809 14.919C34.8845 14.919 34.8881 14.9178 34.8917 14.9178C34.9834 14.9184 35.0475 15.0166 35.0613 15.0387L35.1099 21.0323V23.5457L35.0613 25.5761C35.0433 25.6575 35.026 25.739 35.008 25.8204C35.0098 25.8198 35.011 25.818 35.0128 25.8174C35.0883 25.7904 35.1345 25.9155 35.3515 26.0107C35.4109 26.0364 35.6381 26.1328 35.8839 26.0592C35.9409 26.0418 36.0434 26.0101 36.1261 25.9143C36.1495 25.8868 36.2077 25.8198 36.2226 25.721C36.2418 25.5983 36.1801 25.5324 36.2226 25.4792C36.2616 25.4307 36.3252 25.4708 36.3677 25.4307C36.4715 25.3337 36.2346 24.965 36.3192 24.8991C36.3593 24.868 36.4385 24.9297 36.4643 24.8991C36.499 24.8578 36.3755 24.722 36.3623 24.6447C36.3557 24.6412 36.3491 24.6376 36.3432 24.6334C36.2736 24.5825 36.2718 24.4807 36.2706 24.4161C36.264 24.0982 36.267 23.8049 36.2706 23.5942V22.9172V21.2735V20.162V19.4371V17.5522V14.1684C36.2574 14.09 36.2526 14.0301 36.2538 13.9846C36.231 14.0014 36.2047 14.0151 36.1735 14.0235C36.0854 14.0475 36.0812 14.0002 35.9798 14.0235C35.7958 14.066 35.7856 14.2264 35.544 14.4587C35.4223 14.5754 35.2999 14.6556 35.1567 14.7484C35.0056 14.8472 35.0026 14.8328 34.9144 14.8933C34.903 14.9022 34.8923 14.9106 34.8809 14.919ZM27.4273 30.0499C27.4303 30.0643 27.4333 30.0793 27.4351 30.0954C27.4513 30.208 27.4675 30.3211 27.4837 30.4336C27.4849 30.4899 27.4789 30.6 27.4027 30.6635C27.3979 30.6677 27.3925 30.6719 27.3865 30.6755C27.3775 30.6755 27.356 30.6665 27.3302 30.6539C27.4261 30.7185 27.5094 30.7808 27.5556 30.7479C27.582 30.7287 27.5916 30.6814 27.5556 30.5061C27.5202 30.3313 27.4909 30.1906 27.4273 30.0499ZM13.8062 11.8968C13.9357 11.8561 13.9399 11.7663 14.0484 11.7519C14.1588 11.7369 14.2883 11.7998 14.3392 11.8968C14.3818 11.9782 14.3356 12.0219 14.3392 12.1871C14.3404 12.2308 14.347 12.399 14.4363 12.5737C14.4633 12.627 14.5323 12.7587 14.6786 12.8635C14.8524 12.9886 15.0287 12.9999 15.163 13.0083C15.3081 13.0179 15.6222 13.0131 15.6474 12.9113C15.6654 12.8389 15.5167 12.7958 15.4052 12.6216C15.2913 12.4427 15.2793 12.2242 15.3081 12.0901C15.3884 11.722 16.181 11.5238 16.2278 11.5101C16.2608 11.5005 16.3393 11.4789 16.3729 11.4131C16.4124 11.3359 16.3711 11.2335 16.3243 11.1234C16.2662 10.9851 16.2368 10.9881 16.2272 10.93C16.202 10.7726 16.3915 10.5883 16.5659 10.4949C16.8177 10.3602 16.8969 10.4895 17.1955 10.35C17.3735 10.2668 17.4652 10.1651 17.5828 10.2052C17.6745 10.2363 17.7195 10.3315 17.7278 10.35C17.777 10.4542 17.738 10.5272 17.7278 10.6882C17.7207 10.8019 17.7392 10.9091 17.7764 11.1234C17.8136 11.3365 17.8316 11.443 17.8735 11.5101C17.9509 11.6358 18.0714 11.692 18.3094 11.7998C18.4389 11.8584 18.6254 11.9416 18.8904 11.9931C19.057 12.0254 19.2579 12.0644 19.5199 12.0416C19.7255 12.0237 19.8586 11.977 19.9072 12.0416C19.915 12.0524 19.9252 12.0757 19.8586 12.2834C19.8131 12.4259 19.7897 12.4977 19.7615 12.5253C19.6746 12.6097 19.5906 12.5486 19.4228 12.6216C19.3286 12.6629 19.2225 12.5678 19.2291 12.6701C19.2357 12.7731 19.3376 12.8689 19.2777 12.9119C19.0852 13.0502 19.8101 13.0568 20.2945 13.0089C20.4366 12.9946 20.18 12.9119 20.5367 12.9119C20.8755 12.9119 21.4055 12.9119 21.8437 12.9119C21.9888 12.9119 22.2652 12.9886 22.3282 12.8635C22.3767 12.7671 22.3527 12.5899 22.3767 12.6216C22.3881 12.6372 22.2718 12.4846 22.3282 12.4283C22.3719 12.3852 22.5758 12.5384 22.6669 12.3313C22.6843 12.2918 22.7778 12.3613 22.812 12.3798C22.8558 12.4038 22.9835 12.3738 23.0057 12.2834C23.029 12.1865 23.0051 12.1476 23.0057 12.0901C23.0081 11.944 23.0386 11.9045 23.1028 11.8483C23.2659 11.704 23.568 11.7028 23.9745 11.4131C24.2695 11.203 24.5093 11.0528 24.8463 10.6882C24.9908 10.532 25.1143 10.3979 25.2336 10.2046C25.3133 10.0753 25.4026 9.95136 25.4758 9.81788C25.5219 9.73348 25.5345 9.70355 25.5729 9.67302C25.7384 9.54014 26.0424 9.66644 26.0573 9.67302C26.3703 9.8077 26.1988 10.2351 26.6383 10.6882C26.8158 10.8708 27.1227 11.4131 27.6066 11.7998C27.8524 11.9961 28.1803 11.965 28.2361 12.1865C28.3332 12.5732 28.2361 12.718 28.3332 12.815C28.4351 12.9167 28.5167 12.909 29.1078 12.8635C29.5905 12.8264 29.5923 12.815 30.1247 12.815C30.5389 12.815 30.5252 12.7635 30.7056 12.7665C31.0432 12.7725 31.1415 12.6695 31.3837 12.718C31.4431 12.73 31.6187 12.6869 31.771 12.5247C31.8981 12.3894 31.9922 12.2517 32.0618 12.041C32.1379 11.8112 32.1271 11.6962 32.1104 11.5574C32.0792 11.3036 31.9191 11.2222 31.9653 11.0258C31.9827 10.951 32.033 10.8462 32.1104 10.8325C32.1961 10.8169 32.259 10.9229 32.4011 11.0743C32.7075 11.4011 32.8916 11.4179 32.8856 11.558C32.8808 11.6723 32.7579 11.6771 32.6434 11.8962C32.6116 11.9572 32.5966 12.0793 32.5948 12.2344C32.5924 12.4882 32.7399 12.718 32.9335 12.8629C33.0271 12.9329 33.093 12.8886 33.1758 12.9598C33.3118 13.0766 33.3196 13.2657 33.3208 13.298C33.3256 13.4118 33.2915 13.5189 33.2237 13.6362C33.1074 13.8392 33.0127 13.8619 33.0301 13.9265C33.051 14.0032 33.2051 14.051 33.3208 14.0229C33.4 14.0038 33.3982 13.9643 33.5145 13.9265C33.6068 13.896 33.629 13.914 33.7081 13.8781C33.7723 13.8493 33.7693 13.832 33.8532 13.7817C33.9779 13.7069 34.0043 13.732 34.0469 13.6847C34.0859 13.6416 34.0889 13.5596 34.0955 13.3944C34.1003 13.2735 34.1026 13.2136 34.0955 13.1526C34.0865 13.0736 34.0733 13.0424 34.0955 13.0077C34.1284 12.9556 34.189 12.9748 34.2405 12.9108C34.2747 12.8683 34.2561 12.8491 34.2891 12.8144C34.3455 12.7539 34.4444 12.7629 34.4828 12.7659C34.5403 12.7707 34.5937 12.7755 34.6279 12.8144C34.6896 12.8844 34.6141 12.9802 34.6764 13.0562C34.71 13.0969 34.7711 13.1179 34.8215 13.1047C34.8791 13.0891 34.9066 13.0329 34.9186 13.0083C34.9612 12.9185 34.921 12.8706 34.9186 12.718C34.9156 12.5253 34.9768 12.4564 34.9186 12.3798C34.8863 12.3367 34.8533 12.3409 34.8215 12.2834C34.7861 12.2188 34.8083 12.1799 34.7729 12.1386C34.743 12.1033 34.6974 12.0979 34.6279 12.0901C34.4978 12.0757 34.4672 12.1134 34.3856 12.0901C34.3041 12.0668 34.3191 12.0243 34.2405 11.9937C34.1033 11.9405 34.0139 12.053 33.9018 11.9937C33.8484 11.9656 33.7957 11.9021 33.8047 11.8489C33.8191 11.7663 33.9743 11.7615 33.9983 11.6555C34.0073 11.616 33.9875 11.6088 33.9983 11.5592C34.0121 11.4933 34.0547 11.4646 34.0955 11.4143C34.1488 11.3485 34.1956 11.2491 34.192 11.1725C34.1884 11.0869 34.12 11.0246 33.9983 10.9306C33.7363 10.7289 33.4935 10.5877 33.4174 10.544C33.1236 10.3746 33.099 10.371 33.0301 10.3021C32.9239 10.1956 32.9054 10.1267 32.7878 10.0603C32.6583 9.98728 32.6176 10.0364 32.4971 9.96393C32.358 9.88013 32.2884 9.74066 32.2548 9.67362C32.1829 9.52877 32.2171 9.49465 32.1577 9.4318C32.048 9.31507 31.8256 9.32225 31.6733 9.38331C31.5918 9.41623 31.6073 9.43359 31.3825 9.62514C31.1049 9.86218 31.0138 9.8933 30.9952 10.0118C30.9862 10.0717 30.9976 10.1387 30.9466 10.2052C30.9077 10.2566 30.8741 10.2519 30.8495 10.3015C30.8249 10.3518 30.8519 10.3722 30.8495 10.4949C30.8477 10.5829 30.8333 10.5996 30.8495 10.6397C30.8711 10.6942 30.9197 10.7199 30.9466 10.7367C30.9748 10.7541 31.012 10.7822 31.1889 11.0749C31.3148 11.2832 31.3777 11.388 31.3825 11.4131C31.4233 11.6424 31.2608 11.8441 31.1403 11.9931C31.0492 12.1063 30.952 12.223 30.8015 12.235C30.7632 12.2379 30.6684 12.2451 30.6079 12.1865C30.485 12.0673 30.6726 11.8435 30.5593 11.6549C30.476 11.5161 30.2805 11.4807 30.172 11.4616C30.0905 11.4472 30.0977 11.4616 29.8333 11.4616C29.5863 11.4616 29.5545 11.449 29.3974 11.4616C29.2967 11.4694 29.2062 11.4825 29.1066 11.5101C29.0341 11.5298 28.9861 11.549 28.9615 11.5586C28.7913 11.6214 28.5263 11.6406 28.2835 11.5586C28.0892 11.4927 27.9663 11.3814 27.8962 11.3167C27.7642 11.1946 27.6953 11.0743 27.5574 10.8331C27.5178 10.7636 27.4423 10.6272 27.3638 10.4464C27.326 10.359 27.344 10.3919 27.2187 10.0597C27.1293 9.82327 27.1131 9.78855 27.1215 9.72151C27.1365 9.6 27.2061 9.58383 27.2666 9.4312C27.3308 9.27078 27.269 9.24623 27.3152 9.04451C27.3673 8.81765 27.4897 8.64586 27.5328 8.5854C27.6054 8.48544 27.6294 8.48185 27.6779 8.39206C27.7271 8.30227 27.7882 8.19034 27.775 8.05386C27.7654 7.95809 27.7259 7.91798 27.7511 7.83658C27.7631 7.79707 27.7762 7.79408 27.8236 7.71566C27.8392 7.68992 27.8878 7.60911 27.9207 7.52232C27.9627 7.40919 27.9681 7.31222 27.9693 7.28049C27.9729 7.16856 27.9771 7.04106 27.8967 6.96624C27.8404 6.91416 27.7918 6.93092 27.7517 6.86987C27.7133 6.81121 27.7439 6.7693 27.7031 6.72501C27.6701 6.68909 27.6311 6.69628 27.558 6.67652C27.4543 6.64899 27.4537 6.61367 27.3644 6.58015C27.1923 6.51551 27.1035 6.61188 26.977 6.53167C26.9141 6.49156 26.9363 6.46822 26.8799 6.4353C26.7246 6.34371 26.5382 6.51371 26.444 6.4353C26.3943 6.39399 26.4357 6.33773 26.3955 6.24195C26.3337 6.0953 26.1407 5.99594 25.9596 6.00013C25.763 6.00492 25.5627 6.13241 25.5237 6.29044C25.4986 6.3928 25.5585 6.43769 25.5237 6.48378C25.4374 6.59811 25.0735 6.31259 24.7006 6.4353C24.5843 6.47361 24.5135 6.53646 24.4098 6.62864C24.3462 6.6855 24.068 6.93332 24.0225 7.30563C24.0123 7.38824 24.0285 7.35532 24.0225 7.59595C24.0177 7.77851 24.0063 7.87668 24.071 7.93414C24.11 7.96886 24.1304 7.94791 24.1682 7.98263C24.2215 8.03171 24.2053 8.09935 24.2167 8.32083C24.2251 8.49023 24.2383 8.52854 24.2653 8.56265C24.3061 8.61473 24.3426 8.60934 24.3624 8.65962C24.393 8.73684 24.3259 8.79969 24.3624 8.85297C24.3858 8.88709 24.4224 8.87511 24.4596 8.90145C24.5303 8.95113 24.5147 9.07743 24.5081 9.19117C24.4865 9.55091 24.5645 9.56947 24.5081 9.77119C24.4745 9.89091 24.4206 9.9783 24.363 10.0615C24.0009 10.5793 23.399 11.0426 23.2976 11.1252C22.8348 11.5017 22.6339 11.613 22.3779 11.6567C22.1699 11.6926 21.9888 11.6723 21.8455 11.6567C21.4235 11.61 21.3845 11.4807 20.9738 11.4149C20.5883 11.3532 20.5739 11.4556 20.2477 11.3664C20.0229 11.3054 19.9396 11.2323 19.7153 11.2216C19.4839 11.2108 19.4647 11.2832 19.2795 11.27C19.0115 11.2509 18.6871 11.0731 18.6014 10.7864C18.5474 10.6068 18.5804 10.3626 18.6985 10.3027C18.7663 10.2686 18.8358 10.3093 18.8922 10.2542C18.9395 10.2082 18.9167 10.1531 18.9407 10.0609C18.9833 9.8957 19.1074 9.87594 19.1344 9.77059C19.1734 9.61975 18.9743 9.44616 18.8436 9.33542C18.5726 9.10437 18.3046 8.87631 17.9719 8.90025C17.6061 8.92659 17.6289 9.22528 17.0522 9.4318C16.6691 9.56887 16.2775 9.57665 16.2775 9.57665C15.9802 9.58264 15.9256 9.52577 15.7452 9.57665C15.4849 9.65028 15.1804 9.88612 15.1642 10.1567C15.1486 10.4105 15.3938 10.5595 15.3093 10.7367C15.2727 10.8127 15.199 10.8462 15.1156 10.8816C14.8045 11.0132 14.6618 10.866 14.3896 10.93C14.1456 10.9875 13.9843 11.1761 13.6635 11.5586C13.537 11.7094 13.4897 11.7938 13.5184 11.8483C13.5508 11.9165 13.6977 11.9309 13.8062 11.8968ZM27.0964 6.84532C27.1383 6.78247 27.2079 6.77409 27.2175 6.7729L27.4111 6.82138L27.6048 7.01472V7.35292C27.4933 7.37387 27.4723 7.38165 27.4351 7.37687C27.4291 7.37627 27.308 7.35831 27.2654 7.25595C27.2384 7.1913 27.2582 7.12965 27.2654 7.11109L27.0718 6.96624C27.07 6.95427 27.061 6.8986 27.0964 6.84532ZM24.3612 7.69172C24.3612 7.69172 24.3612 7.30504 24.3612 7.25655C24.3654 7.22123 24.3726 7.17993 24.3852 7.13564C24.4056 7.0656 24.4326 7.00934 24.4578 6.96624C24.4895 6.93272 24.5453 6.88244 24.6274 6.84532C24.7287 6.79923 24.8199 6.79564 24.8696 6.79684C24.8972 6.79445 24.9302 6.79385 24.9662 6.79684C25.0141 6.80103 25.0549 6.81061 25.0873 6.82078C25.1167 6.8543 25.1262 6.90099 25.1113 6.9417C25.0933 6.99317 25.0453 7.01173 25.0387 7.01412C24.974 7.01412 24.9098 7.01412 24.8451 7.01412C24.8151 7.03268 24.7635 7.06979 24.724 7.13504C24.661 7.23919 24.6712 7.34334 24.6754 7.37687C24.6784 7.41996 24.679 7.46845 24.6754 7.52172C24.6712 7.58577 24.6622 7.64264 24.6514 7.69112H24.3612V7.69172ZM24.5303 8.44054C24.5363 8.36512 24.5477 8.30586 24.5543 8.27115C24.5687 8.25139 24.5921 8.22386 24.6268 8.19872C24.664 8.17178 24.6994 8.15801 24.724 8.15023C24.7479 8.22266 24.7725 8.29509 24.7965 8.36752C24.8265 8.43396 24.8654 8.5429 24.869 8.68177C24.8714 8.76917 24.8588 8.84339 24.8451 8.89906L24.9416 9.04391L24.8451 9.18877L24.6028 9.0918C24.5351 8.72667 24.5177 8.59737 24.5303 8.44054ZM38.1112 29.926C38.0015 29.7632 38.1916 29.51 38.1112 29.4424C38.0525 29.3933 37.9098 29.4945 37.869 29.4424C37.8432 29.4089 37.8954 29.3574 37.869 29.2975C37.8414 29.2341 37.7671 29.2514 37.7239 29.2011C37.649 29.1132 37.7959 28.9719 37.7725 28.766C37.7563 28.6205 37.6568 28.4547 37.5303 28.4278C37.3822 28.3961 37.2719 28.5708 37.1915 28.5247C37.1232 28.4852 37.1915 28.3518 37.1429 28.1866C37.0752 27.9543 36.8282 27.834 36.6585 27.7514C36.4457 27.6478 36.261 27.6269 36.0776 27.6065C35.9163 27.5886 35.7226 27.5664 35.4966 27.6065C35.0655 27.6825 34.4492 27.9938 34.3832 28.4284C34.3617 28.5696 34.3952 28.7432 34.2861 28.8151C34.1956 28.8743 34.1003 28.8031 34.0439 28.8635C33.9624 28.9509 34.1314 29.1323 34.0439 29.3472C34.0283 29.3861 34.0253 29.3723 33.9468 29.4921C33.8394 29.6555 33.7849 29.7387 33.7531 29.8303C33.6686 30.0739 33.8137 30.1798 33.7046 30.3618C33.6506 30.4516 33.5553 30.527 33.5109 30.5067C33.4833 30.4941 33.4977 30.4546 33.4623 30.4103C33.4102 30.3444 33.2963 30.3271 33.2201 30.3618C33.1656 30.3869 33.1704 30.4199 33.123 30.4582C32.9803 30.5755 32.7225 30.4396 32.6871 30.5067C32.6667 30.5456 32.7519 30.5946 32.7357 30.6515C32.7123 30.7329 32.5031 30.7557 32.3484 30.7485C32.0618 30.7353 31.9233 30.6186 31.816 30.7C31.7608 30.7419 31.7878 30.7802 31.7195 30.8449C31.6085 30.9496 31.4065 30.9729 31.3321 30.8933C31.2842 30.8425 31.3256 30.788 31.2836 30.7485C31.1955 30.6659 30.9808 30.8754 30.7992 30.797C30.6858 30.7479 30.6211 30.6018 30.6541 30.5551C30.702 30.4869 30.9484 30.6491 31.0414 30.5551C31.0959 30.5001 31.0701 30.3827 31.0414 30.3133C30.9772 30.1583 30.7872 30.1086 30.7992 30.0715C30.8069 30.0463 30.8987 30.0535 31.0414 30.0715C31.3795 30.1146 31.4946 30.1565 31.6709 30.12C31.8058 30.0918 31.849 30.0439 31.8645 30.0236C31.9359 29.9302 31.9287 29.7722 31.8645 29.7333C31.8364 29.7165 31.816 29.7333 31.7674 29.7333C31.6715 29.7333 31.6103 29.665 31.4766 29.5399C31.2698 29.3466 31.2242 29.331 31.2344 29.2981C31.256 29.2293 31.4874 29.2155 31.6703 29.2496C31.8316 29.2802 31.9107 29.3394 31.9611 29.2981C32.0258 29.2442 31.9695 29.0802 31.9611 29.0563C31.8747 28.8055 31.6451 28.8121 31.5738 28.6211C31.4245 28.2231 31.7356 27.9513 31.6223 27.4126C31.572 27.172 31.464 27.0079 31.3801 26.881C31.301 26.7607 31.0144 26.3256 30.5084 26.1562C30.4598 26.14 30.4124 26.1274 30.3663 26.1173C30.3921 26.1951 30.4178 26.2723 30.4436 26.3501C30.4436 26.5189 30.4394 28.9025 30.4358 31.4542V31.4973C30.4358 31.4973 30.4592 31.4973 30.4406 31.5141C30.5246 31.5057 30.6079 31.4907 30.7992 31.4734C31.1283 31.4434 31.1703 31.4614 31.5738 31.4249C31.798 31.4045 31.8915 31.3896 31.9611 31.3764C32.1889 31.3339 32.3082 31.3111 32.4455 31.2315C32.587 31.1489 32.6464 31.0633 32.6877 31.0867C32.7573 31.1256 32.6308 31.389 32.7363 31.4734C32.8004 31.5242 32.9108 31.4776 32.9299 31.5218C32.9431 31.5518 32.9012 31.5955 32.8814 31.6182C32.7914 31.7242 32.789 31.8822 32.7848 32.1982C32.7813 32.4383 32.7795 32.558 32.8334 32.6334C32.9018 32.7292 32.9545 32.6933 33.1242 32.8268C33.1805 32.871 33.3196 32.9824 33.415 33.165C33.4737 33.2781 33.4509 33.2936 33.5121 33.4068C33.5948 33.56 33.704 33.6564 33.7543 33.6971C33.8418 33.7671 34.0757 33.9545 34.2867 33.8904C34.4018 33.8551 34.394 33.7803 34.5775 33.6971C34.6686 33.6552 34.7963 33.5971 34.8683 33.6486C34.9624 33.7162 34.8665 33.9078 34.9654 33.9868C35.0152 34.0269 35.0763 34.0078 35.2076 33.9868C35.5146 33.9371 35.4888 33.9904 35.7886 33.9383C36.041 33.8946 36.1675 33.8731 36.2244 33.7935C36.3246 33.654 36.219 33.4816 36.3216 33.4068C36.3809 33.3631 36.4397 33.405 36.6124 33.4068C36.6124 33.4068 36.7694 33.4086 36.9511 33.3583C37.128 33.3098 37.3132 33.1159 37.6771 32.7298C37.7185 32.6861 37.7803 32.619 37.7743 32.5364C37.7689 32.461 37.7119 32.4419 37.6771 32.3431C37.6699 32.3216 37.6256 32.1941 37.6771 32.1013C37.7539 31.9636 37.9787 32.0175 38.0159 31.9079C38.0441 31.8247 37.9296 31.7523 37.9673 31.6661C37.9943 31.605 38.0609 31.6206 38.1124 31.5691C38.2407 31.4416 38.086 31.0903 38.0621 30.9765C38.0159 30.9556 37.9493 30.9113 37.9188 30.8443C37.8732 30.7455 37.9176 30.6252 37.9673 30.5539C38.0513 30.4348 38.1406 30.4719 38.2095 30.3606C38.2719 30.2594 38.2677 30.1158 38.2095 30.0224C38.1712 29.9631 38.1454 29.9769 38.1112 29.926ZM37.3606 28.742C37.4175 28.7115 37.4997 28.7199 37.5303 28.766C37.5692 28.8258 37.5183 28.9444 37.4331 28.9593C37.3726 28.9701 37.297 28.927 37.288 28.8623C37.2802 28.8079 37.3234 28.7618 37.3606 28.742ZM35.7388 28.4278C35.7556 28.2422 35.8995 28.0495 36.1021 28.0172C36.3 27.9854 36.4505 28.1231 36.4894 28.162C36.5266 28.1991 36.6381 28.323 36.6345 28.5002C36.6303 28.7169 36.4547 28.942 36.2232 28.9593C35.9445 28.9803 35.7148 28.6918 35.7388 28.4278ZM33.3178 32.4395C33.2591 32.4712 33.1967 32.4634 33.1967 32.4634C33.1644 32.4592 33.1392 32.4479 33.1242 32.4395C33.1122 32.3766 33.1026 32.3036 33.1002 32.2222C33.096 32.1001 33.108 31.9929 33.1242 31.9079C33.1416 31.8984 33.1865 31.8768 33.2453 31.884C33.2777 31.8882 33.3023 31.8995 33.3178 31.9079C33.4018 32.1797 33.3934 32.3988 33.3178 32.4395ZM34.1656 33.5756C34.1104 33.578 34.0679 33.5618 34.0445 33.5516C34.0445 33.5032 34.0445 33.4547 34.0445 33.4068C34.0145 33.4176 33.9731 33.4283 33.9234 33.4307C33.8496 33.4349 33.7903 33.4193 33.7537 33.4068C33.7381 33.3391 33.7303 33.3056 33.7297 33.2859C33.7291 33.2595 33.7315 33.217 33.7537 33.165C33.8101 33.2051 33.8664 33.2458 33.9234 33.2859C33.951 33.2835 33.9839 33.2829 34.0205 33.2859C34.0685 33.2901 34.1092 33.2996 34.1416 33.3098C34.204 33.329 34.2441 33.3643 34.2627 33.3822C34.3089 33.4283 34.3281 33.4786 34.3353 33.5032C34.3173 33.5193 34.2567 33.5714 34.1656 33.5756ZM36.0536 33.5271C36.0452 33.5618 36.0128 33.5822 35.981 33.5995C35.9211 33.6318 35.8066 33.6851 35.6177 33.7204C35.529 33.7282 35.4402 33.7366 35.3515 33.7444L35.4001 33.5995C35.4103 33.5792 35.445 33.5169 35.5212 33.4786C35.5973 33.4403 35.6681 33.4505 35.6908 33.4547L35.9816 33.3583C36.035 33.4481 36.0614 33.4936 36.0536 33.5271ZM37.3606 32.7537C37.2772 32.8483 37.2101 32.8291 37.1429 32.9231C37.1298 32.9417 37.1106 32.9728 37.0704 32.9956C37.0428 33.0117 37.0158 33.0171 36.9979 33.0195C36.9739 32.9956 36.9493 32.971 36.9253 32.9471C36.9205 32.9327 36.9103 32.8944 36.9253 32.8507C36.9487 32.7825 37.0128 32.7573 37.0224 32.7537C37.0788 32.7615 37.1352 32.7699 37.1921 32.7777C37.1813 32.7543 37.1657 32.7118 37.1681 32.6568C37.1723 32.5658 37.2245 32.5053 37.2407 32.4874C37.2527 32.485 37.3084 32.476 37.3618 32.5113C37.4247 32.5532 37.4331 32.6226 37.4343 32.6322C37.4103 32.6915 37.3816 32.7298 37.3606 32.7537ZM37.3366 32.1976C37.2389 32.2383 37.1861 32.1821 37.0944 32.1976C36.9715 32.2186 36.9373 32.3425 36.7556 32.6328C36.7107 32.7046 36.5788 32.9106 36.3683 33.1165C36.3216 33.162 36.1813 33.2954 36.1261 33.2613C36.0901 33.2392 36.1255 33.1685 36.0776 33.1165C36.023 33.0578 35.8947 33.0584 35.8353 33.1165C35.797 33.1536 35.8192 33.1841 35.7868 33.2128C35.7082 33.2829 35.5356 33.1422 35.448 33.2128C35.4103 33.2434 35.4354 33.2751 35.3995 33.3098C35.3023 33.4032 35.0535 33.2224 34.9636 33.3098C34.921 33.3511 34.9618 33.4056 34.915 33.4547C34.8323 33.5421 34.5967 33.4882 34.5763 33.4062C34.5637 33.3559 34.638 33.32 34.6249 33.2613C34.6111 33.2021 34.5205 33.1769 34.4798 33.165C34.108 33.0518 33.9366 32.7902 33.8017 32.8746C33.7477 32.9088 33.7543 32.9638 33.7046 32.9716C33.6248 32.9836 33.5097 32.8537 33.5109 32.7298C33.5115 32.6783 33.5319 32.6597 33.5595 32.5849C33.5786 32.5334 33.5912 32.4802 33.608 32.2946C33.6338 32.0025 33.647 31.857 33.608 31.811C33.5355 31.726 33.4396 31.7804 33.3172 31.6661C33.2639 31.6158 33.1931 31.5218 33.2201 31.4728C33.2633 31.3955 33.5397 31.4811 33.5589 31.4243C33.5691 31.3955 33.4989 31.3698 33.4617 31.2794C33.4414 31.2291 33.4192 31.128 33.4617 31.0861C33.5475 31.0017 33.8395 31.2064 33.8976 31.1346C33.9246 31.101 33.8682 31.0484 33.8976 30.9897C33.9372 30.9107 34.1009 30.879 34.1884 30.9412C34.2525 30.9873 34.225 31.0484 34.2855 31.0861C34.3838 31.1483 34.5325 31.034 34.5763 31.0861C34.5973 31.1118 34.5637 31.1417 34.5763 31.1824C34.5979 31.2543 34.7304 31.2585 35.2058 31.2794C35.3137 31.2842 35.475 31.2908 35.4966 31.2309C35.5032 31.213 35.487 31.1962 35.4966 31.1824C35.517 31.1537 35.6099 31.1902 35.6663 31.2064C35.7412 31.2279 35.8521 31.2423 36.005 31.2064C36.4205 31.0478 36.7167 30.9053 36.8036 30.8437C36.8833 30.7874 36.9247 30.7227 36.9247 30.7227C36.9541 30.6772 36.9451 30.6695 36.9733 30.6258C37.0206 30.5527 37.0572 30.5563 37.1184 30.4809C37.1418 30.4528 37.1579 30.4217 37.1909 30.36C37.2347 30.278 37.2569 30.2373 37.2635 30.1906C37.2719 30.1325 37.2527 30.126 37.2395 30.0212C37.2359 29.9943 37.2287 29.8979 37.2395 29.7794C37.2425 29.7477 37.2515 29.6728 37.288 29.586C37.3084 29.5375 37.3318 29.4843 37.3852 29.4412C37.4109 29.4202 37.4583 29.3819 37.4823 29.3927C37.5842 29.4412 37.1531 30.3845 37.3852 30.5527C37.4409 30.5934 37.5129 30.5725 37.5788 30.6497C37.631 30.7102 37.6682 30.8179 37.6274 30.8915C37.574 30.9873 37.4337 30.9436 37.3852 31.0364C37.339 31.1256 37.4325 31.2351 37.3852 31.2782C37.3504 31.3093 37.2958 31.2573 37.2401 31.2782C37.1058 31.3285 37.059 31.7673 37.2401 31.9067C37.3372 31.9816 37.4589 31.9385 37.4823 32.0037C37.5027 32.063 37.4265 32.1605 37.3366 32.1976ZM37.869 31.4728C37.8366 31.4728 37.8042 31.4728 37.7719 31.4728C37.7833 31.4943 37.827 31.5835 37.7959 31.69C37.7779 31.7505 37.7437 31.7906 37.7233 31.811C37.7059 31.8205 37.661 31.8421 37.6022 31.8349C37.5698 31.8307 37.5452 31.8193 37.5297 31.811C37.5099 31.7433 37.5057 31.6841 37.5057 31.6416C37.5057 31.5709 37.5183 31.5129 37.5297 31.4722C37.562 31.4722 37.5944 31.4722 37.6268 31.4722C37.607 31.4045 37.6028 31.3453 37.6028 31.3028C37.6028 31.2321 37.6154 31.1741 37.6268 31.1334C37.6508 31.0891 37.6975 31.0609 37.7479 31.0609C37.7983 31.0609 37.845 31.0891 37.869 31.1334C37.8888 31.201 37.893 31.2603 37.893 31.3028C37.8936 31.374 37.881 31.4321 37.869 31.4728ZM37.9176 30.3612C37.9002 30.3708 37.8552 30.3923 37.7965 30.3851C37.7641 30.381 37.7395 30.3696 37.7239 30.3612C37.7077 30.2936 37.6939 30.2026 37.6999 30.0954C37.7035 30.0308 37.7125 29.9739 37.7239 29.926C37.6915 29.926 37.6592 29.926 37.6268 29.926C37.6178 29.9105 37.6064 29.8859 37.6028 29.8536C37.5956 29.7949 37.6172 29.75 37.6268 29.7327C37.6346 29.7219 37.6753 29.6698 37.7479 29.6603C37.8486 29.6471 37.9146 29.7291 37.9176 29.7327C37.9355 29.85 37.9415 29.956 37.9415 30.0469C37.9415 30.1655 37.9314 30.2714 37.9176 30.3612ZM29.106 33.068C29.0329 32.8902 28.9376 32.8639 28.2829 32.1498C28.2301 32.0923 28.1815 32.0384 28.1354 31.9875C28.1456 32.0031 28.1546 32.0175 28.1617 32.0294C28.0856 35.7143 28.0197 36.7499 27.9681 36.7666C27.9579 36.7696 27.9501 36.7708 27.9435 36.7708C27.9381 36.8229 27.9063 36.8474 27.8955 36.936C27.8836 37.0366 27.9021 37.1892 27.9921 37.2742C28.1456 37.4197 28.4387 37.3071 28.5245 37.2742C28.6018 37.2443 28.8848 37.1359 28.9603 36.8875C29.0389 36.6301 28.8284 36.4386 28.9118 36.356C28.9526 36.3159 29.0473 36.3159 29.154 36.3488C29.16 36.1926 29.2697 33.4607 29.2745 33.2948C29.1636 33.2128 29.1168 33.0955 29.106 33.068ZM39.6604 20.0656C39.471 19.9956 39.4506 19.9692 39.3217 19.9207C39.1904 19.8711 39.0807 19.8489 38.9955 19.8351C38.9997 19.8393 39.0039 19.8435 39.0069 19.8483C39.0261 19.8752 39.0249 19.9028 39.0555 19.9453C39.1107 20.0225 39.2018 20.053 39.2731 20.0662C39.2905 20.2488 39.2971 20.4188 39.2971 20.5738C39.2971 20.757 39.2875 20.927 39.2731 21.0814C39.2641 21.1395 39.2623 21.1712 39.2492 21.2023C39.2384 21.2274 39.2168 21.2598 39.152 21.2993C39.1484 21.3017 39.14 21.3065 39.1191 21.3178C39.1119 21.3214 39.1041 21.325 39.0963 21.3286C39.1077 21.3268 39.1185 21.325 39.128 21.3238C39.3505 21.2885 39.4134 21.3376 39.5154 21.2753C39.6071 21.2191 39.6221 21.1389 39.709 20.8886C39.8817 20.3906 39.9782 20.2601 39.9027 20.1638C39.8733 20.1249 39.8523 20.1362 39.6604 20.0656ZM38.1112 30.9897C38.1166 30.9825 38.077 30.9352 38.0627 30.9412C38.0567 30.9436 38.0567 30.9568 38.0609 30.9771C38.0878 30.9891 38.1082 30.9933 38.1112 30.9897ZM38.6886 21.5309C38.6826 21.5357 38.6766 21.5387 38.6676 21.5393C38.6376 21.5417 38.6064 21.4968 38.5711 21.4423C38.5531 21.4148 38.5339 21.3861 38.5225 21.3454C38.5039 21.2783 38.5183 21.2203 38.5225 21.2005C38.5507 21.0748 38.5159 20.9425 38.5225 20.8138C38.5309 20.6492 38.5357 20.3667 38.5225 19.8471C38.6406 19.8142 38.7311 19.798 38.8007 19.7932C38.7947 19.7885 38.7905 19.7825 38.7887 19.7747C38.7845 19.7537 38.8019 19.7322 38.8385 19.7064C38.8301 19.7052 38.8217 19.7046 38.8127 19.7023C38.7635 19.6879 38.7623 19.6651 38.7156 19.6538C38.6352 19.6346 38.5549 19.6813 38.4979 19.7262C38.5057 19.2509 38.5141 18.7757 38.5219 18.3004C38.5387 18.2513 38.5897 18.1274 38.7156 18.0586C38.7761 18.0256 38.8445 18.019 38.9254 18.0125C38.9092 18.0071 38.896 17.9987 38.8846 17.9855C38.8415 17.9358 38.8529 17.8538 38.8846 17.7437C38.953 17.5085 39.0465 17.3828 39.1754 17.1637C39.3984 16.7842 39.45 16.5968 39.4662 16.5352C39.4944 16.425 39.5034 16.3454 39.5148 16.2448C39.5315 16.0964 39.5441 15.9773 39.5363 15.8851C39.5142 15.915 39.4752 15.9126 39.4422 15.9306C39.3876 15.9605 39.3379 16.0539 39.3697 16.3412C39.3697 16.3412 39.2731 16.5819 39.2725 16.583C39.1119 16.9841 39.0585 17.0601 38.9578 17.3325C38.9578 17.3325 38.7599 17.8664 38.5465 18.0819C38.5465 18.0819 38.5453 18.0825 38.5447 18.0825C38.5303 18.0819 38.5243 17.8838 38.5219 17.8155C38.5141 17.5647 38.5039 16.6812 38.4979 16.0994C38.5225 15.9671 38.5747 15.9096 38.619 15.8821C38.6736 15.848 38.7323 15.848 38.7839 15.8109C38.7216 15.8336 38.6292 15.8133 38.595 15.7612V15.7606C38.5897 15.7714 38.5819 15.7803 38.5711 15.7851C38.5543 15.7929 38.5351 15.7893 38.5225 15.7851C38.5411 15.3518 38.5363 14.8915 38.4985 14.4078C38.4919 14.3222 38.4841 14.2372 38.4751 14.1534C38.45 14.1558 38.4248 14.1594 38.4014 14.166C38.2401 14.2085 38.1484 14.3396 37.9655 14.6011C37.8336 14.7897 37.7941 14.8927 37.6268 15.0848C37.5446 15.1782 37.4343 15.3033 37.3846 15.2781C37.3402 15.2554 37.3606 15.1207 37.3846 15.0363C37.4289 14.8813 37.5045 14.837 37.6753 14.6011C37.7875 14.4461 37.8438 14.3665 37.869 14.2629C37.896 14.1504 37.866 14.1348 37.869 13.9247C37.8714 13.7476 37.8936 13.7302 37.9176 13.4411C37.9403 13.1651 37.9613 13.1107 37.9176 13.0544C37.8756 13.0005 37.8408 13.0191 37.6514 12.9335C37.4751 12.8539 37.4691 12.821 37.3852 12.8126C37.3804 12.812 37.3012 12.8054 37.2143 12.8365C37.2149 12.8365 37.2155 12.8365 37.2155 12.8371C37.2455 12.8521 37.2413 12.9048 37.2401 13.0041C37.2395 13.0394 37.288 13.3986 37.288 13.6835C37.288 13.732 37.3366 13.8769 37.3366 13.8769C37.3366 13.8769 37.3852 14.9405 37.3852 14.9884C37.3852 15.0363 37.2401 15.1333 37.2401 15.1333L37.1915 15.52L37.4337 15.4715V15.9551V17.7437L37.3852 19.0971C37.3852 19.0971 37.3852 21.1754 37.3852 21.2238C37.3852 22.4473 37.363 23.6559 37.3366 24.8489C37.3216 24.8656 37.2832 24.9045 37.2221 24.9195C37.4325 24.9686 37.6232 24.9285 37.7725 24.8973C37.9266 24.865 38.0297 24.8417 38.1112 24.7525C38.2437 24.6076 38.2215 24.3951 38.2083 24.2688C38.1754 23.9558 38.0129 23.7092 37.8696 23.4955C37.7131 23.2626 37.5944 23.1531 37.6274 23.1088C37.6544 23.0717 37.7551 23.1214 38.0633 23.2052C38.2053 23.2441 38.3049 23.271 38.3906 23.286C38.3864 23.283 38.3822 23.2812 38.378 23.2776C38.2629 23.1806 38.3684 22.9998 38.378 22.6006C38.3846 22.3264 38.414 22.0529 38.4266 21.7787C38.4314 21.6698 38.4338 21.6081 38.4751 21.5854C38.5699 21.5333 38.7893 21.7326 38.9674 21.9427C38.9566 21.9284 38.9464 21.9146 38.935 21.8996C38.7767 21.6919 38.676 21.6159 38.6886 21.5309ZM30.4616 15.6666C30.5599 15.7163 30.5869 15.7738 30.7038 15.8115C30.768 15.8324 30.8705 15.8653 30.946 15.8115C31.0318 15.7498 31.0468 15.6002 30.9946 15.5212C30.9676 15.4805 30.9382 15.4823 30.8981 15.4242C30.8837 15.4032 30.8273 15.3242 30.8495 15.2793C30.8855 15.2069 31.1337 15.2021 31.2854 15.3278C31.325 15.3607 31.3423 15.3895 31.4305 15.5696C31.6037 15.9222 31.6103 15.9605 31.6727 16.0048C31.7938 16.0898 31.9898 16.1012 32.1086 16.0048C32.2141 15.9192 32.2513 15.754 32.2057 15.7145C32.1571 15.6732 32.051 15.7995 31.9149 15.763C31.837 15.742 31.7938 15.6792 31.7213 15.5696C31.5906 15.3733 31.6313 15.3188 31.5276 15.183C31.4473 15.0776 31.3501 15.0142 31.2368 14.9411C31.0779 14.8382 30.9892 14.8184 30.9946 14.7963C31.0042 14.7562 31.2698 14.8633 31.6727 14.8448C31.7572 14.8406 31.8765 14.8298 31.9149 14.8933C31.9533 14.9561 31.8765 15.0351 31.9149 15.0866C31.9635 15.1518 32.1625 15.1273 32.2057 15.0381C32.2387 14.9699 32.1649 14.8944 32.2057 14.8448C32.2429 14.7987 32.3262 14.837 32.3508 14.7963C32.3796 14.749 32.2788 14.6754 32.3022 14.6029C32.3208 14.5461 32.3933 14.558 32.4473 14.5066C32.5648 14.3946 32.5246 14.0516 32.3502 13.9265C32.2782 13.8751 32.2087 13.8781 32.108 13.7817C32.0486 13.7242 32.0534 13.7045 32.0108 13.6847C31.9011 13.6344 31.7944 13.7386 31.7201 13.6847C31.6823 13.6572 31.7015 13.6243 31.6715 13.5883C31.5618 13.4549 31.1301 13.7009 31.042 13.5883C30.9934 13.5261 31.0989 13.4154 31.042 13.3465C30.9898 13.2843 30.8789 13.3477 30.7032 13.298C30.6109 13.2723 30.5593 13.2316 30.5096 13.2017C30.2092 13.0185 29.7685 13.0801 29.5899 13.1047C29.3453 13.1388 29.4214 13.1717 29.0575 13.2495C28.6744 13.3316 28.2541 13.4213 27.9921 13.2495C27.9687 13.2346 27.9009 13.1873 27.7984 13.1532C27.7157 13.1256 27.5466 13.0694 27.4597 13.1532C27.3955 13.2148 27.4081 13.3208 27.4111 13.3465C27.4219 13.4387 27.4765 13.5033 27.5082 13.5399C27.5874 13.6326 27.6443 13.6314 27.6533 13.6847C27.6659 13.7577 27.5748 13.8386 27.5082 13.8781C27.3554 13.969 27.248 13.8918 27.1695 13.9744C27.0934 14.0546 27.1035 14.2204 27.1695 14.2647C27.2313 14.3054 27.3212 14.2264 27.3632 14.2647C27.4027 14.3007 27.3835 14.4258 27.3146 14.5066C27.1485 14.7011 26.8044 14.5072 26.6365 14.6999C26.5658 14.7813 26.5484 14.9058 26.5879 14.9417C26.6485 14.9962 26.8308 14.828 26.9267 14.8933C26.9914 14.9369 26.9776 15.0603 26.9752 15.0866C26.9447 15.3697 26.5897 15.5415 26.3457 15.7151C25.8217 16.088 26.0945 16.2682 25.3775 17.0685C25.3775 17.0685 24.6754 17.852 24.7479 18.1322C24.7509 18.1441 24.7713 18.2142 24.7479 18.2285C24.721 18.2459 24.6448 18.1831 24.6028 18.1322C24.5009 18.0095 24.5129 17.8604 24.5057 17.7455C24.5009 17.6671 24.4895 17.6425 24.2635 17.117C23.9697 16.4328 23.9853 16.4663 23.9727 16.44C23.7755 16.0228 23.634 15.5762 23.3918 15.183C23.3696 15.1471 23.3162 15.0644 23.3432 14.9896C23.3672 14.9244 23.4373 14.9064 23.4403 14.8448C23.4415 14.8184 23.4301 14.7957 23.3918 14.7478C23.3222 14.661 23.2659 14.6179 23.1981 14.5545C23.0956 14.4593 23.0446 14.4102 23.053 14.3611C23.0614 14.3102 23.1226 14.2785 23.1501 14.2647C23.2455 14.2157 23.3066 14.2564 23.3438 14.2163C23.3882 14.1684 23.3684 14.0391 23.2952 13.9744C23.1981 13.8888 23.0494 13.9565 23.0045 13.8781C22.9883 13.8487 22.9907 13.8092 23.0045 13.7817C23.0632 13.6614 23.3186 13.7787 23.5369 13.6368C23.5476 13.6296 23.6999 13.5273 23.7305 13.3465C23.7365 13.3124 23.7599 13.1729 23.6819 13.1047C23.5728 13.0095 23.3468 13.1262 23.2946 13.1532C23.1537 13.2256 23.0722 13.3238 23.0524 13.3465C22.6771 13.7751 21.3059 13.6075 21.261 13.3465C21.2538 13.3064 21.2814 13.2801 21.261 13.2495C21.1878 13.1394 20.7436 13.3537 20.68 13.2495C20.6614 13.2196 20.6956 13.1951 20.68 13.1532C20.6321 13.0209 20.2034 12.9748 20.0505 13.1532C19.9839 13.231 20.0223 13.2891 19.9534 13.3465C19.8263 13.4525 19.6362 13.3022 19.5175 13.395C19.4102 13.4788 19.5151 13.644 19.4204 13.7332C19.2501 13.8948 18.7237 13.5339 18.5972 13.6847C18.5552 13.7344 18.596 13.7943 18.5486 13.8296C18.4545 13.8996 18.2686 13.6829 18.0642 13.7332C17.9809 13.7536 17.9305 13.8092 17.8705 13.8781C17.6337 14.1492 17.488 14.6299 17.6769 14.9896C17.7111 15.0549 17.7758 15.1776 17.8705 15.183C17.9887 15.1895 18.0246 15.0064 18.2578 14.8448C18.322 14.7999 18.4605 14.7065 18.6452 14.6999C18.84 14.6927 19.0367 14.7843 19.0325 14.8448C19.0295 14.8933 18.8994 14.8837 18.6937 14.9896C18.5564 15.0603 18.4107 15.1357 18.355 15.2799C18.298 15.4272 18.3832 15.5194 18.3064 15.6181C18.2489 15.6924 18.1505 15.7043 18.0642 15.7145C17.7698 15.7504 17.6037 15.596 17.5318 15.666C17.4772 15.7187 17.5108 15.8642 17.5804 15.9563C17.7368 16.1634 18.099 16.1293 18.3064 16.0527C18.3754 16.0276 18.5025 15.9809 18.5972 15.8594C18.7021 15.7247 18.6488 15.6493 18.7423 15.4727C18.7501 15.4583 18.9126 15.1608 19.1782 15.1345C19.2507 15.1273 19.3574 15.1375 19.3718 15.183C19.3862 15.2279 19.3011 15.2817 19.1296 15.4248C18.7801 15.7163 18.7836 15.7857 18.7908 15.8115C18.8082 15.8761 18.9066 15.9007 18.9359 15.9078C19.1122 15.9521 19.2879 15.824 19.3718 15.763C19.5001 15.6696 19.5013 15.6217 19.5655 15.6181C19.7195 15.6098 19.8622 15.8779 19.9042 15.9563C19.9839 16.106 19.9666 16.1539 20.0493 16.2466C20.1152 16.3203 20.2513 16.4304 20.3401 16.3915C20.4546 16.3418 20.3886 16.0892 20.4852 16.0533C20.5721 16.021 20.7352 16.1844 20.8239 16.3436C20.9444 16.5591 20.8905 16.6986 21.0176 16.7788C21.1147 16.8404 21.2106 16.7985 21.2598 16.8758C21.2772 16.9033 21.2844 16.9392 21.2598 17.0691C21.237 17.1894 21.2208 17.275 21.1626 17.4073C21.0673 17.6276 20.9954 17.6605 21.0176 17.7455C21.0421 17.8425 21.1471 17.8484 21.1626 17.9388C21.168 17.9688 21.1614 17.9981 21.1489 18.0262C21.174 17.9969 21.2046 17.9742 21.2352 17.9628C21.3521 17.9191 21.4372 18.043 21.6465 18.1322C21.6902 18.1507 21.7346 18.1591 21.8198 18.1819C21.9744 18.2232 22.0146 18.2256 22.1063 18.2531C22.2286 18.2902 22.3192 18.3345 22.3486 18.3495C22.511 18.4327 22.6249 18.5344 22.6873 18.5913C22.8498 18.7385 22.8732 18.8104 22.9535 18.8086C23.0003 18.8074 22.9985 18.7834 23.1711 18.6877C23.2413 18.6488 23.2904 18.626 23.3648 18.5907C23.4913 18.5314 23.5237 18.5236 23.5428 18.5195C23.6172 18.5045 23.6574 18.5236 23.7281 18.5177C23.824 18.5099 23.9122 18.5045 24.0189 18.4692C24.3301 18.3668 24.3954 18.1699 24.5759 18.2034C24.6298 18.2136 24.7012 18.2441 24.721 18.2998C24.7677 18.4321 24.4991 18.6236 24.4787 18.638C24.3732 18.7122 24.2635 18.7535 24.14 18.7828C23.6921 18.89 23.4829 18.7397 23.2443 18.9037C23.2047 18.9307 23.1136 18.9953 23.0992 19.0971C23.0902 19.1587 23.1136 19.212 23.1477 19.2904C23.2071 19.4263 23.2461 19.4275 23.2689 19.5077C23.2952 19.5999 23.2814 19.731 23.1963 19.822C23.0956 19.9297 22.9511 19.9213 22.9055 19.9189C22.8642 19.9165 22.752 19.91 22.6633 19.822C22.5494 19.7094 22.5644 19.552 22.5662 19.5323C22.5818 19.3916 22.6729 19.3772 22.7113 19.2419C22.758 19.0797 22.6867 18.8942 22.5902 18.7828C22.4667 18.6398 22.2904 18.6057 22.0818 18.5655C21.9948 18.5488 21.957 18.5482 21.7172 18.5099C21.6591 18.5003 21.5901 18.4883 21.5008 18.4692C21.3335 18.4339 21.1752 18.3973 21.1135 18.2758C21.1069 18.2627 21.0835 18.2154 21.0895 18.1549C21.0919 18.1328 21.0973 18.1112 21.1063 18.0909C21.0757 18.1286 21.0397 18.1597 21.017 18.1789C20.6171 18.5183 20.4174 18.6883 20.2909 18.7589C19.9066 18.9738 19.6404 19.1815 19.129 19.5807C18.8496 19.7986 18.5067 19.9201 18.2093 20.1123C18.1817 20.1302 18.0996 20.1841 18.0156 20.1608C17.9641 20.1464 17.9347 20.1093 17.8705 20.0159C17.738 19.825 17.6721 19.728 17.6769 19.6777C17.6847 19.5933 17.7476 19.5406 17.8705 19.4359C18.0564 19.2785 18.1349 19.2958 18.2093 19.1941C18.307 19.0618 18.2788 18.8882 18.2578 18.7589C18.2063 18.4404 18.036 18.2202 17.9671 18.1304C17.497 17.5192 17.262 17.214 17.0953 16.9703C16.8861 16.6639 16.6415 16.3789 16.4658 16.0521C16.4082 15.945 16.2787 15.6936 16.175 15.7139C16.1259 15.7235 16.0893 15.7935 16.0299 15.9072C15.9592 16.0425 15.961 16.0946 15.9328 16.1006C15.8591 16.1156 15.7835 15.7588 15.5941 15.4236C15.2745 14.8573 14.9651 14.9435 14.7223 14.4084C14.6072 14.154 14.6102 13.9876 14.4315 13.8769C14.2631 13.7715 14.0017 13.7601 13.8991 13.8769C13.8104 13.978 13.8758 14.1343 13.802 14.1666C13.7253 14.2001 13.5934 14.0576 13.5598 14.0217C13.4129 13.8631 13.3841 13.726 13.3176 13.5865C13.1491 13.2334 12.9597 13.3286 12.6881 12.9096C12.558 12.709 12.5538 12.6133 12.3973 12.4744C12.3175 12.4038 12.194 12.2942 12.01 12.281C11.7893 12.2655 11.5717 12.3954 11.4776 12.5714C11.444 12.633 11.444 12.6671 11.429 12.958C11.399 13.5399 11.3894 13.5836 11.429 13.6829C11.4692 13.7853 11.4824 13.747 11.6712 14.0696C11.8247 14.3324 11.8355 14.3904 11.8163 14.4078C11.7899 14.4323 11.7048 14.3803 11.6712 14.3593C11.4986 14.2534 11.4386 14.1301 11.2839 13.9241C11.1364 13.7278 11.0603 13.629 10.9452 13.586C10.9218 13.577 10.7671 13.5219 10.6064 13.586C10.3954 13.6704 10.3211 13.9008 10.2677 14.0696C10.197 14.2905 10.2107 14.482 10.2191 14.6011C10.2287 14.7376 10.2335 14.8059 10.2677 14.8915C10.3091 14.9962 10.3678 15.0668 10.4128 15.2297C10.432 15.2997 10.4392 15.3518 10.4128 15.3745C10.387 15.3967 10.3402 15.3817 10.3163 15.3745C10.2425 15.3518 10.2047 15.3063 10.1712 15.2781C10.0639 15.1872 9.87859 15.1668 9.78386 15.2297C9.72271 15.2704 9.70412 15.3422 9.68674 15.423C9.57882 15.9384 9.63098 16.3783 9.63817 16.4382C9.65676 16.5884 9.66635 16.6633 9.68674 16.7285C9.78746 17.0529 10.0213 17.2666 10.1226 17.357C10.333 17.5444 10.4763 17.5857 10.4614 17.6473C10.4476 17.7048 10.3121 17.712 9.92895 17.7437C9.31742 17.7946 9.22928 17.8125 9.15434 17.8886C9.00266 18.043 9.03623 18.3028 9.05721 18.4686C9.0704 18.5727 9.11777 18.9373 9.39596 19.1456C9.6088 19.3042 9.78926 19.2461 10.074 19.4838C10.1622 19.5574 10.2293 19.6155 10.2191 19.6771C10.1952 19.8226 9.78686 19.734 9.44452 19.9668C9.13096 20.1811 8.95829 20.6073 9.00865 20.982C9.02724 21.1203 9.04582 21.2586 9.15374 21.3687C9.45651 21.6782 10.0663 21.3639 10.2671 21.6584C10.3175 21.732 10.3301 21.826 10.3157 21.9002C10.2659 22.1528 9.90617 22.1385 9.68614 22.4318C9.53985 22.6275 9.46251 22.9502 9.58901 23.1567C9.75868 23.4326 10.2629 23.4536 10.4122 23.447C10.4476 23.4452 10.4913 23.441 10.5573 23.447C10.7731 23.4673 10.8229 23.5631 10.9446 23.5434C11.0843 23.5206 11.1418 23.374 11.1868 23.3985C11.23 23.4218 11.1934 23.5667 11.1868 23.5918C11.1502 23.7349 11.0819 23.8169 11.0417 23.8822C10.9656 24.0049 10.959 24.1252 10.9446 24.3658C10.9188 24.8111 10.8966 25.1948 11.1382 25.381C11.3948 25.5791 11.8103 25.4468 11.8643 25.4295C12.1976 25.3229 12.3499 25.0805 12.4452 25.1392C12.519 25.1847 12.4333 25.3331 12.4938 25.6228C12.51 25.7006 12.5502 25.8832 12.6875 26.058C12.7402 26.125 12.8667 26.2861 13.0748 26.3483C13.359 26.4333 13.6401 26.2878 13.8979 26.155C14.2079 25.9945 14.2025 25.9095 14.3338 25.9131C14.654 25.9227 14.7487 26.4357 15.1084 26.4447C15.2205 26.4477 15.3057 26.3998 15.3992 26.3483C15.4831 26.3016 15.6678 26.1795 15.8351 25.8168C16.0581 25.3337 15.9994 24.968 16.1259 24.9464C16.214 24.9315 16.2476 25.1092 16.4646 25.1883C16.4868 25.1966 16.6714 25.2607 16.8519 25.1883C17.1253 25.0787 17.1223 24.7633 17.2878 24.7531C17.4335 24.7441 17.4575 24.9895 17.7237 25.0913C17.8777 25.1505 18.1026 25.1571 18.2081 25.0428C18.3298 24.9111 18.2387 24.6783 18.3046 24.6561C18.3748 24.6328 18.4467 24.9039 18.6434 24.9464C18.8004 24.9799 18.9593 24.8507 19.0792 24.7531C19.322 24.555 19.3958 24.3425 19.4665 24.3664C19.5151 24.3826 19.5205 24.4975 19.5151 24.5597C19.5091 24.6304 19.4797 24.7429 19.3214 24.8979C19.069 25.1446 18.8556 25.141 18.837 25.2846C18.8274 25.3589 18.8742 25.4427 18.9341 25.478C19.0427 25.5426 19.1542 25.4241 19.2729 25.478C19.373 25.5235 19.4216 25.6659 19.418 25.7683C19.4072 26.0628 18.9551 26.2436 18.9335 26.2519C18.3826 26.465 18.1325 26.0089 17.578 26.2034C17.3088 26.298 17.1277 26.4902 16.8519 26.7835C16.765 26.8763 16.7188 26.9397 16.7068 27.0253C16.6816 27.2013 16.8171 27.3384 16.7554 27.412C16.72 27.4539 16.6697 27.4168 16.6103 27.4605C16.5132 27.5317 16.5222 27.7209 16.5617 27.8472C16.5995 27.9669 16.6481 27.977 16.7068 28.089C16.7734 28.2159 16.8465 28.4625 16.7554 28.6205C16.6193 28.8564 16.208 28.742 16.1259 28.9587C16.0953 29.0389 16.1187 29.1425 16.1744 29.2005C16.3195 29.3508 16.6798 29.1832 16.7068 29.249C16.7212 29.2843 16.6205 29.3442 16.5132 29.4424C16.2955 29.6411 16.1121 29.9404 16.1744 30.0224C16.2488 30.12 16.6577 29.8919 16.7068 29.9739C16.7452 30.0374 16.527 30.2151 16.5617 30.2642C16.6091 30.3307 17.0264 30.0332 17.1913 30.1673C17.217 30.1882 17.244 30.2265 17.2398 30.2642C17.2302 30.3414 17.0929 30.3839 16.9976 30.4091C16.5222 30.5348 16.0779 30.5055 16.0779 30.5055C15.7014 30.4809 15.5893 30.4217 15.3998 30.5055C15.3339 30.5348 15.2739 30.5743 15.1576 30.6024C15.0563 30.6264 14.904 30.6629 14.7703 30.6024C14.6432 30.545 14.654 30.4552 14.4315 30.1673C14.3194 30.0224 14.2619 29.9494 14.1893 29.9254C14.0814 29.8901 13.9633 29.92 13.7535 29.9739C13.6114 30.0104 13.6042 30.0254 13.5598 30.0224C13.3422 30.0068 13.2031 29.6213 13.1725 29.5387C12.9009 28.8079 12.3727 28.1991 12.0106 27.5084C11.1964 25.9562 11.1874 26.2867 10.9452 25.6234C10.7455 25.0763 10.649 24.5693 10.1706 24.2215C10.0686 24.1473 9.77187 23.9312 9.49248 24.0282C9.2137 24.1252 9.11417 24.4783 9.10518 24.5119C8.97448 25.0009 9.38277 25.393 10.3642 26.7356C10.7647 27.2827 11.0735 27.7334 11.2839 28.0405C12.23 29.4208 12.0376 29.2664 12.2522 29.4909C12.507 29.7566 12.8721 30.0727 12.7846 30.3127C12.7366 30.445 12.5819 30.4665 12.5424 30.6509C12.5142 30.7844 12.5598 30.9346 12.6389 31.0376C12.754 31.1866 12.8757 31.1531 12.9297 31.2794C12.9902 31.4219 12.8637 31.5344 12.9297 31.6176C13.0094 31.7182 13.2331 31.6027 13.317 31.7146C13.3656 31.7786 13.3128 31.8451 13.3656 31.9079C13.4213 31.975 13.5214 31.9486 13.6563 31.9564C13.8206 31.966 14.1162 32.0318 14.1887 32.1982C14.2535 32.3467 14.1024 32.4868 14.1887 32.5849C14.2121 32.6119 14.2853 32.6352 14.4309 32.6813C14.5533 32.7202 14.5545 32.7136 14.576 32.7298C14.6072 32.7525 14.6618 32.81 14.6732 33.1165C14.6804 33.311 14.66 33.332 14.6732 33.4547C14.6905 33.6127 14.7367 33.6893 14.7703 33.7929C14.9016 34.2041 14.6222 34.416 14.7703 34.6632C14.8692 34.8272 15.1066 34.923 15.2547 34.8565C15.3818 34.7991 15.4166 34.6333 15.4484 34.4699C15.5485 33.9545 15.4316 33.2913 15.2062 33.0195C15.1792 32.9872 15.0886 32.8854 15.0611 32.7292C15.0467 32.6478 15.0551 32.5849 15.0611 32.5358C15.1096 32.1587 15.1336 31.9702 15.1096 31.9073C15.0179 31.6721 14.663 31.6733 14.6738 31.5691C14.6822 31.4871 14.9076 31.4069 15.1096 31.4243C15.2835 31.4386 15.4034 31.5224 15.4484 31.4728C15.4921 31.4249 15.4094 31.3153 15.4484 31.2794C15.5065 31.2261 15.72 31.4422 15.8357 31.3758C15.9064 31.3351 15.8633 31.2333 15.9328 31.1824C16.0683 31.0831 16.3855 31.3584 16.4652 31.2794C16.5072 31.2381 16.4316 31.1519 16.4652 31.0861C16.5318 30.955 16.952 31.0502 17.3849 31.1346C18.346 31.3213 18.6056 31.3034 18.8376 31.2309C18.9797 31.1866 19.2519 31.1022 19.322 30.8927C19.3928 30.6802 19.2237 30.4336 19.322 30.3612C19.352 30.339 19.3904 30.3462 19.4671 30.3612C19.6908 30.4049 19.7837 30.5426 19.8544 30.5061C19.8964 30.4845 19.9096 30.4127 19.903 30.3612C19.882 30.2032 19.6626 30.1936 19.6122 30.023C19.5906 29.9488 19.599 29.8398 19.6608 29.7812C19.7669 29.6812 19.93 29.8237 20.2417 29.7812C20.3371 29.768 20.5421 29.7405 20.6291 29.5878C20.6812 29.4968 20.692 29.3598 20.6291 29.2975C20.5823 29.252 20.5307 29.2808 20.3868 29.249C20.3359 29.2377 20.231 29.2143 20.1446 29.1527C20.0151 29.0593 19.9767 28.912 19.951 28.8145C19.9342 28.7498 19.897 28.5774 19.951 28.3793C20.0217 28.1195 20.2064 27.977 20.4354 27.7993C20.7028 27.5922 20.9294 27.4162 21.2586 27.4126C21.4918 27.4102 21.6651 27.4952 21.791 27.5574C21.9493 27.6353 22.2268 27.8076 22.4205 28.1375C22.5212 28.3093 22.7353 28.6744 22.6142 29.0078C22.4679 29.4095 21.9972 29.3167 21.6944 29.8297C21.5428 30.0858 21.4672 30.436 21.5973 30.5545C21.7142 30.6611 21.9487 30.5348 21.9846 30.603C22.038 30.7042 21.5571 31.0573 21.4522 31.1346C20.9594 31.4967 20.5589 31.6894 20.3389 31.9079C20.0547 32.1899 20.0481 32.1976 20.0481 32.1982C20.0283 32.2228 20.0001 32.2587 19.951 32.2946C19.8496 32.37 19.7489 32.382 19.7087 32.391C19.412 32.4574 19.3862 33.0387 19.1278 33.068C19.0522 33.0764 18.9857 33.0345 18.8856 32.971C18.7561 32.8896 18.6805 32.7825 18.6434 32.7292C18.5252 32.5592 18.53 32.458 18.4497 32.4389C18.3604 32.4179 18.2686 32.5215 18.256 32.5352C18.2063 32.5909 18.1787 32.6591 18.1589 32.9219C18.1403 33.1685 18.1313 33.2919 18.1589 33.4535C18.1991 33.6863 18.2525 33.666 18.256 33.7917C18.262 34.0395 18.0522 34.1191 17.7716 34.565C17.6445 34.7674 17.5636 34.899 17.5294 35.0966C17.5006 35.2648 17.5264 35.4019 17.578 35.6766C17.6229 35.9148 17.6715 36.1632 17.8202 36.45C17.9143 36.6313 17.9749 36.7445 18.111 36.8366C18.2333 36.9199 18.4905 37.0354 18.6434 36.9336C18.7848 36.839 18.7057 36.6475 18.837 36.1603C18.8472 36.1231 18.9581 35.7155 19.0307 35.7251C19.0774 35.7311 19.0522 35.9029 19.1272 36.1118C19.2321 36.4033 19.4605 36.5691 19.5631 36.6433C19.5984 36.669 20.15 37.0623 20.3862 36.8851C20.6165 36.7121 20.3778 36.1231 20.5313 36.0633C20.5679 36.0495 20.6201 36.0669 20.8701 36.3051C21.2628 36.6786 21.2208 36.7169 21.3545 36.7888C21.541 36.8887 21.5721 36.7864 22.2262 36.8372C22.5086 36.8588 22.5782 36.8839 22.7107 36.8372C22.9679 36.7469 23.0992 36.5158 23.1465 36.5475C23.1789 36.5691 23.1154 36.6774 23.098 36.8372C23.0752 37.0533 23.1525 37.2257 23.1951 37.3209C23.3858 37.7465 23.8942 38.0272 24.357 37.9979C24.3702 37.9973 24.3984 37.9949 24.4368 37.9895C24.429 37.9841 24.426 37.9775 24.4296 37.974C24.4218 37.3215 24.4134 36.669 24.4056 36.0166L24.4542 34.228L24.5027 30.603V28.3314C24.5027 28.3314 24.5921 25.8329 24.5998 25.6246C24.646 24.3113 24.6976 22.2444 24.721 18.9301C24.7287 18.8415 24.7371 18.7529 24.7449 18.6643C25.0273 18.8654 25.3097 19.0672 25.5921 19.2683C25.6646 19.2922 25.7372 19.3168 25.8097 19.3407L25.8583 21.0808V22.8209L25.7612 23.1112L25.7126 25.0446C25.7126 25.0446 25.7126 26.1083 25.7126 26.1562C25.7126 26.2046 25.6155 29.2011 25.6155 29.2011V31.5697V33.5516C25.6155 34.5507 25.6155 35.5497 25.6155 36.5487C25.6041 36.6547 25.5825 36.7774 25.5429 36.9115C25.5297 36.957 25.5148 36.9995 25.4998 37.0414C25.5279 36.9887 25.5597 36.9528 25.6155 36.936C25.7378 36.8995 25.8055 37.0049 26.0028 37.0809C26.278 37.1874 26.6161 37.1635 26.8913 37.0539C26.7732 37.006 26.724 36.514 26.9711 34.7123C26.9633 33.3667 26.9549 32.0217 26.9471 30.6761C26.9573 30.682 26.9657 30.688 26.974 30.6946C26.9716 30.6808 26.9699 30.6665 26.9711 30.6521C26.9717 30.6431 26.9752 30.6072 26.995 30.5791C27.0274 30.2732 27.0598 29.9673 27.0916 29.6615C27.1323 29.6902 27.1659 29.7153 27.1947 29.7369C27.0808 29.6321 26.8859 29.4813 26.5352 29.2502C26.0687 28.9438 25.9962 28.9366 25.9542 28.8151C25.8259 28.4457 26.3092 27.9735 26.4866 27.7999C26.6455 27.6442 26.7882 27.5054 26.9465 27.4287C26.9543 24.7812 26.9627 22.1337 26.9705 19.4862C27.4417 19.4227 27.6587 19.3377 27.769 19.2689C27.7834 19.2599 27.8704 19.2048 27.9933 19.133C28.1432 19.0456 28.2181 19.0019 28.2289 19.0025C28.3476 19.0109 28.3698 20.8982 28.1078 27.3886C28.0604 27.5461 28.0131 27.7035 27.9657 27.8609C28.0023 27.8879 28.0412 27.9154 28.0832 27.9447C28.5239 28.2512 28.7421 28.3314 28.8578 28.6217C28.8956 28.7157 28.9514 28.8558 28.9064 29.0084C28.8542 29.1874 28.7097 29.2287 28.4705 29.5399C28.3932 29.6405 28.2877 29.78 28.3254 29.8297C28.3734 29.8937 28.6018 29.7375 28.7127 29.8297C28.7625 29.871 28.7613 29.9398 28.7613 30.0715C28.7613 30.6497 28.7865 30.691 28.8099 30.7C28.8584 30.7185 28.9184 30.6 29.1486 30.4097C29.2649 30.3133 29.3303 30.2606 29.3746 30.2618C29.3423 30.1852 29.3267 30.0996 29.2937 30.023C29.0731 29.5076 29.2451 28.2344 29.2451 28.2344C29.2451 28.186 29.3417 26.301 29.3417 26.2525C29.3656 26.1801 29.3896 26.1083 29.4142 26.0358C29.3578 26.0185 29.3015 25.9951 29.2451 25.9628C29.199 25.9359 29.0809 25.8623 29.0029 25.721C28.952 25.6288 28.886 25.4498 28.9543 25.3828C29.0407 25.2984 29.2601 25.4672 29.3417 25.3828C29.3968 25.3253 29.359 25.1799 29.2931 25.0925C29.2391 25.0213 29.1996 25.032 29.0994 24.9476C28.9957 24.8602 28.9418 24.7675 28.9058 24.7058C28.8734 24.6501 28.7463 24.4316 28.8087 24.3676C28.8356 24.3401 28.8872 24.3514 28.9537 24.3676C29.112 24.4053 29.2295 24.4346 29.3201 24.455L29.3165 24.4532C29.3165 24.4532 29.3417 20.0177 29.3417 19.9213C29.3506 19.877 29.3692 19.819 29.4142 19.8004C29.4274 19.795 29.44 19.7944 29.4532 19.7968C29.422 19.7753 29.3854 19.7525 29.3417 19.728C29.2391 19.6705 29.1414 19.628 29.148 19.5831C29.1528 19.552 29.2062 19.5269 29.2931 19.4868C29.362 19.4544 29.3746 19.458 29.3902 19.4383C29.4334 19.3832 29.404 19.2659 29.3417 19.1965C29.2673 19.1139 29.181 19.1396 29.0509 19.0995C28.8914 19.051 28.7667 18.89 28.5185 18.5679C28.3992 18.4129 28.3434 18.3207 28.3734 18.2776C28.4058 18.2321 28.5065 18.286 28.567 18.2291C28.6276 18.1723 28.6132 18.0358 28.567 17.9388C28.4837 17.7646 28.3194 17.764 28.2763 17.6006C28.2679 17.5689 28.2709 17.5312 28.2763 17.4558C28.2895 17.2786 28.3242 17.1601 28.3734 16.9721C28.3866 16.9212 28.4148 16.8093 28.4705 16.5854C28.5401 16.3053 28.5628 16.2059 28.6156 16.1988C28.687 16.1892 28.7355 16.3562 28.8093 16.3436C28.8692 16.3334 28.8584 16.2203 28.9543 16.1018C29.0503 15.9839 29.2044 15.9204 29.2451 15.9569C29.2829 15.9905 29.202 16.0916 29.2451 16.1503C29.2883 16.2089 29.431 16.1904 29.5359 16.1503C29.8645 16.0246 29.8459 15.6786 30.1169 15.6187C30.2182 15.5972 30.3519 15.611 30.4616 15.6666ZM15.0892 33.5756C15.1234 33.7875 15.2104 33.7887 15.2589 33.9862C15.3063 34.1795 15.2925 34.4621 15.1618 34.5177C15.1006 34.5441 15.0143 34.5201 14.9681 34.4693C14.8974 34.3914 14.9657 34.2987 14.9442 34.0586C14.931 33.9144 14.904 33.9204 14.8956 33.7683C14.8854 33.5792 14.9256 33.5367 14.9196 33.4541C14.919 33.4493 14.9178 33.4331 14.9274 33.4205C14.9448 33.3966 14.9903 33.3954 15.0161 33.4056C15.0719 33.4283 15.0803 33.5205 15.0892 33.5756ZM14.8716 33.1165C14.904 33.074 14.9849 33.0734 15.0167 33.1165C15.0377 33.1452 15.0323 33.1859 15.0167 33.2128C14.9975 33.2464 14.9561 33.2709 14.9196 33.2613C14.8662 33.247 14.8362 33.162 14.8716 33.1165ZM20.0277 20.2344C19.4611 20.5876 18.903 20.9174 18.3574 21.225L17.9701 20.5002C17.9701 20.5002 18.0186 20.4038 18.0186 20.3553C18.0186 20.3068 19.4228 19.6304 19.4228 19.5819C19.4228 19.309 20.0205 19.2713 20.391 18.9049C20.4726 18.9397 20.6219 19.0157 20.7544 19.1707C20.9084 19.3515 20.9558 19.5412 20.972 19.6298C20.6656 19.8321 20.3509 20.0333 20.0277 20.2344ZM23.1022 24.2221C22.9949 24.3293 22.8552 24.3215 22.8114 24.3185C22.7658 24.3161 22.6489 24.3095 22.5692 24.2221C22.4667 24.1096 22.4739 23.9139 22.5692 23.787C22.6807 23.6385 22.9055 23.5942 23.0536 23.69C23.1759 23.769 23.1963 23.9121 23.1987 23.9318C23.2017 23.951 23.2185 24.1066 23.1022 24.2221ZM23.1507 22.0475C23.0248 22.1211 22.8636 22.0828 22.7634 21.999C22.6321 21.8895 22.6004 21.6973 22.6669 21.5638C22.7071 21.4824 22.7748 21.4411 22.812 21.419C22.8492 21.3962 23.0134 21.2969 23.1507 21.3705C23.2754 21.4375 23.2904 21.601 23.2958 21.6602C23.3006 21.7117 23.3222 21.9469 23.1507 22.0475ZM29.6558 33.2853C29.6582 33.2853 29.66 33.2853 29.6624 33.2853C29.6624 33.2811 29.6618 33.2763 29.6618 33.2709C29.66 33.2757 29.6582 33.2805 29.6558 33.2853ZM30.3165 34.5662C30.3063 34.5513 30.2967 34.5375 30.2871 34.5237C30.2907 34.5351 30.2925 34.5417 30.2925 34.5417C30.3603 34.7919 30.3651 34.9044 30.3651 34.9044C30.3933 35.5365 30.2134 36.177 30.2686 36.6445C30.2733 36.684 30.2859 36.7822 30.2488 36.8953C30.3927 36.6996 30.4844 36.5685 30.5587 36.3542C30.7248 35.8771 30.6427 35.4587 30.6073 35.2905C30.5749 35.1385 30.5132 34.8583 30.3165 34.5662ZM30.2919 24.6058C30.3315 24.6094 30.3591 24.6088 30.3645 24.6088C30.4005 24.6082 30.681 24.6016 30.8004 24.4155C30.9257 24.2197 30.7902 23.9546 30.8489 23.9318C30.9005 23.9121 30.9664 24.1324 31.1877 24.27C31.2056 24.2814 31.3292 24.3556 31.4928 24.3772C31.4551 24.3197 31.4742 24.2371 31.4778 24.2215L31.5264 17.9376C31.5228 17.8862 31.5096 17.6048 31.6949 17.3857C31.4245 17.5863 31.1691 17.8484 30.8004 18.2274C30.7074 18.3231 30.5479 18.4949 30.5581 18.711C30.5641 18.8379 30.6277 18.9516 30.6553 19.0013C30.7158 19.1109 30.7584 19.13 30.8975 19.2916C31.0408 19.458 31.1127 19.5412 31.1397 19.6298C31.2038 19.8399 31.1097 20.0291 31.0911 20.065C31.0612 20.1231 30.9934 20.253 30.8489 20.3068C30.75 20.3439 30.6637 20.3272 30.5581 20.3068C30.4053 20.2775 30.3543 20.2302 30.1708 20.162C30.1696 20.1614 30.1678 20.1608 30.1666 20.1602C30.1762 20.168 30.1852 20.1763 30.1948 20.1859C30.2668 20.2589 30.2997 20.3439 30.3159 20.4032L30.2919 24.6058Z"
					fill="white"/>
			<defs>
				<filter id="filter0_d" x="0" y="0" width="48" height="62.5771" filterUnits="userSpaceOnUse"
						  color-interpolation-filters="sRGB">
					<feFlood flood-opacity="0" result="BackgroundImageFix"/>
					<feColorMatrix in="SourceAlpha" type="matrix" values="0 0 0 0 0 0 0 0 0 0 0 0 0 0 0 0 0 0 127 0"/>
					<feOffset dy="4"/>
					<feGaussianBlur stdDeviation="2"/>
					<feColorMatrix type="matrix" values="0 0 0 0 0 0 0 0 0 0 0 0 0 0 0 0 0 0 0.25 0"/>
					<feBlend mode="normal" in2="BackgroundImageFix" result="effect1_dropShadow"/>
					<feBlend mode="normal" in="SourceGraphic" in2="effect1_dropShadow" result="shape"/>
				</filter>
			</defs>
		</svg>
