<svg width="344" height="94" viewBox="0 0 344 94" fill="none" xmlns="http://www.w3.org/2000/svg">
<path d="M343.586 59.9L343.718 63.0892L334.682 63.4645L334.55 60.2752L343.586 59.9ZM323.749 60.7238L323.882 63.913L314.846 64.2883L314.713 61.099L323.749 60.7238ZM311.514 61.2319L311.646 64.4211L302.61 64.7964L302.478 61.6071L311.514 61.2319ZM299.278 61.74L299.411 64.9293L290.375 65.3045L290.242 62.1153L299.278 61.74ZM287.598 48.1529L280.124 81.5519L277.162 81.6748L284.637 48.2759L287.598 48.1529ZM274.547 48.6949L267.073 82.0939L264.111 82.2168L271.586 48.8179L274.547 48.6949ZM261.496 49.237L254.021 82.6359L251.06 82.7588L258.535 49.3599L261.496 49.237ZM247.889 63.8742L248.022 67.0634L238.985 67.4387L238.853 64.2494L247.889 63.8742ZM235.654 64.3823L235.786 67.5715L226.75 67.9468L226.617 64.7575L235.654 64.3823ZM223.418 64.8904L223.55 68.0797L214.514 68.4549L214.382 65.2657L223.418 64.8904ZM211.182 65.3985L211.315 68.5878L202.279 68.9631L202.146 65.7738L211.182 65.3985ZM199.503 51.8115L192.028 85.2104L189.066 85.3334L196.541 51.9345L199.503 51.8115ZM186.451 52.3535L178.977 85.7524L176.015 85.8754L183.49 52.4765L186.451 52.3535ZM173.4 52.8955L165.925 86.2944L162.964 86.4174L170.439 53.0185L173.4 52.8955ZM159.793 67.5327L159.926 70.7219L150.889 71.0972L150.757 67.9079L159.793 67.5327ZM147.558 68.0408L147.69 71.2301L138.654 71.6053L138.521 68.4161L147.558 68.0408ZM135.322 68.5489L135.454 71.7382L126.418 72.1135L126.286 68.9242L135.322 68.5489ZM123.087 69.0571L123.219 72.2463L114.183 72.6216L114.05 69.4323L123.087 69.0571ZM186.351 4.31629L178.876 37.7152L175.914 37.8382L183.389 4.43928L186.351 4.31629ZM173.299 4.85829L165.825 38.2572L162.863 38.3802L170.338 4.98128L173.299 4.85829ZM160.248 5.4003L152.773 38.7992L149.812 38.9222L157.287 5.52329L160.248 5.4003ZM146.641 20.0375L146.774 23.2267L137.737 23.602L137.605 20.4128L146.641 20.0375ZM134.406 20.5456L134.538 23.7349L125.502 24.1101L125.369 20.9209L134.406 20.5456ZM122.17 21.0538L122.303 24.243L113.266 24.6183L113.134 21.429L122.17 21.0538ZM109.935 21.5619L110.067 24.7511L101.031 25.1264L100.898 21.9372L109.935 21.5619ZM98.2546 7.97482L90.78 41.3737L87.8185 41.4967L95.2931 8.09781L98.2546 7.97482ZM85.2033 8.51683L77.7287 41.9157L74.7673 42.0387L82.2419 8.63981L85.2033 8.51683ZM72.1521 9.05883L64.6775 42.4577L61.716 42.5807L69.1906 9.18182L72.1521 9.05883ZM58.5452 23.696L58.6777 26.8853L49.6414 27.2605L49.509 24.0713L58.5452 23.696Z" fill="black"/>
<path d="M110.851 69.5652L110.983 72.7545L101.947 73.1297L101.815 69.9405L110.851 69.5652ZM99.171 55.9781L91.6964 89.377L88.735 89.5L96.2096 56.1011L99.171 55.9781ZM86.1198 56.5201L78.6452 89.9191L75.6837 90.042L83.1583 56.6431L86.1198 56.5201ZM73.0685 57.0621L65.5939 90.4611L62.6325 90.584L70.1071 57.1851L73.0685 57.0621ZM59.4616 71.6993L59.5941 74.8886L50.5579 75.2639L50.4254 72.0746L59.4616 71.6993ZM47.2261 72.2075L47.3585 75.3967L38.3223 75.772L38.1899 72.5827L47.2261 72.2075ZM34.9905 72.7156L35.123 75.9049L26.0868 76.2801L25.9543 73.0909L34.9905 72.7156ZM22.755 73.2237L22.8874 76.413L13.8512 76.7882L13.7188 73.599L22.755 73.2237ZM11.0751 59.6367L3.60047 93.0356L0.639019 93.1586L8.11363 59.7597L11.0751 59.6367ZM298.362 13.7367L298.494 16.9259L289.458 17.3012L289.326 14.112L298.362 13.7367ZM286.126 14.2448L286.259 17.4341L277.223 17.8093L277.09 14.6201L286.126 14.2448ZM274.446 0.657759L266.972 34.0567L264.01 34.1797L271.485 0.780745L274.446 0.657759ZM261.395 1.19976L253.921 34.5987L250.959 34.7217L258.434 1.32275L261.395 1.19976ZM248.344 1.74177L240.869 35.1407L237.908 35.2637L245.383 1.86475L248.344 1.74177ZM234.737 16.379L234.87 19.5682L225.833 19.9435L225.701 16.7542L234.737 16.379ZM222.502 16.8871L222.634 20.0763L213.598 20.4516L213.465 17.2624L222.502 16.8871ZM210.266 17.3952L210.398 20.5845L201.362 20.9597L201.23 17.7705L210.266 17.3952ZM198.03 17.9034L198.163 21.0926L189.127 21.4679L188.994 18.2786L198.03 17.9034Z" fill="#D50000"/>
</svg>
