<svg width="31" height="32" viewBox="0 0 31 32" fill="none" xmlns="http://www.w3.org/2000/svg">
<path d="M18.4363 30.5996C18.4453 30.587 18.4543 30.5751 18.4633 30.5637L18.4627 30.5631C18.4543 30.5745 18.4459 30.5864 18.4363 30.5996ZM18.0964 24.8688C18.1065 24.882 18.1191 24.8909 18.1323 24.8981C18.1197 24.8885 18.1077 24.8778 18.0952 24.867C18.0958 24.8676 18.0964 24.8682 18.0964 24.8688ZM30.2743 12.0412C30.2833 12.0466 30.2911 12.052 30.2977 12.0597C30.3265 12.0921 30.3097 12.1172 30.3463 12.2046C30.3637 12.2465 30.3817 12.2794 30.3948 12.301C30.3565 12.6972 30.3721 12.8822 30.3948 12.978C30.3972 12.987 30.4188 13.0767 30.4188 13.1953C30.4188 13.2809 30.4188 13.3234 30.3948 13.3647C30.3936 13.3665 30.393 13.3671 30.3918 13.3688C30.5489 13.2635 30.6886 13.1522 30.8061 13.0025C30.9075 12.8738 31.0052 12.7463 30.9998 12.5673C30.9956 12.4309 30.9326 12.271 30.8061 12.1807C30.745 12.137 30.6688 12.1196 30.5154 12.0843C30.4164 12.0609 30.3271 12.0478 30.2743 12.0412ZM24.8508 15.8057L24.9959 15.2256L24.8994 13.0989L24.948 11.8419C24.9402 11.1924 24.9318 10.5429 24.924 9.89348C24.9162 9.89887 24.9084 9.90366 24.8994 9.90845C24.7999 9.96471 24.7399 9.93299 24.6572 9.95693C24.433 10.021 24.4773 10.364 24.2699 10.4406C24.0936 10.5052 23.9114 10.3149 23.834 10.3921C23.7854 10.4412 23.8466 10.5298 23.834 10.6339C23.8268 10.6962 23.7938 10.7507 23.7471 10.7985C23.7525 10.7991 23.7579 10.8003 23.7615 10.8033C23.7711 10.8117 23.789 10.844 23.6889 11.0206L23.7375 11.3588L23.6404 11.697V12.7607V18.2712C23.6326 18.4245 23.6242 18.5771 23.6164 18.7303C23.602 18.7537 23.5822 18.7824 23.5678 18.7788C23.548 18.7734 23.5534 18.7076 23.5438 18.7064C23.53 18.7052 23.5204 18.8303 23.4869 18.8662C23.65 18.9602 23.8748 18.9817 24.0283 18.8997C24.1871 18.8147 24.2153 18.6495 24.319 18.6579C24.397 18.6645 24.4449 18.7633 24.5127 18.8997C24.7573 19.3942 24.7291 19.299 24.8035 19.4798C24.8143 19.5067 24.8251 19.5324 24.8359 19.5582C24.8341 19.5079 24.8383 19.4498 24.852 19.3834C24.8508 18.1904 24.8508 16.998 24.8508 15.8057ZM25.8809 8.91899C25.8845 8.91899 25.8881 8.91779 25.8917 8.91779C25.9834 8.91839 26.0475 9.01656 26.0613 9.03871L26.1099 15.0323V17.5457L26.0613 19.5761C26.0433 19.6575 26.026 19.739 26.008 19.8204C26.0098 19.8198 26.011 19.818 26.0128 19.8174C26.0883 19.7904 26.1345 19.9155 26.3515 20.0107C26.4109 20.0364 26.6381 20.1328 26.8839 20.0592C26.9409 20.0418 27.0434 20.0101 27.1261 19.9143C27.1495 19.8868 27.2077 19.8198 27.2226 19.721C27.2418 19.5983 27.1801 19.5324 27.2226 19.4792C27.2616 19.4307 27.3252 19.4708 27.3677 19.4307C27.4715 19.3337 27.2346 18.965 27.3192 18.8991C27.3593 18.868 27.4385 18.9297 27.4643 18.8991C27.499 18.8578 27.3755 18.722 27.3623 18.6447C27.3557 18.6412 27.3491 18.6376 27.3432 18.6334C27.2736 18.5825 27.2718 18.4807 27.2706 18.4161C27.264 18.0982 27.267 17.8049 27.2706 17.5942V16.9172V15.2735V14.162V13.4371V11.5522V8.16837C27.2574 8.08996 27.2526 8.0301 27.2538 7.98461C27.231 8.00137 27.2047 8.01513 27.1735 8.02351C27.0854 8.04746 27.0812 8.00017 26.9798 8.02351C26.7958 8.06601 26.7856 8.22643 26.544 8.45868C26.4223 8.57541 26.2999 8.65562 26.1567 8.7484C26.0056 8.84716 26.0026 8.8328 25.9144 8.89325C25.903 8.90223 25.8923 8.91061 25.8809 8.91899ZM18.4273 24.0499C18.4303 24.0643 18.4333 24.0793 18.4351 24.0954C18.4513 24.208 18.4675 24.3211 18.4837 24.4336C18.4849 24.4899 18.4789 24.6 18.4027 24.6635C18.3979 24.6677 18.3925 24.6719 18.3865 24.6755C18.3775 24.6755 18.356 24.6665 18.3302 24.6539C18.4261 24.7185 18.5094 24.7808 18.5556 24.7479C18.582 24.7287 18.5916 24.6814 18.5556 24.5061C18.5202 24.3313 18.4909 24.1906 18.4273 24.0499ZM4.80622 5.89675C4.93572 5.85605 4.93992 5.76626 5.04844 5.7519C5.15875 5.73693 5.28825 5.79978 5.33922 5.89675C5.38178 5.97816 5.33562 6.02186 5.33922 6.18707C5.34041 6.23076 5.34701 6.39896 5.43634 6.57375C5.46332 6.62702 5.53227 6.75871 5.67856 6.86346C5.85243 6.98857 6.02869 6.99994 6.16299 7.00832C6.30808 7.0179 6.62224 7.01311 6.64742 6.91135C6.66541 6.83892 6.51672 6.79582 6.40521 6.62164C6.29129 6.44266 6.2793 6.22418 6.30808 6.0901C6.38842 5.72197 7.18102 5.52384 7.22779 5.51007C7.26076 5.50049 7.3393 5.47894 7.37288 5.4131C7.41245 5.33588 7.37108 5.23353 7.32431 5.12339C7.26616 4.98511 7.23678 4.98811 7.22719 4.93005C7.202 4.77262 7.39146 4.58825 7.56593 4.49488C7.81774 4.3602 7.89688 4.48949 8.19545 4.35002C8.37352 4.26682 8.46525 4.16506 8.58276 4.20516C8.67449 4.23629 8.71946 4.33146 8.72785 4.35002C8.77701 4.45417 8.73804 4.5272 8.72785 4.68822C8.72065 4.80195 8.73924 4.90909 8.77641 5.12339C8.81358 5.33648 8.83157 5.44303 8.87354 5.51007C8.95088 5.63577 9.07139 5.69204 9.30941 5.79978C9.43891 5.85844 9.62537 5.94165 9.89037 5.99313C10.057 6.02545 10.2579 6.06436 10.5199 6.04161C10.7255 6.02365 10.8586 5.97696 10.9072 6.04161C10.915 6.05239 10.9252 6.07573 10.8586 6.28344C10.8131 6.4259 10.7897 6.49773 10.7615 6.52526C10.6746 6.60966 10.5906 6.54861 10.4228 6.62164C10.3286 6.66294 10.2225 6.56776 10.2291 6.67012C10.2357 6.77308 10.3376 6.86885 10.2777 6.91195C10.0852 7.05022 10.8101 7.0568 11.2945 7.00892C11.4366 6.99455 11.18 6.91195 11.5367 6.91195C11.8755 6.91195 12.4055 6.91195 12.8437 6.91195C12.9888 6.91195 13.2652 6.98857 13.3282 6.86346C13.3767 6.76709 13.3527 6.58991 13.3767 6.62164C13.3881 6.6372 13.2718 6.48456 13.3282 6.42829C13.3719 6.3852 13.5758 6.53843 13.6669 6.33132C13.6843 6.29182 13.7778 6.36125 13.812 6.37981C13.8558 6.40375 13.9835 6.37382 14.0057 6.28344C14.029 6.18647 14.0051 6.14756 14.0057 6.0901C14.0081 5.94404 14.0386 5.90454 14.1028 5.84827C14.2659 5.70401 14.568 5.70281 14.9745 5.4131C15.2695 5.203 15.5093 5.05275 15.8463 4.68822C15.9908 4.53199 16.1143 4.39791 16.2336 4.20456C16.3133 4.07527 16.4026 3.95136 16.4758 3.81788C16.5219 3.73348 16.5345 3.70355 16.5729 3.67302C16.7384 3.54014 17.0424 3.66644 17.0573 3.67302C17.3703 3.8077 17.1988 4.23509 17.6383 4.68822C17.8158 4.87079 18.1227 5.4131 18.6066 5.79978C18.8524 5.99612 19.1803 5.96499 19.2361 6.18647C19.3332 6.57315 19.2361 6.71801 19.3332 6.81498C19.4351 6.91674 19.5167 6.90896 20.1078 6.86346C20.5905 6.82635 20.5923 6.81498 21.1247 6.81498C21.5389 6.81498 21.5252 6.7635 21.7056 6.76649C22.0432 6.77248 22.1415 6.66952 22.3837 6.71801C22.4431 6.72998 22.6187 6.68688 22.771 6.52467C22.8981 6.38939 22.9922 6.25171 23.0618 6.04101C23.1379 5.81116 23.1271 5.69623 23.1104 5.55736C23.0792 5.30356 22.9191 5.22215 22.9653 5.02582C22.9827 4.95099 23.033 4.84624 23.1104 4.83248C23.1961 4.81691 23.259 4.92286 23.4011 5.0743C23.7075 5.40113 23.8916 5.41789 23.8856 5.55796C23.8808 5.67229 23.7579 5.67707 23.6434 5.89616C23.6116 5.95721 23.5966 6.07932 23.5948 6.23435C23.5924 6.48815 23.7399 6.71801 23.9335 6.86286C24.0271 6.9329 24.093 6.8886 24.1758 6.95983C24.3118 7.07656 24.3196 7.26571 24.3208 7.29803C24.3256 7.41176 24.2915 7.51891 24.2237 7.63623C24.1074 7.83915 24.0127 7.8619 24.0301 7.92654C24.051 8.00316 24.2051 8.05105 24.3208 8.02291C24.4 8.00376 24.3982 7.96425 24.5145 7.92654C24.6068 7.89602 24.629 7.91397 24.7081 7.87806C24.7723 7.84933 24.7693 7.83197 24.8532 7.78169C24.9779 7.70686 25.0043 7.732 25.0469 7.68472C25.0859 7.64162 25.0889 7.55961 25.0955 7.3944C25.1003 7.27349 25.1026 7.21363 25.0955 7.15258C25.0865 7.07357 25.0733 7.04244 25.0955 7.00772C25.1284 6.95564 25.189 6.9748 25.2405 6.91075C25.2747 6.86825 25.2561 6.8491 25.2891 6.81438C25.3455 6.75392 25.4444 6.7629 25.4828 6.76589C25.5403 6.77068 25.5937 6.77547 25.6279 6.81438C25.6896 6.88441 25.6141 6.98019 25.6764 7.05621C25.71 7.09691 25.7711 7.11786 25.8215 7.10469C25.8791 7.08913 25.9066 7.03286 25.9186 7.00832C25.9612 6.91853 25.921 6.87065 25.9186 6.71801C25.9156 6.52526 25.9768 6.45643 25.9186 6.37981C25.8863 6.33671 25.8533 6.3409 25.8215 6.28344C25.7861 6.21879 25.8083 6.17988 25.7729 6.13858C25.743 6.10326 25.6974 6.09788 25.6279 6.0901C25.4978 6.07573 25.4672 6.11344 25.3856 6.0901C25.3041 6.06675 25.3191 6.02425 25.2405 5.99372C25.1033 5.94045 25.0139 6.05298 24.9018 5.99372C24.8484 5.96559 24.7957 5.90214 24.8047 5.84887C24.8191 5.76626 24.9743 5.76147 24.9983 5.65553C25.0073 5.61602 24.9875 5.60884 24.9983 5.55915C25.0121 5.49331 25.0547 5.46458 25.0955 5.4143C25.1488 5.34845 25.1956 5.24909 25.192 5.17247C25.1884 5.08687 25.12 5.02462 24.9983 4.93064C24.7363 4.72892 24.4935 4.58766 24.4174 4.54396C24.1236 4.37456 24.099 4.37097 24.0301 4.30213C23.9239 4.19559 23.9054 4.12675 23.7878 4.06031C23.6583 3.98728 23.6176 4.03636 23.4971 3.96393C23.358 3.88013 23.2884 3.74066 23.2548 3.67362C23.1829 3.52877 23.2171 3.49465 23.1577 3.4318C23.048 3.31507 22.8256 3.32225 22.6733 3.38331C22.5918 3.41623 22.6073 3.43359 22.3825 3.62514C22.1049 3.86218 22.0138 3.8933 21.9952 4.01182C21.9862 4.07168 21.9976 4.13872 21.9466 4.20516C21.9077 4.25664 21.8741 4.25185 21.8495 4.30153C21.8249 4.35182 21.8519 4.37217 21.8495 4.49488C21.8477 4.58287 21.8333 4.59963 21.8495 4.63973C21.8711 4.6942 21.9197 4.71994 21.9466 4.7367C21.9748 4.75406 22.012 4.7822 22.1889 5.0749C22.3148 5.28321 22.3777 5.38796 22.3825 5.4131C22.4233 5.64236 22.2608 5.84408 22.1403 5.99313C22.0492 6.10626 21.952 6.22298 21.8015 6.23495C21.7632 6.23795 21.6684 6.24513 21.6079 6.18647C21.485 6.06735 21.6726 5.84348 21.5593 5.65493C21.476 5.51606 21.2805 5.48074 21.172 5.46159C21.0905 5.44722 21.0977 5.46159 20.8333 5.46159C20.5863 5.46159 20.5545 5.44901 20.3974 5.46159C20.2967 5.46937 20.2062 5.48254 20.1066 5.51007C20.0341 5.52982 19.9861 5.54898 19.9615 5.55856C19.7913 5.62141 19.5263 5.64056 19.2835 5.55856C19.0892 5.49271 18.9663 5.38138 18.8962 5.31673C18.7642 5.19462 18.6953 5.0743 18.5574 4.83307C18.5178 4.76364 18.4423 4.62716 18.3638 4.44639C18.326 4.359 18.344 4.39192 18.2187 4.05971C18.1293 3.82327 18.1131 3.78855 18.1215 3.72151C18.1365 3.6 18.2061 3.58383 18.2666 3.4312C18.3308 3.27078 18.269 3.24623 18.3152 3.04451C18.3673 2.81765 18.4897 2.64586 18.5328 2.5854C18.6054 2.48544 18.6294 2.48185 18.6779 2.39206C18.7271 2.30227 18.7882 2.19034 18.775 2.05386C18.7654 1.95809 18.7259 1.91798 18.7511 1.83658C18.7631 1.79707 18.7762 1.79408 18.8236 1.71566C18.8392 1.68992 18.8878 1.60911 18.9207 1.52232C18.9627 1.40919 18.9681 1.31222 18.9693 1.28049C18.9729 1.16856 18.9771 1.04106 18.8967 0.966238C18.8404 0.914162 18.7918 0.930922 18.7517 0.869866C18.7133 0.811206 18.7439 0.769305 18.7031 0.72501C18.6701 0.689095 18.6311 0.696278 18.558 0.676525C18.4543 0.64899 18.4537 0.613674 18.3644 0.580153C18.1923 0.515506 18.1035 0.611878 17.977 0.531668C17.9141 0.491563 17.9363 0.468218 17.8799 0.435296C17.7246 0.343713 17.5382 0.513711 17.444 0.435296C17.3943 0.393994 17.4357 0.337728 17.3955 0.241955C17.3337 0.0953021 17.1407 -0.00406245 16.9596 0.000127625C16.763 0.00491628 16.5627 0.132414 16.5237 0.29044C16.4986 0.392797 16.5585 0.437691 16.5237 0.483781C16.4374 0.59811 16.0735 0.312587 15.7006 0.435296C15.5843 0.473606 15.5135 0.536457 15.4098 0.628638C15.3462 0.685503 15.068 0.933316 15.0225 1.30563C15.0123 1.38824 15.0285 1.35532 15.0225 1.59595C15.0177 1.77851 15.0063 1.87668 15.071 1.93414C15.11 1.96886 15.1304 1.94791 15.1682 1.98263C15.2215 2.03171 15.2053 2.09935 15.2167 2.32083C15.2251 2.49023 15.2383 2.52854 15.2653 2.56265C15.3061 2.61473 15.3426 2.60934 15.3624 2.65962C15.393 2.73684 15.3259 2.79969 15.3624 2.85297C15.3858 2.88709 15.4224 2.87511 15.4596 2.90145C15.5303 2.95113 15.5147 3.07743 15.5081 3.19117C15.4865 3.55091 15.5645 3.56947 15.5081 3.77119C15.4745 3.89091 15.4206 3.9783 15.363 4.0615C15.0009 4.57928 14.399 5.04258 14.2976 5.12518C13.8348 5.50169 13.6339 5.61303 13.3779 5.65672C13.1699 5.69264 12.9888 5.67229 12.8455 5.65672C12.4235 5.61003 12.3845 5.48074 11.9738 5.4149C11.5883 5.35324 11.5739 5.4556 11.2477 5.36641C11.0229 5.30536 10.9396 5.23233 10.7153 5.22155C10.4839 5.21078 10.4647 5.28321 10.2795 5.27004C10.0115 5.25088 9.68712 5.07311 9.60139 4.78639C9.54743 4.60681 9.5804 4.36259 9.69851 4.30273C9.76626 4.26861 9.83581 4.30932 9.89217 4.25425C9.93953 4.20816 9.91675 4.15309 9.94073 4.0609C9.9833 3.8957 10.1074 3.87594 10.1344 3.77059C10.1734 3.61975 9.97431 3.44616 9.84361 3.33542C9.57261 3.10437 9.30461 2.87631 8.97187 2.90025C8.60614 2.92659 8.62892 3.22528 8.05216 3.4318C7.66905 3.56887 7.27755 3.57665 7.27755 3.57665C6.98017 3.58264 6.92561 3.52577 6.74515 3.57665C6.48495 3.65028 6.18038 3.88612 6.16419 4.15668C6.1486 4.41048 6.39382 4.55952 6.30928 4.7367C6.27271 4.81272 6.19896 4.84624 6.11563 4.88156C5.80446 5.01325 5.66177 4.866 5.38958 4.93005C5.14556 4.98751 4.98428 5.17606 4.66353 5.55856C4.53702 5.7094 4.48966 5.7938 4.51844 5.84827C4.55081 5.91651 4.6977 5.93087 4.80622 5.89675ZM18.0964 0.845325C18.1383 0.782474 18.2079 0.774093 18.2175 0.772896L18.4111 0.821381L18.6048 1.01472V1.35292C18.4933 1.37387 18.4723 1.38165 18.4351 1.37687C18.4291 1.37627 18.308 1.35831 18.2654 1.25595C18.2384 1.1913 18.2582 1.12965 18.2654 1.11109L18.0718 0.966238C18.07 0.954266 18.061 0.898598 18.0964 0.845325ZM15.3612 1.69172C15.3612 1.69172 15.3612 1.30504 15.3612 1.25655C15.3654 1.22123 15.3726 1.17993 15.3852 1.13564C15.4056 1.0656 15.4326 1.00934 15.4578 0.966238C15.4895 0.932718 15.5453 0.882437 15.6274 0.845325C15.7287 0.799234 15.8199 0.795642 15.8696 0.79684C15.8972 0.794445 15.9302 0.793847 15.9662 0.79684C16.0141 0.80103 16.0549 0.810607 16.0873 0.820783C16.1167 0.854303 16.1262 0.900993 16.1113 0.941696C16.0933 0.993174 16.0453 1.01173 16.0387 1.01412C15.974 1.01412 15.9098 1.01412 15.8451 1.01412C15.8151 1.03268 15.7635 1.06979 15.724 1.13504C15.661 1.23919 15.6712 1.34334 15.6754 1.37687C15.6784 1.41996 15.679 1.46845 15.6754 1.52172C15.6712 1.58577 15.6622 1.64264 15.6514 1.69112H15.3612V1.69172ZM15.5303 2.44054C15.5363 2.36512 15.5477 2.30586 15.5543 2.27115C15.5687 2.25139 15.5921 2.22386 15.6268 2.19872C15.664 2.17178 15.6994 2.15801 15.724 2.15023C15.7479 2.22266 15.7725 2.29509 15.7965 2.36752C15.8265 2.43396 15.8654 2.5429 15.869 2.68177C15.8714 2.76917 15.8588 2.84339 15.8451 2.89906L15.9416 3.04391L15.8451 3.18877L15.6028 3.0918C15.5351 2.72667 15.5177 2.59737 15.5303 2.44054ZM29.1112 23.926C29.0015 23.7632 29.1916 23.51 29.1112 23.4424C29.0525 23.3933 28.9098 23.4945 28.869 23.4424C28.8432 23.4089 28.8954 23.3574 28.869 23.2975C28.8414 23.2341 28.7671 23.2514 28.7239 23.2011C28.649 23.1132 28.7959 22.9719 28.7725 22.766C28.7563 22.6205 28.6568 22.4547 28.5303 22.4278C28.3822 22.3961 28.2719 22.5708 28.1915 22.5247C28.1232 22.4852 28.1915 22.3518 28.1429 22.1866C28.0752 21.9543 27.8282 21.834 27.6585 21.7514C27.4457 21.6478 27.261 21.6269 27.0776 21.6065C26.9163 21.5886 26.7226 21.5664 26.4966 21.6065C26.0655 21.6825 25.4492 21.9938 25.3832 22.4284C25.3617 22.5696 25.3952 22.7432 25.2861 22.8151C25.1956 22.8743 25.1003 22.8031 25.0439 22.8635C24.9624 22.9509 25.1314 23.1323 25.0439 23.3472C25.0283 23.3861 25.0253 23.3723 24.9468 23.4921C24.8394 23.6555 24.7849 23.7387 24.7531 23.8303C24.6686 24.0739 24.8137 24.1798 24.7046 24.3618C24.6506 24.4516 24.5553 24.527 24.5109 24.5067C24.4833 24.4941 24.4977 24.4546 24.4623 24.4103C24.4102 24.3444 24.2963 24.3271 24.2201 24.3618C24.1656 24.3869 24.1704 24.4199 24.123 24.4582C23.9803 24.5755 23.7225 24.4396 23.6871 24.5067C23.6667 24.5456 23.7519 24.5946 23.7357 24.6515C23.7123 24.7329 23.5031 24.7557 23.3484 24.7485C23.0618 24.7353 22.9233 24.6186 22.816 24.7C22.7608 24.7419 22.7878 24.7802 22.7195 24.8449C22.6085 24.9496 22.4065 24.9729 22.3321 24.8933C22.2842 24.8425 22.3256 24.788 22.2836 24.7485C22.1955 24.6659 21.9808 24.8754 21.7992 24.797C21.6858 24.7479 21.6211 24.6018 21.6541 24.5551C21.702 24.4869 21.9484 24.6491 22.0414 24.5551C22.0959 24.5001 22.0701 24.3827 22.0414 24.3133C21.9772 24.1583 21.7872 24.1086 21.7992 24.0715C21.8069 24.0463 21.8987 24.0535 22.0414 24.0715C22.3795 24.1146 22.4946 24.1565 22.6709 24.12C22.8058 24.0918 22.849 24.0439 22.8645 24.0236C22.9359 23.9302 22.9287 23.7722 22.8645 23.7333C22.8364 23.7165 22.816 23.7333 22.7674 23.7333C22.6715 23.7333 22.6103 23.665 22.4766 23.5399C22.2698 23.3466 22.2242 23.331 22.2344 23.2981C22.256 23.2293 22.4874 23.2155 22.6703 23.2496C22.8316 23.2802 22.9107 23.3394 22.9611 23.2981C23.0258 23.2442 22.9695 23.0802 22.9611 23.0563C22.8747 22.8055 22.6451 22.8121 22.5738 22.6211C22.4245 22.2231 22.7356 21.9513 22.6223 21.4126C22.572 21.172 22.464 21.0079 22.3801 20.881C22.301 20.7607 22.0144 20.3256 21.5084 20.1562C21.4598 20.14 21.4124 20.1274 21.3663 20.1173C21.3921 20.1951 21.4178 20.2723 21.4436 20.3501C21.4436 20.5189 21.4394 22.9025 21.4358 25.4542V25.4973C21.4358 25.4973 21.4592 25.4973 21.4406 25.5141C21.5246 25.5057 21.6079 25.4907 21.7992 25.4734C22.1283 25.4434 22.1703 25.4614 22.5738 25.4249C22.798 25.4045 22.8915 25.3896 22.9611 25.3764C23.1889 25.3339 23.3082 25.3111 23.4455 25.2315C23.587 25.1489 23.6464 25.0633 23.6877 25.0867C23.7573 25.1256 23.6308 25.389 23.7363 25.4734C23.8004 25.5242 23.9108 25.4776 23.9299 25.5218C23.9431 25.5518 23.9012 25.5955 23.8814 25.6182C23.7914 25.7242 23.789 25.8822 23.7848 26.1982C23.7813 26.4383 23.7795 26.558 23.8334 26.6334C23.9018 26.7292 23.9545 26.6933 24.1242 26.8268C24.1805 26.871 24.3196 26.9824 24.415 27.165C24.4737 27.2781 24.4509 27.2936 24.5121 27.4068C24.5948 27.56 24.704 27.6564 24.7543 27.6971C24.8418 27.7671 25.0757 27.9545 25.2867 27.8904C25.4018 27.8551 25.394 27.7803 25.5775 27.6971C25.6686 27.6552 25.7963 27.5971 25.8683 27.6486C25.9624 27.7162 25.8665 27.9078 25.9654 27.9868C26.0152 28.0269 26.0763 28.0078 26.2076 27.9868C26.5146 27.9371 26.4888 27.9904 26.7886 27.9383C27.041 27.8946 27.1675 27.8731 27.2244 27.7935C27.3246 27.654 27.219 27.4816 27.3216 27.4068C27.3809 27.3631 27.4397 27.405 27.6124 27.4068C27.6124 27.4068 27.7694 27.4086 27.9511 27.3583C28.128 27.3098 28.3132 27.1159 28.6771 26.7298C28.7185 26.6861 28.7803 26.619 28.7743 26.5364C28.7689 26.461 28.7119 26.4419 28.6771 26.3431C28.6699 26.3216 28.6256 26.1941 28.6771 26.1013C28.7539 25.9636 28.9787 26.0175 29.0159 25.9079C29.0441 25.8247 28.9296 25.7523 28.9673 25.6661C28.9943 25.605 29.0609 25.6206 29.1124 25.5691C29.2407 25.4416 29.086 25.0903 29.0621 24.9765C29.0159 24.9556 28.9493 24.9113 28.9188 24.8443C28.8732 24.7455 28.9176 24.6252 28.9673 24.5539C29.0513 24.4348 29.1406 24.4719 29.2095 24.3606C29.2719 24.2594 29.2677 24.1158 29.2095 24.0224C29.1712 23.9631 29.1454 23.9769 29.1112 23.926ZM28.3606 22.742C28.4175 22.7115 28.4997 22.7199 28.5303 22.766C28.5692 22.8258 28.5183 22.9444 28.4331 22.9593C28.3726 22.9701 28.297 22.927 28.288 22.8623C28.2802 22.8079 28.3234 22.7618 28.3606 22.742ZM26.7388 22.4278C26.7556 22.2422 26.8995 22.0495 27.1021 22.0172C27.3 21.9854 27.4505 22.1231 27.4894 22.162C27.5266 22.1991 27.6381 22.323 27.6345 22.5002C27.6303 22.7169 27.4547 22.942 27.2232 22.9593C26.9445 22.9803 26.7148 22.6918 26.7388 22.4278ZM24.3178 26.4395C24.2591 26.4712 24.1967 26.4634 24.1967 26.4634C24.1644 26.4592 24.1392 26.4479 24.1242 26.4395C24.1122 26.3766 24.1026 26.3036 24.1002 26.2222C24.096 26.1001 24.108 25.9929 24.1242 25.9079C24.1416 25.8984 24.1865 25.8768 24.2453 25.884C24.2777 25.8882 24.3023 25.8995 24.3178 25.9079C24.4018 26.1797 24.3934 26.3988 24.3178 26.4395ZM25.1656 27.5756C25.1104 27.578 25.0679 27.5618 25.0445 27.5516C25.0445 27.5032 25.0445 27.4547 25.0445 27.4068C25.0145 27.4176 24.9731 27.4283 24.9234 27.4307C24.8496 27.4349 24.7903 27.4193 24.7537 27.4068C24.7381 27.3391 24.7303 27.3056 24.7297 27.2859C24.7291 27.2595 24.7315 27.217 24.7537 27.165C24.8101 27.2051 24.8664 27.2458 24.9234 27.2859C24.951 27.2835 24.9839 27.2829 25.0205 27.2859C25.0685 27.2901 25.1092 27.2996 25.1416 27.3098C25.204 27.329 25.2441 27.3643 25.2627 27.3822C25.3089 27.4283 25.3281 27.4786 25.3353 27.5032C25.3173 27.5193 25.2567 27.5714 25.1656 27.5756ZM27.0536 27.5271C27.0452 27.5618 27.0128 27.5822 26.981 27.5995C26.9211 27.6318 26.8066 27.6851 26.6177 27.7204C26.529 27.7282 26.4402 27.7366 26.3515 27.7444L26.4001 27.5995C26.4103 27.5792 26.445 27.5169 26.5212 27.4786C26.5973 27.4403 26.6681 27.4505 26.6908 27.4547L26.9816 27.3583C27.035 27.4481 27.0614 27.4936 27.0536 27.5271ZM28.3606 26.7537C28.2772 26.8483 28.2101 26.8291 28.1429 26.9231C28.1298 26.9417 28.1106 26.9728 28.0704 26.9956C28.0428 27.0117 28.0158 27.0171 27.9979 27.0195C27.9739 26.9956 27.9493 26.971 27.9253 26.9471C27.9205 26.9327 27.9103 26.8944 27.9253 26.8507C27.9487 26.7825 28.0128 26.7573 28.0224 26.7537C28.0788 26.7615 28.1352 26.7699 28.1921 26.7777C28.1813 26.7543 28.1657 26.7118 28.1681 26.6568C28.1723 26.5658 28.2245 26.5053 28.2407 26.4874C28.2527 26.485 28.3084 26.476 28.3618 26.5113C28.4247 26.5532 28.4331 26.6226 28.4343 26.6322C28.4103 26.6915 28.3816 26.7298 28.3606 26.7537ZM28.3366 26.1976C28.2389 26.2383 28.1861 26.1821 28.0944 26.1976C27.9715 26.2186 27.9373 26.3425 27.7556 26.6328C27.7107 26.7046 27.5788 26.9106 27.3683 27.1165C27.3216 27.162 27.1813 27.2954 27.1261 27.2613C27.0901 27.2392 27.1255 27.1685 27.0776 27.1165C27.023 27.0578 26.8947 27.0584 26.8353 27.1165C26.797 27.1536 26.8192 27.1841 26.7868 27.2128C26.7082 27.2829 26.5356 27.1422 26.448 27.2128C26.4103 27.2434 26.4354 27.2751 26.3995 27.3098C26.3023 27.4032 26.0535 27.2224 25.9636 27.3098C25.921 27.3511 25.9618 27.4056 25.915 27.4547C25.8323 27.5421 25.5967 27.4882 25.5763 27.4062C25.5637 27.3559 25.638 27.32 25.6249 27.2613C25.6111 27.2021 25.5205 27.1769 25.4798 27.165C25.108 27.0518 24.9366 26.7902 24.8017 26.8746C24.7477 26.9088 24.7543 26.9638 24.7046 26.9716C24.6248 26.9836 24.5097 26.8537 24.5109 26.7298C24.5115 26.6783 24.5319 26.6597 24.5595 26.5849C24.5786 26.5334 24.5912 26.4802 24.608 26.2946C24.6338 26.0025 24.647 25.857 24.608 25.811C24.5355 25.726 24.4396 25.7804 24.3172 25.6661C24.2639 25.6158 24.1931 25.5218 24.2201 25.4728C24.2633 25.3955 24.5397 25.4811 24.5589 25.4243C24.5691 25.3955 24.4989 25.3698 24.4617 25.2794C24.4414 25.2291 24.4192 25.128 24.4617 25.0861C24.5475 25.0017 24.8395 25.2064 24.8976 25.1346C24.9246 25.101 24.8682 25.0484 24.8976 24.9897C24.9372 24.9107 25.1009 24.879 25.1884 24.9412C25.2525 24.9873 25.225 25.0484 25.2855 25.0861C25.3838 25.1483 25.5325 25.034 25.5763 25.0861C25.5973 25.1118 25.5637 25.1417 25.5763 25.1824C25.5979 25.2543 25.7304 25.2585 26.2058 25.2794C26.3137 25.2842 26.475 25.2908 26.4966 25.2309C26.5032 25.213 26.487 25.1962 26.4966 25.1824C26.517 25.1537 26.6099 25.1902 26.6663 25.2064C26.7412 25.2279 26.8521 25.2423 27.005 25.2064C27.4205 25.0478 27.7167 24.9053 27.8036 24.8437C27.8833 24.7874 27.9247 24.7227 27.9247 24.7227C27.9541 24.6772 27.9451 24.6695 27.9733 24.6258C28.0206 24.5527 28.0572 24.5563 28.1184 24.4809C28.1418 24.4528 28.1579 24.4217 28.1909 24.36C28.2347 24.278 28.2569 24.2373 28.2635 24.1906C28.2719 24.1325 28.2527 24.126 28.2395 24.0212C28.2359 23.9943 28.2287 23.8979 28.2395 23.7794C28.2425 23.7477 28.2515 23.6728 28.288 23.586C28.3084 23.5375 28.3318 23.4843 28.3852 23.4412C28.4109 23.4202 28.4583 23.3819 28.4823 23.3927C28.5842 23.4412 28.1531 24.3845 28.3852 24.5527C28.4409 24.5934 28.5129 24.5725 28.5788 24.6497C28.631 24.7102 28.6682 24.8179 28.6274 24.8915C28.574 24.9873 28.4337 24.9436 28.3852 25.0364C28.339 25.1256 28.4325 25.2351 28.3852 25.2782C28.3504 25.3093 28.2958 25.2573 28.2401 25.2782C28.1058 25.3285 28.059 25.7673 28.2401 25.9067C28.3372 25.9816 28.4589 25.9385 28.4823 26.0037C28.5027 26.063 28.4265 26.1605 28.3366 26.1976ZM28.869 25.4728C28.8366 25.4728 28.8042 25.4728 28.7719 25.4728C28.7833 25.4943 28.827 25.5835 28.7959 25.69C28.7779 25.7505 28.7437 25.7906 28.7233 25.811C28.7059 25.8205 28.661 25.8421 28.6022 25.8349C28.5698 25.8307 28.5452 25.8193 28.5297 25.811C28.5099 25.7433 28.5057 25.6841 28.5057 25.6416C28.5057 25.5709 28.5183 25.5129 28.5297 25.4722C28.562 25.4722 28.5944 25.4722 28.6268 25.4722C28.607 25.4045 28.6028 25.3453 28.6028 25.3028C28.6028 25.2321 28.6154 25.1741 28.6268 25.1334C28.6508 25.0891 28.6975 25.0609 28.7479 25.0609C28.7983 25.0609 28.845 25.0891 28.869 25.1334C28.8888 25.201 28.893 25.2603 28.893 25.3028C28.8936 25.374 28.881 25.4321 28.869 25.4728ZM28.9176 24.3612C28.9002 24.3708 28.8552 24.3923 28.7965 24.3851C28.7641 24.381 28.7395 24.3696 28.7239 24.3612C28.7077 24.2936 28.6939 24.2026 28.6999 24.0954C28.7035 24.0308 28.7125 23.9739 28.7239 23.926C28.6915 23.926 28.6592 23.926 28.6268 23.926C28.6178 23.9105 28.6064 23.8859 28.6028 23.8536C28.5956 23.7949 28.6172 23.75 28.6268 23.7327C28.6346 23.7219 28.6753 23.6698 28.7479 23.6603C28.8486 23.6471 28.9146 23.7291 28.9176 23.7327C28.9355 23.85 28.9415 23.956 28.9415 24.0469C28.9415 24.1655 28.9314 24.2714 28.9176 24.3612ZM20.106 27.068C20.0329 26.8902 19.9376 26.8639 19.2829 26.1498C19.2301 26.0923 19.1815 26.0384 19.1354 25.9875C19.1456 26.0031 19.1546 26.0175 19.1617 26.0294C19.0856 29.7143 19.0197 30.7499 18.9681 30.7666C18.9579 30.7696 18.9501 30.7708 18.9435 30.7708C18.9381 30.8229 18.9063 30.8474 18.8955 30.936C18.8836 31.0366 18.9021 31.1892 18.9921 31.2742C19.1456 31.4197 19.4387 31.3071 19.5245 31.2742C19.6018 31.2443 19.8848 31.1359 19.9603 30.8875C20.0389 30.6301 19.8284 30.4386 19.9118 30.356C19.9526 30.3159 20.0473 30.3159 20.154 30.3488C20.16 30.1926 20.2697 27.4607 20.2745 27.2948C20.1636 27.2128 20.1168 27.0955 20.106 27.068ZM30.6604 14.0656C30.471 13.9956 30.4506 13.9692 30.3217 13.9207C30.1904 13.8711 30.0807 13.8489 29.9955 13.8351C29.9997 13.8393 30.0039 13.8435 30.0069 13.8483C30.0261 13.8752 30.0249 13.9028 30.0555 13.9453C30.1107 14.0225 30.2018 14.053 30.2731 14.0662C30.2905 14.2488 30.2971 14.4188 30.2971 14.5738C30.2971 14.757 30.2875 14.927 30.2731 15.0814C30.2641 15.1395 30.2623 15.1712 30.2492 15.2023C30.2384 15.2274 30.2168 15.2598 30.152 15.2993C30.1484 15.3017 30.14 15.3065 30.1191 15.3178C30.1119 15.3214 30.1041 15.325 30.0963 15.3286C30.1077 15.3268 30.1185 15.325 30.128 15.3238C30.3505 15.2885 30.4134 15.3376 30.5154 15.2753C30.6071 15.2191 30.6221 15.1389 30.709 14.8886C30.8817 14.3906 30.9782 14.2601 30.9027 14.1638C30.8733 14.1249 30.8523 14.1362 30.6604 14.0656ZM29.1112 24.9897C29.1166 24.9825 29.077 24.9352 29.0627 24.9412C29.0567 24.9436 29.0567 24.9568 29.0609 24.9771C29.0878 24.9891 29.1082 24.9933 29.1112 24.9897ZM29.6886 15.5309C29.6826 15.5357 29.6766 15.5387 29.6676 15.5393C29.6376 15.5417 29.6064 15.4968 29.5711 15.4423C29.5531 15.4148 29.5339 15.3861 29.5225 15.3454C29.5039 15.2783 29.5183 15.2203 29.5225 15.2005C29.5507 15.0748 29.5159 14.9425 29.5225 14.8138C29.5309 14.6492 29.5357 14.3667 29.5225 13.8471C29.6406 13.8142 29.7311 13.798 29.8007 13.7932C29.7947 13.7885 29.7905 13.7825 29.7887 13.7747C29.7845 13.7537 29.8019 13.7322 29.8385 13.7064C29.8301 13.7052 29.8217 13.7046 29.8127 13.7023C29.7635 13.6879 29.7623 13.6651 29.7156 13.6538C29.6352 13.6346 29.5549 13.6813 29.4979 13.7262C29.5057 13.2509 29.5141 12.7757 29.5219 12.3004C29.5387 12.2513 29.5897 12.1274 29.7156 12.0586C29.7761 12.0256 29.8445 12.019 29.9254 12.0125C29.9092 12.0071 29.896 11.9987 29.8846 11.9855C29.8415 11.9358 29.8529 11.8538 29.8846 11.7437C29.953 11.5085 30.0465 11.3828 30.1754 11.1637C30.3984 10.7842 30.45 10.5968 30.4662 10.5352C30.4944 10.425 30.5034 10.3454 30.5148 10.2448C30.5315 10.0964 30.5441 9.97728 30.5363 9.8851C30.5142 9.91503 30.4752 9.91264 30.4422 9.93059C30.3876 9.96052 30.3379 10.0539 30.3697 10.3412C30.3697 10.3412 30.2731 10.5819 30.2725 10.583C30.1119 10.9841 30.0585 11.0601 29.9578 11.3325C29.9578 11.3325 29.7599 11.8664 29.5465 12.0819C29.5465 12.0819 29.5453 12.0825 29.5447 12.0825C29.5303 12.0819 29.5243 11.8838 29.5219 11.8155C29.5141 11.5647 29.5039 10.6812 29.4979 10.0994C29.5225 9.96711 29.5747 9.90964 29.619 9.88211C29.6736 9.84799 29.7323 9.84799 29.7839 9.81088C29.7216 9.83362 29.6292 9.81327 29.595 9.7612V9.7606C29.5897 9.77137 29.5819 9.78035 29.5711 9.78514C29.5543 9.79292 29.5351 9.78933 29.5225 9.78514C29.5411 9.35177 29.5363 8.89146 29.4985 8.4078C29.4919 8.32221 29.4841 8.23721 29.4751 8.15341C29.45 8.1558 29.4248 8.15939 29.4014 8.16598C29.2401 8.20847 29.1484 8.33956 28.9655 8.60114C28.8336 8.7897 28.7941 8.89265 28.6268 9.0848C28.5446 9.17818 28.4343 9.30328 28.3846 9.27814C28.3402 9.25539 28.3606 9.12071 28.3846 9.03631C28.4289 8.88128 28.5045 8.83699 28.6753 8.60114C28.7875 8.44611 28.8438 8.3665 28.869 8.26295C28.896 8.15041 28.866 8.13485 28.869 7.92475C28.8714 7.74757 28.8936 7.73021 28.9176 7.44109C28.9403 7.16515 28.9613 7.11068 28.9176 7.05441C28.8756 7.00054 28.8408 7.01909 28.6514 6.9335C28.4751 6.85389 28.4691 6.82096 28.3852 6.81258C28.3804 6.81199 28.3012 6.8054 28.2143 6.83653C28.2149 6.83653 28.2155 6.83653 28.2155 6.83713C28.2455 6.85209 28.2413 6.90476 28.2401 7.00413C28.2395 7.03945 28.288 7.39859 28.288 7.68352C28.288 7.732 28.3366 7.87686 28.3366 7.87686C28.3366 7.87686 28.3852 8.94054 28.3852 8.98843C28.3852 9.03631 28.2401 9.13328 28.2401 9.13328L28.1915 9.51997L28.4337 9.47148V9.95514V11.7437L28.3852 13.0971C28.3852 13.0971 28.3852 15.1754 28.3852 15.2238C28.3852 16.4473 28.363 17.6559 28.3366 18.8489C28.3216 18.8656 28.2832 18.9045 28.2221 18.9195C28.4325 18.9686 28.6232 18.9285 28.7725 18.8973C28.9266 18.865 29.0297 18.8417 29.1112 18.7525C29.2437 18.6076 29.2215 18.3951 29.2083 18.2688C29.1754 17.9558 29.0129 17.7092 28.8696 17.4955C28.7131 17.2626 28.5944 17.1531 28.6274 17.1088C28.6544 17.0717 28.7551 17.1214 29.0633 17.2052C29.2053 17.2441 29.3049 17.271 29.3906 17.286C29.3864 17.283 29.3822 17.2812 29.378 17.2776C29.2629 17.1806 29.3684 16.9998 29.378 16.6006C29.3846 16.3264 29.414 16.0529 29.4266 15.7787C29.4314 15.6698 29.4338 15.6081 29.4751 15.5854C29.5699 15.5333 29.7893 15.7326 29.9674 15.9427C29.9566 15.9284 29.9464 15.9146 29.935 15.8996C29.7767 15.6919 29.676 15.6159 29.6886 15.5309ZM21.4616 9.66662C21.5599 9.7163 21.5869 9.77377 21.7038 9.81148C21.768 9.83243 21.8705 9.86535 21.946 9.81148C22.0318 9.74982 22.0468 9.60018 21.9946 9.52116C21.9676 9.48046 21.9382 9.48226 21.8981 9.42419C21.8837 9.40324 21.8273 9.32423 21.8495 9.27934C21.8855 9.20691 22.1337 9.20212 22.2854 9.32782C22.325 9.36074 22.3423 9.38948 22.4305 9.56965C22.6037 9.92221 22.6103 9.96052 22.6727 10.0048C22.7938 10.0898 22.9898 10.1012 23.1086 10.0048C23.2141 9.91922 23.2513 9.75401 23.2057 9.71451C23.1571 9.6732 23.051 9.7995 22.9149 9.76299C22.837 9.74204 22.7938 9.67919 22.7213 9.56965C22.5906 9.37331 22.6313 9.31884 22.5276 9.18297C22.4473 9.07761 22.3501 9.01417 22.2368 8.94114C22.0779 8.83818 21.9892 8.81843 21.9946 8.79628C22.0042 8.75618 22.2698 8.86332 22.6727 8.84477C22.7572 8.84058 22.8765 8.8298 22.9149 8.89325C22.9533 8.9561 22.8765 9.03512 22.9149 9.08659C22.9635 9.15184 23.1625 9.1273 23.2057 9.03811C23.2387 8.96987 23.1649 8.89445 23.2057 8.84477C23.2429 8.79868 23.3262 8.83699 23.3508 8.79628C23.3796 8.74899 23.2788 8.67537 23.3022 8.60294C23.3208 8.54607 23.3933 8.55805 23.4473 8.50657C23.5648 8.39463 23.5246 8.05165 23.3502 7.92654C23.2782 7.87506 23.2087 7.87806 23.108 7.78169C23.0486 7.72422 23.0534 7.70447 23.0108 7.68472C22.9011 7.63444 22.7944 7.73859 22.7201 7.68472C22.6823 7.65718 22.7015 7.62426 22.6715 7.58835C22.5618 7.45486 22.1301 7.70088 22.042 7.58835C21.9934 7.52609 22.0989 7.41535 22.042 7.34652C21.9898 7.28427 21.8789 7.34772 21.7032 7.29803C21.6109 7.27229 21.5593 7.23159 21.5096 7.20166C21.2092 7.0185 20.7685 7.08015 20.5899 7.10469C20.3453 7.13881 20.4214 7.17173 20.0575 7.24955C19.6744 7.33155 19.2541 7.42134 18.9921 7.24955C18.9687 7.23458 18.9009 7.1873 18.7984 7.15318C18.7157 7.12564 18.5466 7.06938 18.4597 7.15318C18.3955 7.21483 18.4081 7.32078 18.4111 7.34652C18.4219 7.4387 18.4765 7.50335 18.5082 7.53986C18.5874 7.63264 18.6443 7.63144 18.6533 7.68472C18.6659 7.75774 18.5748 7.83855 18.5082 7.87806C18.3554 7.96904 18.248 7.89183 18.1695 7.97443C18.0934 8.05464 18.1035 8.22045 18.1695 8.26474C18.2313 8.30545 18.3212 8.22643 18.3632 8.26474C18.4027 8.30066 18.3835 8.42576 18.3146 8.50657C18.1485 8.70111 17.8044 8.50717 17.6365 8.69991C17.5658 8.78132 17.5484 8.90582 17.5879 8.94174C17.6485 8.99621 17.8308 8.82801 17.9267 8.89325C17.9914 8.93695 17.9776 9.06026 17.9752 9.08659C17.9447 9.36972 17.5897 9.54152 17.3457 9.7151C16.8217 10.088 17.0945 10.2682 16.3775 11.0685C16.3775 11.0685 15.6754 11.852 15.7479 12.1322C15.7509 12.1441 15.7713 12.2142 15.7479 12.2285C15.721 12.2459 15.6448 12.1831 15.6028 12.1322C15.5009 12.0095 15.5129 11.8604 15.5057 11.7455C15.5009 11.6671 15.4895 11.6425 15.2635 11.117C14.9697 10.4328 14.9853 10.4663 14.9727 10.44C14.7755 10.0228 14.634 9.57623 14.3918 9.18297C14.3696 9.14705 14.3162 9.06445 14.3432 8.98962C14.3672 8.92438 14.4373 8.90642 14.4403 8.84477C14.4415 8.81843 14.4301 8.79568 14.3918 8.7478C14.3222 8.661 14.2659 8.6179 14.1981 8.55445C14.0956 8.45928 14.0446 8.4102 14.053 8.36111C14.0614 8.31023 14.1226 8.27851 14.1501 8.26474C14.2455 8.21566 14.3066 8.25636 14.3438 8.21626C14.3882 8.16837 14.3684 8.03908 14.2952 7.97443C14.1981 7.88883 14.0494 7.95647 14.0045 7.87806C13.9883 7.84873 13.9907 7.80922 14.0045 7.78169C14.0632 7.66137 14.3186 7.77869 14.5369 7.63683C14.5476 7.62965 14.6999 7.52729 14.7305 7.34652C14.7365 7.3124 14.7599 7.17293 14.6819 7.10469C14.5728 7.00952 14.3468 7.12624 14.2946 7.15318C14.1537 7.22561 14.0722 7.32377 14.0524 7.34652C13.6771 7.7751 12.3059 7.6075 12.261 7.34652C12.2538 7.30641 12.2814 7.28008 12.261 7.24955C12.1878 7.13941 11.7436 7.3537 11.68 7.24955C11.6614 7.21962 11.6956 7.19508 11.68 7.15318C11.6321 7.02089 11.2034 6.9748 11.0505 7.15318C10.9839 7.23099 11.0223 7.28905 10.9534 7.34652C10.8263 7.45247 10.6362 7.30222 10.5175 7.395C10.4102 7.4788 10.5151 7.64401 10.4204 7.7332C10.2501 7.89482 9.7237 7.53387 9.59719 7.68472C9.55522 7.7344 9.59599 7.79426 9.54863 7.82957C9.4545 7.89961 9.26864 7.68292 9.06419 7.7332C8.98086 7.75355 8.9305 7.80922 8.87054 7.87806C8.63372 8.14921 8.48803 8.62988 8.67689 8.98962C8.71106 9.05487 8.77581 9.17758 8.87054 9.18297C8.98865 9.18955 9.02462 9.00638 9.25785 8.84477C9.322 8.79987 9.46049 8.7065 9.64515 8.69991C9.84001 8.69273 10.0367 8.78431 10.0325 8.84477C10.0295 8.89325 9.89936 8.88367 9.69372 8.98962C9.55642 9.06026 9.41073 9.13568 9.35497 9.27994C9.29802 9.42719 9.38315 9.51937 9.30641 9.61813C9.24885 9.69236 9.15053 9.70433 9.06419 9.71451C8.76982 9.75042 8.60374 9.59599 8.5318 9.66602C8.47724 9.7187 8.51081 9.86415 8.58036 9.95633C8.73684 10.1634 9.09897 10.1293 9.30641 10.0527C9.37536 10.0276 9.50246 9.98088 9.59719 9.85936C9.70211 9.72468 9.64875 9.64926 9.74228 9.47268C9.75008 9.45831 9.91255 9.16082 10.1782 9.13448C10.2507 9.1273 10.3574 9.13747 10.3718 9.18297C10.3862 9.22786 10.3011 9.28173 10.1296 9.42479C9.78005 9.7163 9.78365 9.78574 9.79084 9.81148C9.80823 9.87612 9.90656 9.90066 9.93593 9.90785C10.1122 9.95214 10.2879 9.82405 10.3718 9.76299C10.5001 9.66961 10.5013 9.62173 10.5655 9.61813C10.7195 9.60975 10.8622 9.87792 10.9042 9.95633C10.9839 10.106 10.9666 10.1539 11.0493 10.2466C11.1152 10.3203 11.2513 10.4304 11.3401 10.3915C11.4546 10.3418 11.3886 10.0892 11.4852 10.0533C11.5721 10.021 11.7352 10.1844 11.8239 10.3436C11.9444 10.5591 11.8905 10.6986 12.0176 10.7788C12.1147 10.8404 12.2106 10.7985 12.2598 10.8758C12.2772 10.9033 12.2844 10.9392 12.2598 11.0691C12.237 11.1894 12.2208 11.275 12.1626 11.4073C12.0673 11.6276 11.9954 11.6605 12.0176 11.7455C12.0421 11.8425 12.1471 11.8484 12.1626 11.9388C12.168 11.9688 12.1614 11.9981 12.1489 12.0262C12.174 11.9969 12.2046 11.9742 12.2352 11.9628C12.3521 11.9191 12.4372 12.043 12.6465 12.1322C12.6902 12.1507 12.7346 12.1591 12.8198 12.1819C12.9744 12.2232 13.0146 12.2256 13.1063 12.2531C13.2286 12.2902 13.3192 12.3345 13.3486 12.3495C13.511 12.4327 13.6249 12.5344 13.6873 12.5913C13.8498 12.7385 13.8732 12.8104 13.9535 12.8086C14.0003 12.8074 13.9985 12.7834 14.1711 12.6877C14.2413 12.6488 14.2904 12.626 14.3648 12.5907C14.4913 12.5314 14.5237 12.5236 14.5428 12.5195C14.6172 12.5045 14.6574 12.5236 14.7281 12.5177C14.824 12.5099 14.9122 12.5045 15.0189 12.4692C15.3301 12.3668 15.3954 12.1699 15.5759 12.2034C15.6298 12.2136 15.7012 12.2441 15.721 12.2998C15.7677 12.4321 15.4991 12.6236 15.4787 12.638C15.3732 12.7122 15.2635 12.7535 15.14 12.7828C14.6921 12.89 14.4829 12.7397 14.2443 12.9037C14.2047 12.9307 14.1136 12.9953 14.0992 13.0971C14.0902 13.1587 14.1136 13.212 14.1477 13.2904C14.2071 13.4263 14.2461 13.4275 14.2689 13.5077C14.2952 13.5999 14.2814 13.731 14.1963 13.822C14.0956 13.9297 13.9511 13.9213 13.9055 13.9189C13.8642 13.9165 13.752 13.91 13.6633 13.822C13.5494 13.7094 13.5644 13.552 13.5662 13.5323C13.5818 13.3916 13.6729 13.3772 13.7113 13.2419C13.758 13.0797 13.6867 12.8942 13.5902 12.7828C13.4667 12.6398 13.2904 12.6057 13.0818 12.5655C12.9948 12.5488 12.957 12.5482 12.7172 12.5099C12.6591 12.5003 12.5901 12.4883 12.5008 12.4692C12.3335 12.4339 12.1752 12.3973 12.1135 12.2758C12.1069 12.2627 12.0835 12.2154 12.0895 12.1549C12.0919 12.1328 12.0973 12.1112 12.1063 12.0909C12.0757 12.1286 12.0397 12.1597 12.017 12.1789C11.6171 12.5183 11.4174 12.6883 11.2909 12.7589C10.9066 12.9738 10.6404 13.1815 10.129 13.5807C9.8496 13.7986 9.50666 13.9201 9.20928 14.1123C9.18171 14.1302 9.09957 14.1841 9.01563 14.1608C8.96407 14.1464 8.93469 14.1093 8.87054 14.0159C8.73804 13.825 8.67209 13.728 8.67689 13.6777C8.68468 13.5933 8.74763 13.5406 8.87054 13.4359C9.0564 13.2785 9.13494 13.2958 9.20928 13.1941C9.30701 13.0618 9.27883 12.8882 9.25785 12.7589C9.20629 12.4404 9.03602 12.2202 8.96707 12.1304C8.49702 11.5192 8.262 11.214 8.09533 10.9703C7.88609 10.6639 7.64147 10.3789 7.46581 10.0521C7.40825 9.94496 7.27875 9.69355 7.17502 9.71391C7.12586 9.72348 7.08929 9.79352 7.02993 9.90725C6.95919 10.0425 6.96099 10.0946 6.93281 10.1006C6.85906 10.1156 6.78352 9.7588 6.59407 9.4236C6.27451 8.85734 5.96514 8.94353 5.72233 8.4084C5.60721 8.154 5.61021 7.9876 5.43155 7.87686C5.26307 7.77151 5.00167 7.76014 4.89915 7.87686C4.81042 7.97802 4.87577 8.13425 4.80202 8.16657C4.72528 8.2001 4.59338 8.05763 4.55981 8.02172C4.41292 7.86309 4.38414 7.72602 4.31759 7.58655C4.14912 7.23339 3.95966 7.32856 3.68807 6.90955C3.55796 6.70903 3.55377 6.61326 3.39729 6.47438C3.31755 6.40375 3.19404 6.29421 3.00998 6.28104C2.78935 6.26548 2.57171 6.39537 2.47758 6.57136C2.44401 6.63301 2.44401 6.66713 2.42902 6.95804C2.39904 7.53986 2.38945 7.58356 2.42902 7.68292C2.46919 7.78528 2.48238 7.74697 2.67124 8.0696C2.82472 8.33238 2.83551 8.39044 2.81633 8.4078C2.78995 8.43234 2.70481 8.38027 2.67124 8.35932C2.49857 8.25337 2.43861 8.13006 2.28393 7.92415C2.13644 7.72781 2.0603 7.62905 1.94518 7.58595C1.9218 7.57697 1.76712 7.5219 1.60644 7.58595C1.3954 7.67035 1.32106 7.9008 1.2677 8.0696C1.19695 8.29048 1.21074 8.48203 1.21913 8.60114C1.22873 8.73762 1.23352 8.80586 1.2677 8.89146C1.30907 8.99621 1.36782 9.06684 1.41279 9.22966C1.43197 9.29969 1.43917 9.35177 1.41279 9.37451C1.38701 9.39666 1.34024 9.38169 1.31626 9.37451C1.24252 9.35177 1.20475 9.30627 1.17117 9.27814C1.06385 9.18716 0.878592 9.1668 0.783864 9.22966C0.72271 9.27036 0.704125 9.34219 0.686738 9.423C0.578819 9.93837 0.63098 10.3783 0.638174 10.4382C0.65676 10.5884 0.666353 10.6633 0.686738 10.7285C0.787461 11.0529 1.02128 11.2666 1.12261 11.357C1.33305 11.5444 1.47634 11.5857 1.46135 11.6473C1.44756 11.7048 1.31206 11.712 0.928954 11.7437C0.317417 11.7946 0.229284 11.8125 0.154341 11.8886C0.00265562 12.043 0.0362302 12.3028 0.0572143 12.4686C0.0704043 12.5727 0.117768 12.9373 0.395958 13.1456C0.608797 13.3042 0.78926 13.2461 1.07404 13.4838C1.16218 13.5574 1.22933 13.6155 1.21913 13.6771C1.19515 13.8226 0.786862 13.734 0.444521 13.9668C0.130958 14.1811 -0.0417108 14.6073 0.00865109 14.982C0.027237 15.1203 0.0458229 15.2586 0.153741 15.3687C0.456512 15.6782 1.06625 15.3639 1.2671 15.6584C1.31746 15.732 1.33005 15.826 1.31566 15.9002C1.2659 16.1528 0.906172 16.1385 0.686138 16.4318C0.539849 16.6275 0.462507 16.9502 0.589012 17.1567C0.758683 17.4326 1.2629 17.4536 1.41219 17.447C1.44756 17.4452 1.49133 17.441 1.55728 17.447C1.77312 17.4673 1.82288 17.5631 1.94459 17.5434C2.08428 17.5206 2.14184 17.374 2.1868 17.3985C2.22997 17.4218 2.1934 17.5667 2.1868 17.5918C2.15023 17.7349 2.08188 17.8169 2.04171 17.8822C1.96557 18.0049 1.95897 18.1252 1.94459 18.3658C1.9188 18.8111 1.89662 19.1948 2.13824 19.381C2.39484 19.5791 2.81033 19.4468 2.86429 19.4295C3.19764 19.3229 3.34992 19.0805 3.44525 19.1392C3.51899 19.1847 3.43326 19.3331 3.49381 19.6228C3.51 19.7006 3.55017 19.8832 3.68747 20.058C3.74023 20.125 3.86673 20.2861 4.07477 20.3483C4.35896 20.4333 4.64014 20.2878 4.89795 20.155C5.20791 19.9945 5.20252 19.9095 5.33382 19.9131C5.65398 19.9227 5.7487 20.4357 6.10843 20.4447C6.22055 20.4477 6.30568 20.3998 6.39921 20.3483C6.48315 20.3016 6.66781 20.1795 6.83508 19.8168C7.05811 19.3337 6.99936 18.968 7.12586 18.9464C7.214 18.9315 7.24757 19.1092 7.46461 19.1883C7.48679 19.1966 7.67145 19.2607 7.85191 19.1883C8.12531 19.0787 8.12231 18.7633 8.28778 18.7531C8.43347 18.7441 8.45745 18.9895 8.72365 19.0913C8.87774 19.1505 9.10257 19.1571 9.20809 19.0428C9.32979 18.9111 9.23866 18.6783 9.30461 18.6561C9.37476 18.6328 9.44671 18.9039 9.64336 18.9464C9.80044 18.9799 9.95932 18.8507 10.0792 18.7531C10.322 18.555 10.3958 18.3425 10.4665 18.3664C10.5151 18.3826 10.5205 18.4975 10.5151 18.5597C10.5091 18.6304 10.4797 18.7429 10.3214 18.8979C10.069 19.1446 9.8556 19.141 9.83701 19.2846C9.82742 19.3589 9.87418 19.4427 9.93414 19.478C10.0427 19.5426 10.1542 19.4241 10.2729 19.478C10.373 19.5235 10.4216 19.6659 10.418 19.7683C10.4072 20.0628 9.95512 20.2436 9.93354 20.2519C9.38255 20.465 9.13254 20.0089 8.57796 20.2034C8.30877 20.298 8.1277 20.4902 7.85191 20.7835C7.76498 20.8763 7.71881 20.9397 7.70682 21.0253C7.68164 21.2013 7.81714 21.3384 7.75539 21.412C7.72001 21.4539 7.66965 21.4168 7.6103 21.4605C7.51317 21.5317 7.52216 21.7209 7.56173 21.8472C7.5995 21.9669 7.64807 21.977 7.70682 22.089C7.77337 22.2159 7.84652 22.4625 7.75539 22.6205C7.61929 22.8564 7.208 22.742 7.12586 22.9587C7.09529 23.0389 7.11867 23.1425 7.17443 23.2005C7.31952 23.3508 7.67984 23.1832 7.70682 23.249C7.72121 23.2843 7.62049 23.3442 7.51317 23.4424C7.29553 23.6411 7.11207 23.9404 7.17443 24.0224C7.24877 24.12 7.65766 23.8919 7.70682 23.9739C7.74519 24.0374 7.52696 24.2151 7.56173 24.2642C7.6091 24.3307 8.02638 24.0332 8.19126 24.1673C8.21704 24.1882 8.24402 24.2265 8.23982 24.2642C8.23023 24.3414 8.09293 24.3839 7.9976 24.4091C7.52216 24.5348 7.0779 24.5055 7.0779 24.5055C6.70138 24.4809 6.58927 24.4217 6.39981 24.5055C6.33386 24.5348 6.27391 24.5743 6.1576 24.6024C6.05627 24.6264 5.90399 24.6629 5.77029 24.6024C5.64319 24.545 5.65398 24.4552 5.43155 24.1673C5.31943 24.0224 5.26187 23.9494 5.18933 23.9254C5.08141 23.8901 4.9633 23.92 4.75346 23.9739C4.61137 24.0104 4.60417 24.0254 4.55981 24.0224C4.34217 24.0068 4.20308 23.6213 4.1725 23.5387C3.9009 22.8079 3.3727 22.1991 3.01058 21.5084C2.19639 19.9562 2.1874 20.2867 1.94518 19.6234C1.74554 19.0763 1.64901 18.5693 1.17057 18.2215C1.06865 18.1473 0.771873 17.9312 0.492485 18.0282C0.213696 18.1252 0.114171 18.4783 0.105178 18.5119C-0.025523 19.0009 0.382768 19.393 1.36422 20.7356C1.76472 21.2827 2.07349 21.7334 2.28393 22.0405C3.23001 23.4208 3.03756 23.2664 3.2522 23.4909C3.507 23.7566 3.87213 24.0727 3.78459 24.3127C3.73663 24.445 3.58195 24.4665 3.54238 24.6509C3.5142 24.7844 3.55976 24.9346 3.6389 25.0376C3.75402 25.1866 3.87572 25.1531 3.92968 25.2794C3.99024 25.4219 3.86373 25.5344 3.92968 25.6176C4.00942 25.7182 4.23305 25.6027 4.31699 25.7146C4.36555 25.7786 4.31279 25.8451 4.36555 25.9079C4.42131 25.975 4.52143 25.9486 4.65633 25.9564C4.82061 25.966 5.11618 26.0318 5.18873 26.1982C5.25348 26.3467 5.10239 26.4868 5.18873 26.5849C5.21211 26.6119 5.28526 26.6352 5.43095 26.6813C5.55325 26.7202 5.55445 26.7136 5.57604 26.7298C5.60721 26.7525 5.66177 26.81 5.67316 27.1165C5.68036 27.311 5.65997 27.332 5.67316 27.4547C5.69055 27.6127 5.73671 27.6893 5.77029 27.7929C5.90159 28.2041 5.6222 28.416 5.77029 28.6632C5.86921 28.8272 6.10663 28.923 6.25472 28.8565C6.38183 28.7991 6.4166 28.6333 6.44838 28.4699C6.5485 27.9545 6.43159 27.2913 6.20616 27.0195C6.17918 26.9872 6.08865 26.8854 6.06107 26.7292C6.04668 26.6478 6.05507 26.5849 6.06107 26.5358C6.10963 26.1587 6.13361 25.9702 6.10963 25.9073C6.0179 25.6721 5.66297 25.6733 5.67376 25.5691C5.68216 25.4871 5.90759 25.4069 6.10963 25.4243C6.2835 25.4386 6.40341 25.5224 6.44838 25.4728C6.49214 25.4249 6.40941 25.3153 6.44838 25.2794C6.50653 25.2261 6.71997 25.4422 6.83568 25.3758C6.90643 25.3351 6.86326 25.2333 6.93281 25.1824C7.06831 25.0831 7.38547 25.3584 7.46521 25.2794C7.50717 25.2381 7.43163 25.1519 7.46521 25.0861C7.53176 24.955 7.95204 25.0502 8.38491 25.1346C9.34598 25.3213 9.60558 25.3034 9.83761 25.2309C9.9797 25.1866 10.2519 25.1022 10.322 24.8927C10.3928 24.6802 10.2237 24.4336 10.322 24.3612C10.352 24.339 10.3904 24.3462 10.4671 24.3612C10.6908 24.4049 10.7837 24.5426 10.8544 24.5061C10.8964 24.4845 10.9096 24.4127 10.903 24.3612C10.882 24.2032 10.6626 24.1936 10.6122 24.023C10.5906 23.9488 10.599 23.8398 10.6608 23.7812C10.7669 23.6812 10.93 23.8237 11.2417 23.7812C11.3371 23.768 11.5421 23.7405 11.6291 23.5878C11.6812 23.4968 11.692 23.3598 11.6291 23.2975C11.5823 23.252 11.5307 23.2808 11.3868 23.249C11.3359 23.2377 11.231 23.2143 11.1446 23.1527C11.0151 23.0593 10.9767 22.912 10.951 22.8145C10.9342 22.7498 10.897 22.5774 10.951 22.3793C11.0217 22.1195 11.2064 21.977 11.4354 21.7993C11.7028 21.5922 11.9294 21.4162 12.2586 21.4126C12.4918 21.4102 12.6651 21.4952 12.791 21.5574C12.9493 21.6353 13.2268 21.8076 13.4205 22.1375C13.5212 22.3093 13.7353 22.6744 13.6142 23.0078C13.4679 23.4095 12.9972 23.3167 12.6944 23.8297C12.5428 24.0858 12.4672 24.436 12.5973 24.5545C12.7142 24.6611 12.9487 24.5348 12.9846 24.603C13.038 24.7042 12.5571 25.0573 12.4522 25.1346C11.9594 25.4967 11.5589 25.6894 11.3389 25.9079C11.0547 26.1899 11.0481 26.1976 11.0481 26.1982C11.0283 26.2228 11.0001 26.2587 10.951 26.2946C10.8496 26.37 10.7489 26.382 10.7087 26.391C10.412 26.4574 10.3862 27.0387 10.1278 27.068C10.0522 27.0764 9.9857 27.0345 9.88557 26.971C9.75607 26.8896 9.68053 26.7825 9.64336 26.7292C9.52525 26.5592 9.53004 26.458 9.4497 26.4389C9.36037 26.4179 9.26864 26.5215 9.25605 26.5352C9.20629 26.5909 9.17871 26.6591 9.15892 26.9219C9.14034 27.1685 9.13134 27.2919 9.15892 27.4535C9.19909 27.6863 9.25245 27.666 9.25605 27.7917C9.26204 28.0395 9.0522 28.1191 8.77162 28.565C8.64451 28.7674 8.56357 28.899 8.5294 29.0966C8.50062 29.2648 8.5264 29.4019 8.57796 29.6766C8.62293 29.9148 8.67149 30.1632 8.82018 30.45C8.91431 30.6313 8.97486 30.7445 9.11096 30.8366C9.23327 30.9199 9.49047 31.0354 9.64336 30.9336C9.78485 30.839 9.70571 30.6475 9.83701 30.1603C9.8472 30.1231 9.95812 29.7155 10.0307 29.7251C10.0774 29.7311 10.0522 29.9029 10.1272 30.1118C10.2321 30.4033 10.4605 30.5691 10.5631 30.6433C10.5984 30.669 11.15 31.0623 11.3862 30.8851C11.6165 30.7121 11.3778 30.1231 11.5313 30.0633C11.5679 30.0495 11.6201 30.0669 11.8701 30.3051C12.2628 30.6786 12.2208 30.7169 12.3545 30.7888C12.541 30.8887 12.5721 30.7864 13.2262 30.8372C13.5086 30.8588 13.5782 30.8839 13.7107 30.8372C13.9679 30.7469 14.0992 30.5158 14.1465 30.5475C14.1789 30.5691 14.1154 30.6774 14.098 30.8372C14.0752 31.0533 14.1525 31.2257 14.1951 31.3209C14.3858 31.7465 14.8942 32.0272 15.357 31.9979C15.3702 31.9973 15.3984 31.9949 15.4368 31.9895C15.429 31.9841 15.426 31.9775 15.4296 31.974C15.4218 31.3215 15.4134 30.669 15.4056 30.0166L15.4542 28.228L15.5027 24.603V22.3314C15.5027 22.3314 15.5921 19.8329 15.5998 19.6246C15.646 18.3113 15.6976 16.2444 15.721 12.9301C15.7287 12.8415 15.7371 12.7529 15.7449 12.6643C16.0273 12.8654 16.3097 13.0672 16.5921 13.2683C16.6646 13.2922 16.7372 13.3168 16.8097 13.3407L16.8583 15.0808V16.8209L16.7612 17.1112L16.7126 19.0446C16.7126 19.0446 16.7126 20.1083 16.7126 20.1562C16.7126 20.2046 16.6155 23.2011 16.6155 23.2011V25.5697V27.5516C16.6155 28.5507 16.6155 29.5497 16.6155 30.5487C16.6041 30.6547 16.5825 30.7774 16.5429 30.9115C16.5297 30.957 16.5148 30.9995 16.4998 31.0414C16.5279 30.9887 16.5597 30.9528 16.6155 30.936C16.7378 30.8995 16.8055 31.0049 17.0028 31.0809C17.278 31.1874 17.6161 31.1635 17.8913 31.0539C17.7732 31.006 17.724 30.514 17.9711 28.7123C17.9633 27.3667 17.9549 26.0217 17.9471 24.6761C17.9573 24.682 17.9657 24.688 17.974 24.6946C17.9716 24.6808 17.9699 24.6665 17.9711 24.6521C17.9717 24.6431 17.9752 24.6072 17.995 24.5791C18.0274 24.2732 18.0598 23.9673 18.0916 23.6615C18.1323 23.6902 18.1659 23.7153 18.1947 23.7369C18.0808 23.6321 17.8859 23.4813 17.5352 23.2502C17.0687 22.9438 16.9962 22.9366 16.9542 22.8151C16.8259 22.4457 17.3092 21.9735 17.4866 21.7999C17.6455 21.6442 17.7882 21.5054 17.9465 21.4287C17.9543 18.7812 17.9627 16.1337 17.9705 13.4862C18.4417 13.4227 18.6587 13.3377 18.769 13.2689C18.7834 13.2599 18.8704 13.2048 18.9933 13.133C19.1432 13.0456 19.2181 13.0019 19.2289 13.0025C19.3476 13.0109 19.3698 14.8982 19.1078 21.3886C19.0604 21.5461 19.0131 21.7035 18.9657 21.8609C19.0023 21.8879 19.0412 21.9154 19.0832 21.9447C19.5239 22.2512 19.7421 22.3314 19.8578 22.6217C19.8956 22.7157 19.9514 22.8558 19.9064 23.0084C19.8542 23.1874 19.7097 23.2287 19.4705 23.5399C19.3932 23.6405 19.2877 23.78 19.3254 23.8297C19.3734 23.8937 19.6018 23.7375 19.7127 23.8297C19.7625 23.871 19.7613 23.9398 19.7613 24.0715C19.7613 24.6497 19.7865 24.691 19.8099 24.7C19.8584 24.7185 19.9184 24.6 20.1486 24.4097C20.2649 24.3133 20.3303 24.2606 20.3746 24.2618C20.3423 24.1852 20.3267 24.0996 20.2937 24.023C20.0731 23.5076 20.2451 22.2344 20.2451 22.2344C20.2451 22.186 20.3417 20.301 20.3417 20.2525C20.3656 20.1801 20.3896 20.1083 20.4142 20.0358C20.3578 20.0185 20.3015 19.9951 20.2451 19.9628C20.199 19.9359 20.0809 19.8623 20.0029 19.721C19.952 19.6288 19.886 19.4498 19.9543 19.3828C20.0407 19.2984 20.2601 19.4672 20.3417 19.3828C20.3968 19.3253 20.359 19.1799 20.2931 19.0925C20.2391 19.0213 20.1996 19.032 20.0994 18.9476C19.9957 18.8602 19.9418 18.7675 19.9058 18.7058C19.8734 18.6501 19.7463 18.4316 19.8087 18.3676C19.8356 18.3401 19.8872 18.3514 19.9537 18.3676C20.112 18.4053 20.2295 18.4346 20.3201 18.455L20.3165 18.4532C20.3165 18.4532 20.3417 14.0177 20.3417 13.9213C20.3506 13.877 20.3692 13.819 20.4142 13.8004C20.4274 13.795 20.44 13.7944 20.4532 13.7968C20.422 13.7753 20.3854 13.7525 20.3417 13.728C20.2391 13.6705 20.1414 13.628 20.148 13.5831C20.1528 13.552 20.2062 13.5269 20.2931 13.4868C20.362 13.4544 20.3746 13.458 20.3902 13.4383C20.4334 13.3832 20.404 13.2659 20.3417 13.1965C20.2673 13.1139 20.181 13.1396 20.0509 13.0995C19.8914 13.051 19.7667 12.89 19.5185 12.5679C19.3992 12.4129 19.3434 12.3207 19.3734 12.2776C19.4058 12.2321 19.5065 12.286 19.567 12.2291C19.6276 12.1723 19.6132 12.0358 19.567 11.9388C19.4837 11.7646 19.3194 11.764 19.2763 11.6006C19.2679 11.5689 19.2709 11.5312 19.2763 11.4558C19.2895 11.2786 19.3242 11.1601 19.3734 10.9721C19.3866 10.9212 19.4148 10.8093 19.4705 10.5854C19.5401 10.3053 19.5628 10.2059 19.6156 10.1988C19.687 10.1892 19.7355 10.3562 19.8093 10.3436C19.8692 10.3334 19.8584 10.2203 19.9543 10.1018C20.0503 9.98387 20.2044 9.92042 20.2451 9.95693C20.2829 9.99045 20.202 10.0916 20.2451 10.1503C20.2883 10.2089 20.431 10.1904 20.5359 10.1503C20.8645 10.0246 20.8459 9.67859 21.1169 9.61873C21.2182 9.59718 21.3519 9.61095 21.4616 9.66662ZM6.08925 27.5756C6.12342 27.7875 6.21036 27.7887 6.25892 27.9862C6.30628 28.1795 6.29249 28.4621 6.16179 28.5177C6.10064 28.5441 6.0143 28.5201 5.96814 28.4693C5.89739 28.3914 5.96574 28.2987 5.94416 28.0586C5.93097 27.9144 5.90399 27.9204 5.89559 27.7683C5.8854 27.5792 5.92557 27.5367 5.91958 27.4541C5.91898 27.4493 5.91778 27.4331 5.92737 27.4205C5.94476 27.3966 5.99032 27.3954 6.0161 27.4056C6.07186 27.4283 6.08025 27.5205 6.08925 27.5756ZM5.87161 27.1165C5.90399 27.074 5.98493 27.0734 6.0167 27.1165C6.03769 27.1452 6.03229 27.1859 6.0167 27.2128C5.99752 27.2464 5.95615 27.2709 5.91958 27.2613C5.86622 27.247 5.83624 27.162 5.87161 27.1165ZM11.0277 14.2344C10.4611 14.5876 9.90296 14.9174 9.35737 15.225L8.97007 14.5002C8.97007 14.5002 9.01863 14.4038 9.01863 14.3553C9.01863 14.3068 10.4228 13.6304 10.4228 13.5819C10.4228 13.309 11.0205 13.2713 11.391 12.9049C11.4726 12.9397 11.6219 13.0157 11.7544 13.1707C11.9084 13.3515 11.9558 13.5412 11.972 13.6298C11.6656 13.8321 11.3509 14.0333 11.0277 14.2344ZM14.1022 18.2221C13.9949 18.3293 13.8552 18.3215 13.8114 18.3185C13.7658 18.3161 13.6489 18.3095 13.5692 18.2221C13.4667 18.1096 13.4739 17.9139 13.5692 17.787C13.6807 17.6385 13.9055 17.5942 14.0536 17.69C14.1759 17.769 14.1963 17.9121 14.1987 17.9318C14.2017 17.951 14.2185 18.1066 14.1022 18.2221ZM14.1507 16.0475C14.0248 16.1211 13.8636 16.0828 13.7634 15.999C13.6321 15.8895 13.6004 15.6973 13.6669 15.5638C13.7071 15.4824 13.7748 15.4411 13.812 15.419C13.8492 15.3962 14.0134 15.2969 14.1507 15.3705C14.2754 15.4375 14.2904 15.601 14.2958 15.6602C14.3006 15.7117 14.3222 15.9469 14.1507 16.0475ZM20.6558 27.2853C20.6582 27.2853 20.66 27.2853 20.6624 27.2853C20.6624 27.2811 20.6618 27.2763 20.6618 27.2709C20.66 27.2757 20.6582 27.2805 20.6558 27.2853ZM21.3165 28.5662C21.3063 28.5513 21.2967 28.5375 21.2871 28.5237C21.2907 28.5351 21.2925 28.5417 21.2925 28.5417C21.3603 28.7919 21.3651 28.9044 21.3651 28.9044C21.3933 29.5365 21.2134 30.177 21.2686 30.6445C21.2733 30.684 21.2859 30.7822 21.2488 30.8953C21.3927 30.6996 21.4844 30.5685 21.5587 30.3542C21.7248 29.8771 21.6427 29.4587 21.6073 29.2905C21.5749 29.1385 21.5132 28.8583 21.3165 28.5662ZM21.2919 18.6058C21.3315 18.6094 21.3591 18.6088 21.3645 18.6088C21.4005 18.6082 21.681 18.6016 21.8004 18.4155C21.9257 18.2197 21.7902 17.9546 21.8489 17.9318C21.9005 17.9121 21.9664 18.1324 22.1877 18.27C22.2056 18.2814 22.3292 18.3556 22.4928 18.3772C22.4551 18.3197 22.4742 18.2371 22.4778 18.2215L22.5264 11.9376C22.5228 11.8862 22.5096 11.6048 22.6949 11.3857C22.4245 11.5863 22.1691 11.8484 21.8004 12.2274C21.7074 12.3231 21.5479 12.4949 21.5581 12.711C21.5641 12.8379 21.6277 12.9516 21.6553 13.0013C21.7158 13.1109 21.7584 13.13 21.8975 13.2916C22.0408 13.458 22.1127 13.5412 22.1397 13.6298C22.2038 13.8399 22.1097 14.0291 22.0911 14.065C22.0612 14.1231 21.9934 14.253 21.8489 14.3068C21.75 14.3439 21.6637 14.3272 21.5581 14.3068C21.4053 14.2775 21.3543 14.2302 21.1708 14.162C21.1696 14.1614 21.1678 14.1608 21.1666 14.1602C21.1762 14.168 21.1852 14.1763 21.1948 14.1859C21.2668 14.2589 21.2997 14.3439 21.3159 14.4032L21.2919 18.6058Z" fill="white"/>
</svg>
