<svg width="46" height="62" viewBox="0 0 46 62" fill="none" xmlns="http://www.w3.org/2000/svg">
<g filter="url(#filter0_d)">
<path d="M13.236 43.8612C13.8322 44.0406 14.3853 44.2201 14.8982 44.398C19.3446 45.94 21.7738 50.0575 23.0857 54.5771C24.3635 50.1046 26.8549 45.8452 31.2555 44.3383C31.7174 44.1802 32.2122 44.0208 32.7422 43.8612C42.505 40.9079 43 33.0238 43 31.4736V0H3V31.476C3 33.0263 3.49261 40.9104 13.236 43.8612Z" fill="#1F870E"/>
</g>
<path d="M26.4363 36.5996C26.4453 36.587 26.4543 36.5751 26.4633 36.5637L26.4627 36.5631C26.4543 36.5745 26.4459 36.5864 26.4363 36.5996ZM26.0964 30.8688C26.1065 30.882 26.1191 30.8909 26.1323 30.8981C26.1197 30.8885 26.1077 30.8778 26.0952 30.867C26.0958 30.8676 26.0964 30.8682 26.0964 30.8688ZM38.2743 18.0412C38.2833 18.0466 38.2911 18.052 38.2977 18.0597C38.3265 18.0921 38.3097 18.1172 38.3463 18.2046C38.3637 18.2465 38.3817 18.2794 38.3948 18.301C38.3565 18.6972 38.3721 18.8822 38.3948 18.978C38.3972 18.987 38.4188 19.0767 38.4188 19.1953C38.4188 19.2809 38.4188 19.3234 38.3948 19.3647C38.3936 19.3665 38.393 19.3671 38.3918 19.3688C38.5489 19.2635 38.6886 19.1522 38.8061 19.0025C38.9075 18.8738 39.0052 18.7463 38.9998 18.5673C38.9956 18.4309 38.9326 18.271 38.8061 18.1807C38.745 18.137 38.6688 18.1196 38.5154 18.0843C38.4164 18.0609 38.3271 18.0478 38.2743 18.0412ZM32.8508 21.8057L32.9959 21.2256L32.8994 19.0989L32.948 17.8419C32.9402 17.1924 32.9318 16.5429 32.924 15.8935C32.9162 15.8989 32.9084 15.9037 32.8994 15.9084C32.7999 15.9647 32.7399 15.933 32.6572 15.9569C32.433 16.021 32.4773 16.364 32.2699 16.4406C32.0936 16.5052 31.9114 16.3149 31.834 16.3921C31.7854 16.4412 31.8466 16.5298 31.834 16.6339C31.8268 16.6962 31.7938 16.7507 31.7471 16.7985C31.7525 16.7991 31.7579 16.8003 31.7615 16.8033C31.7711 16.8117 31.789 16.844 31.6889 17.0206L31.7375 17.3588L31.6404 17.697V18.7607V24.2712C31.6326 24.4245 31.6242 24.5771 31.6164 24.7303C31.602 24.7537 31.5822 24.7824 31.5678 24.7788C31.548 24.7734 31.5534 24.7076 31.5438 24.7064C31.53 24.7052 31.5204 24.8303 31.4869 24.8662C31.65 24.9602 31.8748 24.9817 32.0283 24.8997C32.1871 24.8147 32.2153 24.6495 32.319 24.6579C32.397 24.6645 32.4449 24.7633 32.5127 24.8997C32.7573 25.3942 32.7291 25.299 32.8035 25.4798C32.8143 25.5067 32.8251 25.5324 32.8359 25.5582C32.8341 25.5079 32.8383 25.4498 32.852 25.3834C32.8508 24.1904 32.8508 22.998 32.8508 21.8057ZM33.8809 14.919C33.8845 14.919 33.8881 14.9178 33.8917 14.9178C33.9834 14.9184 34.0475 15.0166 34.0613 15.0387L34.1099 21.0323V23.5457L34.0613 25.5761C34.0433 25.6575 34.026 25.739 34.008 25.8204C34.0098 25.8198 34.011 25.818 34.0128 25.8174C34.0883 25.7904 34.1345 25.9155 34.3515 26.0107C34.4109 26.0364 34.6381 26.1328 34.8839 26.0592C34.9409 26.0418 35.0434 26.0101 35.1261 25.9143C35.1495 25.8868 35.2077 25.8198 35.2226 25.721C35.2418 25.5983 35.1801 25.5324 35.2226 25.4792C35.2616 25.4307 35.3252 25.4708 35.3677 25.4307C35.4715 25.3337 35.2346 24.965 35.3192 24.8991C35.3593 24.868 35.4385 24.9297 35.4643 24.8991C35.499 24.8578 35.3755 24.722 35.3623 24.6447C35.3557 24.6412 35.3491 24.6376 35.3432 24.6334C35.2736 24.5825 35.2718 24.4807 35.2706 24.4161C35.264 24.0982 35.267 23.8049 35.2706 23.5942V22.9172V21.2735V20.162V19.4371V17.5522V14.1684C35.2574 14.09 35.2526 14.0301 35.2538 13.9846C35.231 14.0014 35.2047 14.0151 35.1735 14.0235C35.0854 14.0475 35.0812 14.0002 34.9798 14.0235C34.7958 14.066 34.7856 14.2264 34.544 14.4587C34.4223 14.5754 34.2999 14.6556 34.1567 14.7484C34.0056 14.8472 34.0026 14.8328 33.9144 14.8933C33.903 14.9022 33.8923 14.9106 33.8809 14.919ZM26.4273 30.0499C26.4303 30.0643 26.4333 30.0793 26.4351 30.0954C26.4513 30.208 26.4675 30.3211 26.4837 30.4336C26.4849 30.4899 26.4789 30.6 26.4027 30.6635C26.3979 30.6677 26.3925 30.6719 26.3865 30.6755C26.3775 30.6755 26.356 30.6665 26.3302 30.6539C26.4261 30.7185 26.5094 30.7808 26.5556 30.7479C26.582 30.7287 26.5916 30.6814 26.5556 30.5061C26.5202 30.3313 26.4909 30.1906 26.4273 30.0499ZM12.8062 11.8968C12.9357 11.8561 12.9399 11.7663 13.0484 11.7519C13.1588 11.7369 13.2883 11.7998 13.3392 11.8968C13.3818 11.9782 13.3356 12.0219 13.3392 12.1871C13.3404 12.2308 13.347 12.399 13.4363 12.5737C13.4633 12.627 13.5323 12.7587 13.6786 12.8635C13.8524 12.9886 14.0287 12.9999 14.163 13.0083C14.3081 13.0179 14.6222 13.0131 14.6474 12.9113C14.6654 12.8389 14.5167 12.7958 14.4052 12.6216C14.2913 12.4427 14.2793 12.2242 14.3081 12.0901C14.3884 11.722 15.181 11.5238 15.2278 11.5101C15.2608 11.5005 15.3393 11.4789 15.3729 11.4131C15.4124 11.3359 15.3711 11.2335 15.3243 11.1234C15.2662 10.9851 15.2368 10.9881 15.2272 10.93C15.202 10.7726 15.3915 10.5883 15.5659 10.4949C15.8177 10.3602 15.8969 10.4895 16.1955 10.35C16.3735 10.2668 16.4652 10.1651 16.5828 10.2052C16.6745 10.2363 16.7195 10.3315 16.7278 10.35C16.777 10.4542 16.738 10.5272 16.7278 10.6882C16.7207 10.8019 16.7392 10.9091 16.7764 11.1234C16.8136 11.3365 16.8316 11.443 16.8735 11.5101C16.9509 11.6358 17.0714 11.692 17.3094 11.7998C17.4389 11.8584 17.6254 11.9416 17.8904 11.9931C18.057 12.0254 18.2579 12.0644 18.5199 12.0416C18.7255 12.0237 18.8586 11.977 18.9072 12.0416C18.915 12.0524 18.9252 12.0757 18.8586 12.2834C18.8131 12.4259 18.7897 12.4977 18.7615 12.5253C18.6746 12.6097 18.5906 12.5486 18.4228 12.6216C18.3286 12.6629 18.2225 12.5678 18.2291 12.6701C18.2357 12.7731 18.3376 12.8689 18.2777 12.9119C18.0852 13.0502 18.8101 13.0568 19.2945 13.0089C19.4366 12.9946 19.18 12.9119 19.5367 12.9119C19.8755 12.9119 20.4055 12.9119 20.8437 12.9119C20.9888 12.9119 21.2652 12.9886 21.3282 12.8635C21.3767 12.7671 21.3527 12.5899 21.3767 12.6216C21.3881 12.6372 21.2718 12.4846 21.3282 12.4283C21.3719 12.3852 21.5758 12.5384 21.6669 12.3313C21.6843 12.2918 21.7778 12.3613 21.812 12.3798C21.8558 12.4038 21.9835 12.3738 22.0057 12.2834C22.029 12.1865 22.0051 12.1476 22.0057 12.0901C22.0081 11.944 22.0386 11.9045 22.1028 11.8483C22.2659 11.704 22.568 11.7028 22.9745 11.4131C23.2695 11.203 23.5093 11.0528 23.8463 10.6882C23.9908 10.532 24.1143 10.3979 24.2336 10.2046C24.3133 10.0753 24.4026 9.95136 24.4758 9.81788C24.5219 9.73348 24.5345 9.70355 24.5729 9.67302C24.7384 9.54014 25.0424 9.66644 25.0573 9.67302C25.3703 9.8077 25.1988 10.2351 25.6383 10.6882C25.8158 10.8708 26.1227 11.4131 26.6066 11.7998C26.8524 11.9961 27.1803 11.965 27.2361 12.1865C27.3332 12.5732 27.2361 12.718 27.3332 12.815C27.4351 12.9167 27.5167 12.909 28.1078 12.8635C28.5905 12.8264 28.5923 12.815 29.1247 12.815C29.5389 12.815 29.5252 12.7635 29.7056 12.7665C30.0432 12.7725 30.1415 12.6695 30.3837 12.718C30.4431 12.73 30.6187 12.6869 30.771 12.5247C30.8981 12.3894 30.9922 12.2517 31.0618 12.041C31.1379 11.8112 31.1271 11.6962 31.1104 11.5574C31.0792 11.3036 30.9191 11.2222 30.9653 11.0258C30.9827 10.951 31.033 10.8462 31.1104 10.8325C31.1961 10.8169 31.259 10.9229 31.4011 11.0743C31.7075 11.4011 31.8916 11.4179 31.8856 11.558C31.8808 11.6723 31.7579 11.6771 31.6434 11.8962C31.6116 11.9572 31.5966 12.0793 31.5948 12.2344C31.5924 12.4882 31.7399 12.718 31.9335 12.8629C32.0271 12.9329 32.093 12.8886 32.1758 12.9598C32.3118 13.0766 32.3196 13.2657 32.3208 13.298C32.3256 13.4118 32.2915 13.5189 32.2237 13.6362C32.1074 13.8392 32.0127 13.8619 32.0301 13.9265C32.051 14.0032 32.2051 14.051 32.3208 14.0229C32.4 14.0038 32.3982 13.9643 32.5145 13.9265C32.6068 13.896 32.629 13.914 32.7081 13.8781C32.7723 13.8493 32.7693 13.832 32.8532 13.7817C32.9779 13.7069 33.0043 13.732 33.0469 13.6847C33.0859 13.6416 33.0889 13.5596 33.0955 13.3944C33.1003 13.2735 33.1026 13.2136 33.0955 13.1526C33.0865 13.0736 33.0733 13.0424 33.0955 13.0077C33.1284 12.9556 33.189 12.9748 33.2405 12.9108C33.2747 12.8683 33.2561 12.8491 33.2891 12.8144C33.3455 12.7539 33.4444 12.7629 33.4828 12.7659C33.5403 12.7707 33.5937 12.7755 33.6279 12.8144C33.6896 12.8844 33.6141 12.9802 33.6764 13.0562C33.71 13.0969 33.7711 13.1179 33.8215 13.1047C33.8791 13.0891 33.9066 13.0329 33.9186 13.0083C33.9612 12.9185 33.921 12.8706 33.9186 12.718C33.9156 12.5253 33.9768 12.4564 33.9186 12.3798C33.8863 12.3367 33.8533 12.3409 33.8215 12.2834C33.7861 12.2188 33.8083 12.1799 33.7729 12.1386C33.743 12.1033 33.6974 12.0979 33.6279 12.0901C33.4978 12.0757 33.4672 12.1134 33.3856 12.0901C33.3041 12.0668 33.3191 12.0243 33.2405 11.9937C33.1033 11.9405 33.0139 12.053 32.9018 11.9937C32.8484 11.9656 32.7957 11.9021 32.8047 11.8489C32.8191 11.7663 32.9743 11.7615 32.9983 11.6555C33.0073 11.616 32.9875 11.6088 32.9983 11.5592C33.0121 11.4933 33.0547 11.4646 33.0955 11.4143C33.1488 11.3485 33.1956 11.2491 33.192 11.1725C33.1884 11.0869 33.12 11.0246 32.9983 10.9306C32.7363 10.7289 32.4935 10.5877 32.4174 10.544C32.1236 10.3746 32.099 10.371 32.0301 10.3021C31.9239 10.1956 31.9054 10.1267 31.7878 10.0603C31.6583 9.98728 31.6176 10.0364 31.4971 9.96393C31.358 9.88013 31.2884 9.74066 31.2548 9.67362C31.1829 9.52877 31.2171 9.49465 31.1577 9.4318C31.048 9.31507 30.8256 9.32225 30.6733 9.38331C30.5918 9.41623 30.6073 9.43359 30.3825 9.62514C30.1049 9.86218 30.0138 9.8933 29.9952 10.0118C29.9862 10.0717 29.9976 10.1387 29.9466 10.2052C29.9077 10.2566 29.8741 10.2519 29.8495 10.3015C29.8249 10.3518 29.8519 10.3722 29.8495 10.4949C29.8477 10.5829 29.8333 10.5996 29.8495 10.6397C29.8711 10.6942 29.9197 10.7199 29.9466 10.7367C29.9748 10.7541 30.012 10.7822 30.1889 11.0749C30.3148 11.2832 30.3777 11.388 30.3825 11.4131C30.4233 11.6424 30.2608 11.8441 30.1403 11.9931C30.0492 12.1063 29.952 12.223 29.8015 12.235C29.7632 12.2379 29.6684 12.2451 29.6079 12.1865C29.485 12.0673 29.6726 11.8435 29.5593 11.6549C29.476 11.5161 29.2805 11.4807 29.172 11.4616C29.0905 11.4472 29.0977 11.4616 28.8333 11.4616C28.5863 11.4616 28.5545 11.449 28.3974 11.4616C28.2967 11.4694 28.2062 11.4825 28.1066 11.5101C28.0341 11.5298 27.9861 11.549 27.9615 11.5586C27.7913 11.6214 27.5263 11.6406 27.2835 11.5586C27.0892 11.4927 26.9663 11.3814 26.8962 11.3167C26.7642 11.1946 26.6953 11.0743 26.5574 10.8331C26.5178 10.7636 26.4423 10.6272 26.3638 10.4464C26.326 10.359 26.344 10.3919 26.2187 10.0597C26.1293 9.82327 26.1131 9.78855 26.1215 9.72151C26.1365 9.6 26.2061 9.58383 26.2666 9.4312C26.3308 9.27078 26.269 9.24623 26.3152 9.04451C26.3673 8.81765 26.4897 8.64586 26.5328 8.5854C26.6054 8.48544 26.6294 8.48185 26.6779 8.39206C26.7271 8.30227 26.7882 8.19034 26.775 8.05386C26.7654 7.95809 26.7259 7.91798 26.7511 7.83658C26.7631 7.79707 26.7762 7.79408 26.8236 7.71566C26.8392 7.68992 26.8878 7.60911 26.9207 7.52232C26.9627 7.40919 26.9681 7.31222 26.9693 7.28049C26.9729 7.16856 26.9771 7.04106 26.8967 6.96624C26.8404 6.91416 26.7918 6.93092 26.7517 6.86987C26.7133 6.81121 26.7439 6.7693 26.7031 6.72501C26.6701 6.68909 26.6311 6.69628 26.558 6.67652C26.4543 6.64899 26.4537 6.61367 26.3644 6.58015C26.1923 6.51551 26.1035 6.61188 25.977 6.53167C25.9141 6.49156 25.9363 6.46822 25.8799 6.4353C25.7246 6.34371 25.5382 6.51371 25.444 6.4353C25.3943 6.39399 25.4357 6.33773 25.3955 6.24195C25.3337 6.0953 25.1407 5.99594 24.9596 6.00013C24.763 6.00492 24.5627 6.13241 24.5237 6.29044C24.4986 6.3928 24.5585 6.43769 24.5237 6.48378C24.4374 6.59811 24.0735 6.31259 23.7006 6.4353C23.5843 6.47361 23.5135 6.53646 23.4098 6.62864C23.3462 6.6855 23.068 6.93332 23.0225 7.30563C23.0123 7.38824 23.0285 7.35532 23.0225 7.59595C23.0177 7.77851 23.0063 7.87668 23.071 7.93414C23.11 7.96886 23.1304 7.94791 23.1682 7.98263C23.2215 8.03171 23.2053 8.09935 23.2167 8.32083C23.2251 8.49023 23.2383 8.52854 23.2653 8.56265C23.3061 8.61473 23.3426 8.60934 23.3624 8.65962C23.393 8.73684 23.3259 8.79969 23.3624 8.85297C23.3858 8.88709 23.4224 8.87511 23.4596 8.90145C23.5303 8.95113 23.5147 9.07743 23.5081 9.19117C23.4865 9.55091 23.5645 9.56947 23.5081 9.77119C23.4745 9.89091 23.4206 9.9783 23.363 10.0615C23.0009 10.5793 22.399 11.0426 22.2976 11.1252C21.8348 11.5017 21.6339 11.613 21.3779 11.6567C21.1699 11.6926 20.9888 11.6723 20.8455 11.6567C20.4235 11.61 20.3845 11.4807 19.9738 11.4149C19.5883 11.3532 19.5739 11.4556 19.2477 11.3664C19.0229 11.3054 18.9396 11.2323 18.7153 11.2216C18.4839 11.2108 18.4647 11.2832 18.2795 11.27C18.0115 11.2509 17.6871 11.0731 17.6014 10.7864C17.5474 10.6068 17.5804 10.3626 17.6985 10.3027C17.7663 10.2686 17.8358 10.3093 17.8922 10.2542C17.9395 10.2082 17.9167 10.1531 17.9407 10.0609C17.9833 9.8957 18.1074 9.87594 18.1344 9.77059C18.1734 9.61975 17.9743 9.44616 17.8436 9.33542C17.5726 9.10437 17.3046 8.87631 16.9719 8.90025C16.6061 8.92659 16.6289 9.22528 16.0522 9.4318C15.6691 9.56887 15.2775 9.57665 15.2775 9.57665C14.9802 9.58264 14.9256 9.52577 14.7452 9.57665C14.4849 9.65028 14.1804 9.88612 14.1642 10.1567C14.1486 10.4105 14.3938 10.5595 14.3093 10.7367C14.2727 10.8127 14.199 10.8462 14.1156 10.8816C13.8045 11.0132 13.6618 10.866 13.3896 10.93C13.1456 10.9875 12.9843 11.1761 12.6635 11.5586C12.537 11.7094 12.4897 11.7938 12.5184 11.8483C12.5508 11.9165 12.6977 11.9309 12.8062 11.8968ZM26.0964 6.84532C26.1383 6.78247 26.2079 6.77409 26.2175 6.7729L26.4111 6.82138L26.6048 7.01472V7.35292C26.4933 7.37387 26.4723 7.38165 26.4351 7.37687C26.4291 7.37627 26.308 7.35831 26.2654 7.25595C26.2384 7.1913 26.2582 7.12965 26.2654 7.11109L26.0718 6.96624C26.07 6.95427 26.061 6.8986 26.0964 6.84532ZM23.3612 7.69172C23.3612 7.69172 23.3612 7.30504 23.3612 7.25655C23.3654 7.22123 23.3726 7.17993 23.3852 7.13564C23.4056 7.0656 23.4326 7.00934 23.4578 6.96624C23.4895 6.93272 23.5453 6.88244 23.6274 6.84532C23.7287 6.79923 23.8199 6.79564 23.8696 6.79684C23.8972 6.79445 23.9302 6.79385 23.9662 6.79684C24.0141 6.80103 24.0549 6.81061 24.0873 6.82078C24.1167 6.8543 24.1262 6.90099 24.1113 6.9417C24.0933 6.99317 24.0453 7.01173 24.0387 7.01412C23.974 7.01412 23.9098 7.01412 23.8451 7.01412C23.8151 7.03268 23.7635 7.06979 23.724 7.13504C23.661 7.23919 23.6712 7.34334 23.6754 7.37687C23.6784 7.41996 23.679 7.46845 23.6754 7.52172C23.6712 7.58577 23.6622 7.64264 23.6514 7.69112H23.3612V7.69172ZM23.5303 8.44054C23.5363 8.36512 23.5477 8.30586 23.5543 8.27115C23.5687 8.25139 23.5921 8.22386 23.6268 8.19872C23.664 8.17178 23.6994 8.15801 23.724 8.15023C23.7479 8.22266 23.7725 8.29509 23.7965 8.36752C23.8265 8.43396 23.8654 8.5429 23.869 8.68177C23.8714 8.76917 23.8588 8.84339 23.8451 8.89906L23.9416 9.04391L23.8451 9.18877L23.6028 9.0918C23.5351 8.72667 23.5177 8.59737 23.5303 8.44054ZM37.1112 29.926C37.0015 29.7632 37.1916 29.51 37.1112 29.4424C37.0525 29.3933 36.9098 29.4945 36.869 29.4424C36.8432 29.4089 36.8954 29.3574 36.869 29.2975C36.8414 29.2341 36.7671 29.2514 36.7239 29.2011C36.649 29.1132 36.7959 28.9719 36.7725 28.766C36.7563 28.6205 36.6568 28.4547 36.5303 28.4278C36.3822 28.3961 36.2719 28.5708 36.1915 28.5247C36.1232 28.4852 36.1915 28.3518 36.1429 28.1866C36.0752 27.9543 35.8282 27.834 35.6585 27.7514C35.4457 27.6478 35.261 27.6269 35.0776 27.6065C34.9163 27.5886 34.7226 27.5664 34.4966 27.6065C34.0655 27.6825 33.4492 27.9938 33.3832 28.4284C33.3617 28.5696 33.3952 28.7432 33.2861 28.8151C33.1956 28.8743 33.1003 28.8031 33.0439 28.8635C32.9624 28.9509 33.1314 29.1323 33.0439 29.3472C33.0283 29.3861 33.0253 29.3723 32.9468 29.4921C32.8394 29.6555 32.7849 29.7387 32.7531 29.8303C32.6686 30.0739 32.8137 30.1798 32.7046 30.3618C32.6506 30.4516 32.5553 30.527 32.5109 30.5067C32.4833 30.4941 32.4977 30.4546 32.4623 30.4103C32.4102 30.3444 32.2963 30.3271 32.2201 30.3618C32.1656 30.3869 32.1704 30.4199 32.123 30.4582C31.9803 30.5755 31.7225 30.4396 31.6871 30.5067C31.6667 30.5456 31.7519 30.5946 31.7357 30.6515C31.7123 30.7329 31.5031 30.7557 31.3484 30.7485C31.0618 30.7353 30.9233 30.6186 30.816 30.7C30.7608 30.7419 30.7878 30.7802 30.7195 30.8449C30.6085 30.9496 30.4065 30.9729 30.3321 30.8933C30.2842 30.8425 30.3256 30.788 30.2836 30.7485C30.1955 30.6659 29.9808 30.8754 29.7992 30.797C29.6858 30.7479 29.6211 30.6018 29.6541 30.5551C29.702 30.4869 29.9484 30.6491 30.0414 30.5551C30.0959 30.5001 30.0701 30.3827 30.0414 30.3133C29.9772 30.1583 29.7872 30.1086 29.7992 30.0715C29.8069 30.0463 29.8987 30.0535 30.0414 30.0715C30.3795 30.1146 30.4946 30.1565 30.6709 30.12C30.8058 30.0918 30.849 30.0439 30.8645 30.0236C30.9359 29.9302 30.9287 29.7722 30.8645 29.7333C30.8364 29.7165 30.816 29.7333 30.7674 29.7333C30.6715 29.7333 30.6103 29.665 30.4766 29.5399C30.2698 29.3466 30.2242 29.331 30.2344 29.2981C30.256 29.2293 30.4874 29.2155 30.6703 29.2496C30.8316 29.2802 30.9107 29.3394 30.9611 29.2981C31.0258 29.2442 30.9695 29.0802 30.9611 29.0563C30.8747 28.8055 30.6451 28.8121 30.5738 28.6211C30.4245 28.2231 30.7356 27.9513 30.6223 27.4126C30.572 27.172 30.464 27.0079 30.3801 26.881C30.301 26.7607 30.0144 26.3256 29.5084 26.1562C29.4598 26.14 29.4124 26.1274 29.3663 26.1173C29.3921 26.1951 29.4178 26.2723 29.4436 26.3501C29.4436 26.5189 29.4394 28.9025 29.4358 31.4542V31.4973C29.4358 31.4973 29.4592 31.4973 29.4406 31.5141C29.5246 31.5057 29.6079 31.4907 29.7992 31.4734C30.1283 31.4434 30.1703 31.4614 30.5738 31.4249C30.798 31.4045 30.8915 31.3896 30.9611 31.3764C31.1889 31.3339 31.3082 31.3111 31.4455 31.2315C31.587 31.1489 31.6464 31.0633 31.6877 31.0867C31.7573 31.1256 31.6308 31.389 31.7363 31.4734C31.8004 31.5242 31.9108 31.4776 31.9299 31.5218C31.9431 31.5518 31.9012 31.5955 31.8814 31.6182C31.7914 31.7242 31.789 31.8822 31.7848 32.1982C31.7813 32.4383 31.7795 32.558 31.8334 32.6334C31.9018 32.7292 31.9545 32.6933 32.1242 32.8268C32.1805 32.871 32.3196 32.9824 32.415 33.165C32.4737 33.2781 32.4509 33.2936 32.5121 33.4068C32.5948 33.56 32.704 33.6564 32.7543 33.6971C32.8418 33.7671 33.0757 33.9545 33.2867 33.8904C33.4018 33.8551 33.394 33.7803 33.5775 33.6971C33.6686 33.6552 33.7963 33.5971 33.8683 33.6486C33.9624 33.7162 33.8665 33.9078 33.9654 33.9868C34.0152 34.0269 34.0763 34.0078 34.2076 33.9868C34.5146 33.9371 34.4888 33.9904 34.7886 33.9383C35.041 33.8946 35.1675 33.8731 35.2244 33.7935C35.3246 33.654 35.219 33.4816 35.3216 33.4068C35.3809 33.3631 35.4397 33.405 35.6124 33.4068C35.6124 33.4068 35.7694 33.4086 35.9511 33.3583C36.128 33.3098 36.3132 33.1159 36.6771 32.7298C36.7185 32.6861 36.7803 32.619 36.7743 32.5364C36.7689 32.461 36.7119 32.4419 36.6771 32.3431C36.6699 32.3216 36.6256 32.1941 36.6771 32.1013C36.7539 31.9636 36.9787 32.0175 37.0159 31.9079C37.0441 31.8247 36.9296 31.7523 36.9673 31.6661C36.9943 31.605 37.0609 31.6206 37.1124 31.5691C37.2407 31.4416 37.086 31.0903 37.0621 30.9765C37.0159 30.9556 36.9493 30.9113 36.9188 30.8443C36.8732 30.7455 36.9176 30.6252 36.9673 30.5539C37.0513 30.4348 37.1406 30.4719 37.2095 30.3606C37.2719 30.2594 37.2677 30.1158 37.2095 30.0224C37.1712 29.9631 37.1454 29.9769 37.1112 29.926ZM36.3606 28.742C36.4175 28.7115 36.4997 28.7199 36.5303 28.766C36.5692 28.8258 36.5183 28.9444 36.4331 28.9593C36.3726 28.9701 36.297 28.927 36.288 28.8623C36.2802 28.8079 36.3234 28.7618 36.3606 28.742ZM34.7388 28.4278C34.7556 28.2422 34.8995 28.0495 35.1021 28.0172C35.3 27.9854 35.4505 28.1231 35.4894 28.162C35.5266 28.1991 35.6381 28.323 35.6345 28.5002C35.6303 28.7169 35.4547 28.942 35.2232 28.9593C34.9445 28.9803 34.7148 28.6918 34.7388 28.4278ZM32.3178 32.4395C32.2591 32.4712 32.1967 32.4634 32.1967 32.4634C32.1644 32.4592 32.1392 32.4479 32.1242 32.4395C32.1122 32.3766 32.1026 32.3036 32.1002 32.2222C32.096 32.1001 32.108 31.9929 32.1242 31.9079C32.1416 31.8984 32.1865 31.8768 32.2453 31.884C32.2777 31.8882 32.3023 31.8995 32.3178 31.9079C32.4018 32.1797 32.3934 32.3988 32.3178 32.4395ZM33.1656 33.5756C33.1104 33.578 33.0679 33.5618 33.0445 33.5516C33.0445 33.5032 33.0445 33.4547 33.0445 33.4068C33.0145 33.4176 32.9731 33.4283 32.9234 33.4307C32.8496 33.4349 32.7903 33.4193 32.7537 33.4068C32.7381 33.3391 32.7303 33.3056 32.7297 33.2859C32.7291 33.2595 32.7315 33.217 32.7537 33.165C32.8101 33.2051 32.8664 33.2458 32.9234 33.2859C32.951 33.2835 32.9839 33.2829 33.0205 33.2859C33.0685 33.2901 33.1092 33.2996 33.1416 33.3098C33.204 33.329 33.2441 33.3643 33.2627 33.3822C33.3089 33.4283 33.3281 33.4786 33.3353 33.5032C33.3173 33.5193 33.2567 33.5714 33.1656 33.5756ZM35.0536 33.5271C35.0452 33.5618 35.0128 33.5822 34.981 33.5995C34.9211 33.6318 34.8066 33.6851 34.6177 33.7204C34.529 33.7282 34.4402 33.7366 34.3515 33.7444L34.4001 33.5995C34.4103 33.5792 34.445 33.5169 34.5212 33.4786C34.5973 33.4403 34.6681 33.4505 34.6908 33.4547L34.9816 33.3583C35.035 33.4481 35.0614 33.4936 35.0536 33.5271ZM36.3606 32.7537C36.2772 32.8483 36.2101 32.8291 36.1429 32.9231C36.1298 32.9417 36.1106 32.9728 36.0704 32.9956C36.0428 33.0117 36.0158 33.0171 35.9979 33.0195C35.9739 32.9956 35.9493 32.971 35.9253 32.9471C35.9205 32.9327 35.9103 32.8944 35.9253 32.8507C35.9487 32.7825 36.0128 32.7573 36.0224 32.7537C36.0788 32.7615 36.1352 32.7699 36.1921 32.7777C36.1813 32.7543 36.1657 32.7118 36.1681 32.6568C36.1723 32.5658 36.2245 32.5053 36.2407 32.4874C36.2527 32.485 36.3084 32.476 36.3618 32.5113C36.4247 32.5532 36.4331 32.6226 36.4343 32.6322C36.4103 32.6915 36.3816 32.7298 36.3606 32.7537ZM36.3366 32.1976C36.2389 32.2383 36.1861 32.1821 36.0944 32.1976C35.9715 32.2186 35.9373 32.3425 35.7556 32.6328C35.7107 32.7046 35.5788 32.9106 35.3683 33.1165C35.3216 33.162 35.1813 33.2954 35.1261 33.2613C35.0901 33.2392 35.1255 33.1685 35.0776 33.1165C35.023 33.0578 34.8947 33.0584 34.8353 33.1165C34.797 33.1536 34.8192 33.1841 34.7868 33.2128C34.7082 33.2829 34.5356 33.1422 34.448 33.2128C34.4103 33.2434 34.4354 33.2751 34.3995 33.3098C34.3023 33.4032 34.0535 33.2224 33.9636 33.3098C33.921 33.3511 33.9618 33.4056 33.915 33.4547C33.8323 33.5421 33.5967 33.4882 33.5763 33.4062C33.5637 33.3559 33.638 33.32 33.6249 33.2613C33.6111 33.2021 33.5205 33.1769 33.4798 33.165C33.108 33.0518 32.9366 32.7902 32.8017 32.8746C32.7477 32.9088 32.7543 32.9638 32.7046 32.9716C32.6248 32.9836 32.5097 32.8537 32.5109 32.7298C32.5115 32.6783 32.5319 32.6597 32.5595 32.5849C32.5786 32.5334 32.5912 32.4802 32.608 32.2946C32.6338 32.0025 32.647 31.857 32.608 31.811C32.5355 31.726 32.4396 31.7804 32.3172 31.6661C32.2639 31.6158 32.1931 31.5218 32.2201 31.4728C32.2633 31.3955 32.5397 31.4811 32.5589 31.4243C32.5691 31.3955 32.4989 31.3698 32.4617 31.2794C32.4414 31.2291 32.4192 31.128 32.4617 31.0861C32.5475 31.0017 32.8395 31.2064 32.8976 31.1346C32.9246 31.101 32.8682 31.0484 32.8976 30.9897C32.9372 30.9107 33.1009 30.879 33.1884 30.9412C33.2525 30.9873 33.225 31.0484 33.2855 31.0861C33.3838 31.1483 33.5325 31.034 33.5763 31.0861C33.5973 31.1118 33.5637 31.1417 33.5763 31.1824C33.5979 31.2543 33.7304 31.2585 34.2058 31.2794C34.3137 31.2842 34.475 31.2908 34.4966 31.2309C34.5032 31.213 34.487 31.1962 34.4966 31.1824C34.517 31.1537 34.6099 31.1902 34.6663 31.2064C34.7412 31.2279 34.8521 31.2423 35.005 31.2064C35.4205 31.0478 35.7167 30.9053 35.8036 30.8437C35.8833 30.7874 35.9247 30.7227 35.9247 30.7227C35.9541 30.6772 35.9451 30.6695 35.9733 30.6258C36.0206 30.5527 36.0572 30.5563 36.1184 30.4809C36.1418 30.4528 36.1579 30.4217 36.1909 30.36C36.2347 30.278 36.2569 30.2373 36.2635 30.1906C36.2719 30.1325 36.2527 30.126 36.2395 30.0212C36.2359 29.9943 36.2287 29.8979 36.2395 29.7794C36.2425 29.7477 36.2515 29.6728 36.288 29.586C36.3084 29.5375 36.3318 29.4843 36.3852 29.4412C36.4109 29.4202 36.4583 29.3819 36.4823 29.3927C36.5842 29.4412 36.1531 30.3845 36.3852 30.5527C36.4409 30.5934 36.5129 30.5725 36.5788 30.6497C36.631 30.7102 36.6682 30.8179 36.6274 30.8915C36.574 30.9873 36.4337 30.9436 36.3852 31.0364C36.339 31.1256 36.4325 31.2351 36.3852 31.2782C36.3504 31.3093 36.2958 31.2573 36.2401 31.2782C36.1058 31.3285 36.059 31.7673 36.2401 31.9067C36.3372 31.9816 36.4589 31.9385 36.4823 32.0037C36.5027 32.063 36.4265 32.1605 36.3366 32.1976ZM36.869 31.4728C36.8366 31.4728 36.8042 31.4728 36.7719 31.4728C36.7833 31.4943 36.827 31.5835 36.7959 31.69C36.7779 31.7505 36.7437 31.7906 36.7233 31.811C36.7059 31.8205 36.661 31.8421 36.6022 31.8349C36.5698 31.8307 36.5452 31.8193 36.5297 31.811C36.5099 31.7433 36.5057 31.6841 36.5057 31.6416C36.5057 31.5709 36.5183 31.5129 36.5297 31.4722C36.562 31.4722 36.5944 31.4722 36.6268 31.4722C36.607 31.4045 36.6028 31.3453 36.6028 31.3028C36.6028 31.2321 36.6154 31.1741 36.6268 31.1334C36.6508 31.0891 36.6975 31.0609 36.7479 31.0609C36.7983 31.0609 36.845 31.0891 36.869 31.1334C36.8888 31.201 36.893 31.2603 36.893 31.3028C36.8936 31.374 36.881 31.4321 36.869 31.4728ZM36.9176 30.3612C36.9002 30.3708 36.8552 30.3923 36.7965 30.3851C36.7641 30.381 36.7395 30.3696 36.7239 30.3612C36.7077 30.2936 36.6939 30.2026 36.6999 30.0954C36.7035 30.0308 36.7125 29.9739 36.7239 29.926C36.6915 29.926 36.6592 29.926 36.6268 29.926C36.6178 29.9105 36.6064 29.8859 36.6028 29.8536C36.5956 29.7949 36.6172 29.75 36.6268 29.7327C36.6346 29.7219 36.6753 29.6698 36.7479 29.6603C36.8486 29.6471 36.9146 29.7291 36.9176 29.7327C36.9355 29.85 36.9415 29.956 36.9415 30.0469C36.9415 30.1655 36.9314 30.2714 36.9176 30.3612ZM28.106 33.068C28.0329 32.8902 27.9376 32.8639 27.2829 32.1498C27.2301 32.0923 27.1815 32.0384 27.1354 31.9875C27.1456 32.0031 27.1546 32.0175 27.1617 32.0294C27.0856 35.7143 27.0197 36.7499 26.9681 36.7666C26.9579 36.7696 26.9501 36.7708 26.9435 36.7708C26.9381 36.8229 26.9063 36.8474 26.8955 36.936C26.8836 37.0366 26.9021 37.1892 26.9921 37.2742C27.1456 37.4197 27.4387 37.3071 27.5245 37.2742C27.6018 37.2443 27.8848 37.1359 27.9603 36.8875C28.0389 36.6301 27.8284 36.4386 27.9118 36.356C27.9526 36.3159 28.0473 36.3159 28.154 36.3488C28.16 36.1926 28.2697 33.4607 28.2745 33.2948C28.1636 33.2128 28.1168 33.0955 28.106 33.068ZM38.6604 20.0656C38.471 19.9956 38.4506 19.9692 38.3217 19.9207C38.1904 19.8711 38.0807 19.8489 37.9955 19.8351C37.9997 19.8393 38.0039 19.8435 38.0069 19.8483C38.0261 19.8752 38.0249 19.9028 38.0555 19.9453C38.1107 20.0225 38.2018 20.053 38.2731 20.0662C38.2905 20.2488 38.2971 20.4188 38.2971 20.5738C38.2971 20.757 38.2875 20.927 38.2731 21.0814C38.2641 21.1395 38.2623 21.1712 38.2492 21.2023C38.2384 21.2274 38.2168 21.2598 38.152 21.2993C38.1484 21.3017 38.14 21.3065 38.1191 21.3178C38.1119 21.3214 38.1041 21.325 38.0963 21.3286C38.1077 21.3268 38.1185 21.325 38.128 21.3238C38.3505 21.2885 38.4134 21.3376 38.5154 21.2753C38.6071 21.2191 38.6221 21.1389 38.709 20.8886C38.8817 20.3906 38.9782 20.2601 38.9027 20.1638C38.8733 20.1249 38.8523 20.1362 38.6604 20.0656ZM37.1112 30.9897C37.1166 30.9825 37.077 30.9352 37.0627 30.9412C37.0567 30.9436 37.0567 30.9568 37.0609 30.9771C37.0878 30.9891 37.1082 30.9933 37.1112 30.9897ZM37.6886 21.5309C37.6826 21.5357 37.6766 21.5387 37.6676 21.5393C37.6376 21.5417 37.6064 21.4968 37.5711 21.4423C37.5531 21.4148 37.5339 21.3861 37.5225 21.3454C37.5039 21.2783 37.5183 21.2203 37.5225 21.2005C37.5507 21.0748 37.5159 20.9425 37.5225 20.8138C37.5309 20.6492 37.5357 20.3667 37.5225 19.8471C37.6406 19.8142 37.7311 19.798 37.8007 19.7932C37.7947 19.7885 37.7905 19.7825 37.7887 19.7747C37.7845 19.7537 37.8019 19.7322 37.8385 19.7064C37.8301 19.7052 37.8217 19.7046 37.8127 19.7023C37.7635 19.6879 37.7623 19.6651 37.7156 19.6538C37.6352 19.6346 37.5549 19.6813 37.4979 19.7262C37.5057 19.2509 37.5141 18.7757 37.5219 18.3004C37.5387 18.2513 37.5897 18.1274 37.7156 18.0586C37.7761 18.0256 37.8445 18.019 37.9254 18.0125C37.9092 18.0071 37.896 17.9987 37.8846 17.9855C37.8415 17.9358 37.8529 17.8538 37.8846 17.7437C37.953 17.5085 38.0465 17.3828 38.1754 17.1637C38.3984 16.7842 38.45 16.5968 38.4662 16.5352C38.4944 16.425 38.5034 16.3454 38.5148 16.2448C38.5315 16.0964 38.5441 15.9773 38.5363 15.8851C38.5142 15.915 38.4752 15.9126 38.4422 15.9306C38.3876 15.9605 38.3379 16.0539 38.3697 16.3412C38.3697 16.3412 38.2731 16.5819 38.2725 16.583C38.1119 16.9841 38.0585 17.0601 37.9578 17.3325C37.9578 17.3325 37.7599 17.8664 37.5465 18.0819C37.5465 18.0819 37.5453 18.0825 37.5447 18.0825C37.5303 18.0819 37.5243 17.8838 37.5219 17.8155C37.5141 17.5647 37.5039 16.6812 37.4979 16.0994C37.5225 15.9671 37.5747 15.9096 37.619 15.8821C37.6736 15.848 37.7323 15.848 37.7839 15.8109C37.7216 15.8336 37.6292 15.8133 37.595 15.7612V15.7606C37.5897 15.7714 37.5819 15.7803 37.5711 15.7851C37.5543 15.7929 37.5351 15.7893 37.5225 15.7851C37.5411 15.3518 37.5363 14.8915 37.4985 14.4078C37.4919 14.3222 37.4841 14.2372 37.4751 14.1534C37.45 14.1558 37.4248 14.1594 37.4014 14.166C37.2401 14.2085 37.1484 14.3396 36.9655 14.6011C36.8336 14.7897 36.7941 14.8927 36.6268 15.0848C36.5446 15.1782 36.4343 15.3033 36.3846 15.2781C36.3402 15.2554 36.3606 15.1207 36.3846 15.0363C36.4289 14.8813 36.5045 14.837 36.6753 14.6011C36.7875 14.4461 36.8438 14.3665 36.869 14.2629C36.896 14.1504 36.866 14.1348 36.869 13.9247C36.8714 13.7476 36.8936 13.7302 36.9176 13.4411C36.9403 13.1651 36.9613 13.1107 36.9176 13.0544C36.8756 13.0005 36.8408 13.0191 36.6514 12.9335C36.4751 12.8539 36.4691 12.821 36.3852 12.8126C36.3804 12.812 36.3012 12.8054 36.2143 12.8365C36.2149 12.8365 36.2155 12.8365 36.2155 12.8371C36.2455 12.8521 36.2413 12.9048 36.2401 13.0041C36.2395 13.0394 36.288 13.3986 36.288 13.6835C36.288 13.732 36.3366 13.8769 36.3366 13.8769C36.3366 13.8769 36.3852 14.9405 36.3852 14.9884C36.3852 15.0363 36.2401 15.1333 36.2401 15.1333L36.1915 15.52L36.4337 15.4715V15.9551V17.7437L36.3852 19.0971C36.3852 19.0971 36.3852 21.1754 36.3852 21.2238C36.3852 22.4473 36.363 23.6559 36.3366 24.8489C36.3216 24.8656 36.2832 24.9045 36.2221 24.9195C36.4325 24.9686 36.6232 24.9285 36.7725 24.8973C36.9266 24.865 37.0297 24.8417 37.1112 24.7525C37.2437 24.6076 37.2215 24.3951 37.2083 24.2688C37.1754 23.9558 37.0129 23.7092 36.8696 23.4955C36.7131 23.2626 36.5944 23.1531 36.6274 23.1088C36.6544 23.0717 36.7551 23.1214 37.0633 23.2052C37.2053 23.2441 37.3049 23.271 37.3906 23.286C37.3864 23.283 37.3822 23.2812 37.378 23.2776C37.2629 23.1806 37.3684 22.9998 37.378 22.6006C37.3846 22.3264 37.414 22.0529 37.4266 21.7787C37.4314 21.6698 37.4338 21.6081 37.4751 21.5854C37.5699 21.5333 37.7893 21.7326 37.9674 21.9427C37.9566 21.9284 37.9464 21.9146 37.935 21.8996C37.7767 21.6919 37.676 21.6159 37.6886 21.5309ZM29.4616 15.6666C29.5599 15.7163 29.5869 15.7738 29.7038 15.8115C29.768 15.8324 29.8705 15.8653 29.946 15.8115C30.0318 15.7498 30.0468 15.6002 29.9946 15.5212C29.9676 15.4805 29.9382 15.4823 29.8981 15.4242C29.8837 15.4032 29.8273 15.3242 29.8495 15.2793C29.8855 15.2069 30.1337 15.2021 30.2854 15.3278C30.325 15.3607 30.3423 15.3895 30.4305 15.5696C30.6037 15.9222 30.6103 15.9605 30.6727 16.0048C30.7938 16.0898 30.9898 16.1012 31.1086 16.0048C31.2141 15.9192 31.2513 15.754 31.2057 15.7145C31.1571 15.6732 31.051 15.7995 30.9149 15.763C30.837 15.742 30.7938 15.6792 30.7213 15.5696C30.5906 15.3733 30.6313 15.3188 30.5276 15.183C30.4473 15.0776 30.3501 15.0142 30.2368 14.9411C30.0779 14.8382 29.9892 14.8184 29.9946 14.7963C30.0042 14.7562 30.2698 14.8633 30.6727 14.8448C30.7572 14.8406 30.8765 14.8298 30.9149 14.8933C30.9533 14.9561 30.8765 15.0351 30.9149 15.0866C30.9635 15.1518 31.1625 15.1273 31.2057 15.0381C31.2387 14.9699 31.1649 14.8944 31.2057 14.8448C31.2429 14.7987 31.3262 14.837 31.3508 14.7963C31.3796 14.749 31.2788 14.6754 31.3022 14.6029C31.3208 14.5461 31.3933 14.558 31.4473 14.5066C31.5648 14.3946 31.5246 14.0516 31.3502 13.9265C31.2782 13.8751 31.2087 13.8781 31.108 13.7817C31.0486 13.7242 31.0534 13.7045 31.0108 13.6847C30.9011 13.6344 30.7944 13.7386 30.7201 13.6847C30.6823 13.6572 30.7015 13.6243 30.6715 13.5883C30.5618 13.4549 30.1301 13.7009 30.042 13.5883C29.9934 13.5261 30.0989 13.4154 30.042 13.3465C29.9898 13.2843 29.8789 13.3477 29.7032 13.298C29.6109 13.2723 29.5593 13.2316 29.5096 13.2017C29.2092 13.0185 28.7685 13.0801 28.5899 13.1047C28.3453 13.1388 28.4214 13.1717 28.0575 13.2495C27.6744 13.3316 27.2541 13.4213 26.9921 13.2495C26.9687 13.2346 26.9009 13.1873 26.7984 13.1532C26.7157 13.1256 26.5466 13.0694 26.4597 13.1532C26.3955 13.2148 26.4081 13.3208 26.4111 13.3465C26.4219 13.4387 26.4765 13.5033 26.5082 13.5399C26.5874 13.6326 26.6443 13.6314 26.6533 13.6847C26.6659 13.7577 26.5748 13.8386 26.5082 13.8781C26.3554 13.969 26.248 13.8918 26.1695 13.9744C26.0934 14.0546 26.1035 14.2204 26.1695 14.2647C26.2313 14.3054 26.3212 14.2264 26.3632 14.2647C26.4027 14.3007 26.3835 14.4258 26.3146 14.5066C26.1485 14.7011 25.8044 14.5072 25.6365 14.6999C25.5658 14.7813 25.5484 14.9058 25.5879 14.9417C25.6485 14.9962 25.8308 14.828 25.9267 14.8933C25.9914 14.9369 25.9776 15.0603 25.9752 15.0866C25.9447 15.3697 25.5897 15.5415 25.3457 15.7151C24.8217 16.088 25.0945 16.2682 24.3775 17.0685C24.3775 17.0685 23.6754 17.852 23.7479 18.1322C23.7509 18.1441 23.7713 18.2142 23.7479 18.2285C23.721 18.2459 23.6448 18.1831 23.6028 18.1322C23.5009 18.0095 23.5129 17.8604 23.5057 17.7455C23.5009 17.6671 23.4895 17.6425 23.2635 17.117C22.9697 16.4328 22.9853 16.4663 22.9727 16.44C22.7755 16.0228 22.634 15.5762 22.3918 15.183C22.3696 15.1471 22.3162 15.0644 22.3432 14.9896C22.3672 14.9244 22.4373 14.9064 22.4403 14.8448C22.4415 14.8184 22.4301 14.7957 22.3918 14.7478C22.3222 14.661 22.2659 14.6179 22.1981 14.5545C22.0956 14.4593 22.0446 14.4102 22.053 14.3611C22.0614 14.3102 22.1226 14.2785 22.1501 14.2647C22.2455 14.2157 22.3066 14.2564 22.3438 14.2163C22.3882 14.1684 22.3684 14.0391 22.2952 13.9744C22.1981 13.8888 22.0494 13.9565 22.0045 13.8781C21.9883 13.8487 21.9907 13.8092 22.0045 13.7817C22.0632 13.6614 22.3186 13.7787 22.5369 13.6368C22.5476 13.6296 22.6999 13.5273 22.7305 13.3465C22.7365 13.3124 22.7599 13.1729 22.6819 13.1047C22.5728 13.0095 22.3468 13.1262 22.2946 13.1532C22.1537 13.2256 22.0722 13.3238 22.0524 13.3465C21.6771 13.7751 20.3059 13.6075 20.261 13.3465C20.2538 13.3064 20.2814 13.2801 20.261 13.2495C20.1878 13.1394 19.7436 13.3537 19.68 13.2495C19.6614 13.2196 19.6956 13.1951 19.68 13.1532C19.6321 13.0209 19.2034 12.9748 19.0505 13.1532C18.9839 13.231 19.0223 13.2891 18.9534 13.3465C18.8263 13.4525 18.6362 13.3022 18.5175 13.395C18.4102 13.4788 18.5151 13.644 18.4204 13.7332C18.2501 13.8948 17.7237 13.5339 17.5972 13.6847C17.5552 13.7344 17.596 13.7943 17.5486 13.8296C17.4545 13.8996 17.2686 13.6829 17.0642 13.7332C16.9809 13.7536 16.9305 13.8092 16.8705 13.8781C16.6337 14.1492 16.488 14.6299 16.6769 14.9896C16.7111 15.0549 16.7758 15.1776 16.8705 15.183C16.9887 15.1895 17.0246 15.0064 17.2578 14.8448C17.322 14.7999 17.4605 14.7065 17.6452 14.6999C17.84 14.6927 18.0367 14.7843 18.0325 14.8448C18.0295 14.8933 17.8994 14.8837 17.6937 14.9896C17.5564 15.0603 17.4107 15.1357 17.355 15.2799C17.298 15.4272 17.3832 15.5194 17.3064 15.6181C17.2489 15.6924 17.1505 15.7043 17.0642 15.7145C16.7698 15.7504 16.6037 15.596 16.5318 15.666C16.4772 15.7187 16.5108 15.8642 16.5804 15.9563C16.7368 16.1634 17.099 16.1293 17.3064 16.0527C17.3754 16.0276 17.5025 15.9809 17.5972 15.8594C17.7021 15.7247 17.6488 15.6493 17.7423 15.4727C17.7501 15.4583 17.9126 15.1608 18.1782 15.1345C18.2507 15.1273 18.3574 15.1375 18.3718 15.183C18.3862 15.2279 18.3011 15.2817 18.1296 15.4248C17.7801 15.7163 17.7836 15.7857 17.7908 15.8115C17.8082 15.8761 17.9066 15.9007 17.9359 15.9078C18.1122 15.9521 18.2879 15.824 18.3718 15.763C18.5001 15.6696 18.5013 15.6217 18.5655 15.6181C18.7195 15.6098 18.8622 15.8779 18.9042 15.9563C18.9839 16.106 18.9666 16.1539 19.0493 16.2466C19.1152 16.3203 19.2513 16.4304 19.3401 16.3915C19.4546 16.3418 19.3886 16.0892 19.4852 16.0533C19.5721 16.021 19.7352 16.1844 19.8239 16.3436C19.9444 16.5591 19.8905 16.6986 20.0176 16.7788C20.1147 16.8404 20.2106 16.7985 20.2598 16.8758C20.2772 16.9033 20.2844 16.9392 20.2598 17.0691C20.237 17.1894 20.2208 17.275 20.1626 17.4073C20.0673 17.6276 19.9954 17.6605 20.0176 17.7455C20.0421 17.8425 20.1471 17.8484 20.1626 17.9388C20.168 17.9688 20.1614 17.9981 20.1489 18.0262C20.174 17.9969 20.2046 17.9742 20.2352 17.9628C20.3521 17.9191 20.4372 18.043 20.6465 18.1322C20.6902 18.1507 20.7346 18.1591 20.8198 18.1819C20.9744 18.2232 21.0146 18.2256 21.1063 18.2531C21.2286 18.2902 21.3192 18.3345 21.3486 18.3495C21.511 18.4327 21.6249 18.5344 21.6873 18.5913C21.8498 18.7385 21.8732 18.8104 21.9535 18.8086C22.0003 18.8074 21.9985 18.7834 22.1711 18.6877C22.2413 18.6488 22.2904 18.626 22.3648 18.5907C22.4913 18.5314 22.5237 18.5236 22.5428 18.5195C22.6172 18.5045 22.6574 18.5236 22.7281 18.5177C22.824 18.5099 22.9122 18.5045 23.0189 18.4692C23.3301 18.3668 23.3954 18.1699 23.5759 18.2034C23.6298 18.2136 23.7012 18.2441 23.721 18.2998C23.7677 18.4321 23.4991 18.6236 23.4787 18.638C23.3732 18.7122 23.2635 18.7535 23.14 18.7828C22.6921 18.89 22.4829 18.7397 22.2443 18.9037C22.2047 18.9307 22.1136 18.9953 22.0992 19.0971C22.0902 19.1587 22.1136 19.212 22.1477 19.2904C22.2071 19.4263 22.2461 19.4275 22.2689 19.5077C22.2952 19.5999 22.2814 19.731 22.1963 19.822C22.0956 19.9297 21.9511 19.9213 21.9055 19.9189C21.8642 19.9165 21.752 19.91 21.6633 19.822C21.5494 19.7094 21.5644 19.552 21.5662 19.5323C21.5818 19.3916 21.6729 19.3772 21.7113 19.2419C21.758 19.0797 21.6867 18.8942 21.5902 18.7828C21.4667 18.6398 21.2904 18.6057 21.0818 18.5655C20.9948 18.5488 20.957 18.5482 20.7172 18.5099C20.6591 18.5003 20.5901 18.4883 20.5008 18.4692C20.3335 18.4339 20.1752 18.3973 20.1135 18.2758C20.1069 18.2627 20.0835 18.2154 20.0895 18.1549C20.0919 18.1328 20.0973 18.1112 20.1063 18.0909C20.0757 18.1286 20.0397 18.1597 20.017 18.1789C19.6171 18.5183 19.4174 18.6883 19.2909 18.7589C18.9066 18.9738 18.6404 19.1815 18.129 19.5807C17.8496 19.7986 17.5067 19.9201 17.2093 20.1123C17.1817 20.1302 17.0996 20.1841 17.0156 20.1608C16.9641 20.1464 16.9347 20.1093 16.8705 20.0159C16.738 19.825 16.6721 19.728 16.6769 19.6777C16.6847 19.5933 16.7476 19.5406 16.8705 19.4359C17.0564 19.2785 17.1349 19.2958 17.2093 19.1941C17.307 19.0618 17.2788 18.8882 17.2578 18.7589C17.2063 18.4404 17.036 18.2202 16.9671 18.1304C16.497 17.5192 16.262 17.214 16.0953 16.9703C15.8861 16.6639 15.6415 16.3789 15.4658 16.0521C15.4082 15.945 15.2787 15.6936 15.175 15.7139C15.1259 15.7235 15.0893 15.7935 15.0299 15.9072C14.9592 16.0425 14.961 16.0946 14.9328 16.1006C14.8591 16.1156 14.7835 15.7588 14.5941 15.4236C14.2745 14.8573 13.9651 14.9435 13.7223 14.4084C13.6072 14.154 13.6102 13.9876 13.4315 13.8769C13.2631 13.7715 13.0017 13.7601 12.8991 13.8769C12.8104 13.978 12.8758 14.1343 12.802 14.1666C12.7253 14.2001 12.5934 14.0576 12.5598 14.0217C12.4129 13.8631 12.3841 13.726 12.3176 13.5865C12.1491 13.2334 11.9597 13.3286 11.6881 12.9096C11.558 12.709 11.5538 12.6133 11.3973 12.4744C11.3175 12.4038 11.194 12.2942 11.01 12.281C10.7893 12.2655 10.5717 12.3954 10.4776 12.5714C10.444 12.633 10.444 12.6671 10.429 12.958C10.399 13.5399 10.3894 13.5836 10.429 13.6829C10.4692 13.7853 10.4824 13.747 10.6712 14.0696C10.8247 14.3324 10.8355 14.3904 10.8163 14.4078C10.7899 14.4323 10.7048 14.3803 10.6712 14.3593C10.4986 14.2534 10.4386 14.1301 10.2839 13.9241C10.1364 13.7278 10.0603 13.629 9.94518 13.586C9.9218 13.577 9.76712 13.5219 9.60644 13.586C9.3954 13.6704 9.32106 13.9008 9.2677 14.0696C9.19695 14.2905 9.21074 14.482 9.21913 14.6011C9.22873 14.7376 9.23352 14.8059 9.2677 14.8915C9.30907 14.9962 9.36782 15.0668 9.41279 15.2297C9.43197 15.2997 9.43917 15.3518 9.41279 15.3745C9.38701 15.3967 9.34024 15.3817 9.31626 15.3745C9.24252 15.3518 9.20475 15.3063 9.17117 15.2781C9.06385 15.1872 8.87859 15.1668 8.78386 15.2297C8.72271 15.2704 8.70412 15.3422 8.68674 15.423C8.57882 15.9384 8.63098 16.3783 8.63817 16.4382C8.65676 16.5884 8.66635 16.6633 8.68674 16.7285C8.78746 17.0529 9.02128 17.2666 9.12261 17.357C9.33305 17.5444 9.47634 17.5857 9.46135 17.6473C9.44756 17.7048 9.31206 17.712 8.92895 17.7437C8.31742 17.7946 8.22928 17.8125 8.15434 17.8886C8.00266 18.043 8.03623 18.3028 8.05721 18.4686C8.0704 18.5727 8.11777 18.9373 8.39596 19.1456C8.6088 19.3042 8.78926 19.2461 9.07404 19.4838C9.16218 19.5574 9.22933 19.6155 9.21913 19.6771C9.19515 19.8226 8.78686 19.734 8.44452 19.9668C8.13096 20.1811 7.95829 20.6073 8.00865 20.982C8.02724 21.1203 8.04582 21.2586 8.15374 21.3687C8.45651 21.6782 9.06625 21.3639 9.2671 21.6584C9.31746 21.732 9.33005 21.826 9.31566 21.9002C9.2659 22.1528 8.90617 22.1385 8.68614 22.4318C8.53985 22.6275 8.46251 22.9502 8.58901 23.1567C8.75868 23.4326 9.2629 23.4536 9.41219 23.447C9.44756 23.4452 9.49133 23.441 9.55728 23.447C9.77312 23.4673 9.82288 23.5631 9.94459 23.5434C10.0843 23.5206 10.1418 23.374 10.1868 23.3985C10.23 23.4218 10.1934 23.5667 10.1868 23.5918C10.1502 23.7349 10.0819 23.8169 10.0417 23.8822C9.96557 24.0049 9.95897 24.1252 9.94459 24.3658C9.9188 24.8111 9.89662 25.1948 10.1382 25.381C10.3948 25.5791 10.8103 25.4468 10.8643 25.4295C11.1976 25.3229 11.3499 25.0805 11.4452 25.1392C11.519 25.1847 11.4333 25.3331 11.4938 25.6228C11.51 25.7006 11.5502 25.8832 11.6875 26.058C11.7402 26.125 11.8667 26.2861 12.0748 26.3483C12.359 26.4333 12.6401 26.2878 12.8979 26.155C13.2079 25.9945 13.2025 25.9095 13.3338 25.9131C13.654 25.9227 13.7487 26.4357 14.1084 26.4447C14.2205 26.4477 14.3057 26.3998 14.3992 26.3483C14.4831 26.3016 14.6678 26.1795 14.8351 25.8168C15.0581 25.3337 14.9994 24.968 15.1259 24.9464C15.214 24.9315 15.2476 25.1092 15.4646 25.1883C15.4868 25.1966 15.6714 25.2607 15.8519 25.1883C16.1253 25.0787 16.1223 24.7633 16.2878 24.7531C16.4335 24.7441 16.4575 24.9895 16.7237 25.0913C16.8777 25.1505 17.1026 25.1571 17.2081 25.0428C17.3298 24.9111 17.2387 24.6783 17.3046 24.6561C17.3748 24.6328 17.4467 24.9039 17.6434 24.9464C17.8004 24.9799 17.9593 24.8507 18.0792 24.7531C18.322 24.555 18.3958 24.3425 18.4665 24.3664C18.5151 24.3826 18.5205 24.4975 18.5151 24.5597C18.5091 24.6304 18.4797 24.7429 18.3214 24.8979C18.069 25.1446 17.8556 25.141 17.837 25.2846C17.8274 25.3589 17.8742 25.4427 17.9341 25.478C18.0427 25.5426 18.1542 25.4241 18.2729 25.478C18.373 25.5235 18.4216 25.6659 18.418 25.7683C18.4072 26.0628 17.9551 26.2436 17.9335 26.2519C17.3826 26.465 17.1325 26.0089 16.578 26.2034C16.3088 26.298 16.1277 26.4902 15.8519 26.7835C15.765 26.8763 15.7188 26.9397 15.7068 27.0253C15.6816 27.2013 15.8171 27.3384 15.7554 27.412C15.72 27.4539 15.6697 27.4168 15.6103 27.4605C15.5132 27.5317 15.5222 27.7209 15.5617 27.8472C15.5995 27.9669 15.6481 27.977 15.7068 28.089C15.7734 28.2159 15.8465 28.4625 15.7554 28.6205C15.6193 28.8564 15.208 28.742 15.1259 28.9587C15.0953 29.0389 15.1187 29.1425 15.1744 29.2005C15.3195 29.3508 15.6798 29.1832 15.7068 29.249C15.7212 29.2843 15.6205 29.3442 15.5132 29.4424C15.2955 29.6411 15.1121 29.9404 15.1744 30.0224C15.2488 30.12 15.6577 29.8919 15.7068 29.9739C15.7452 30.0374 15.527 30.2151 15.5617 30.2642C15.6091 30.3307 16.0264 30.0332 16.1913 30.1673C16.217 30.1882 16.244 30.2265 16.2398 30.2642C16.2302 30.3414 16.0929 30.3839 15.9976 30.4091C15.5222 30.5348 15.0779 30.5055 15.0779 30.5055C14.7014 30.4809 14.5893 30.4217 14.3998 30.5055C14.3339 30.5348 14.2739 30.5743 14.1576 30.6024C14.0563 30.6264 13.904 30.6629 13.7703 30.6024C13.6432 30.545 13.654 30.4552 13.4315 30.1673C13.3194 30.0224 13.2619 29.9494 13.1893 29.9254C13.0814 29.8901 12.9633 29.92 12.7535 29.9739C12.6114 30.0104 12.6042 30.0254 12.5598 30.0224C12.3422 30.0068 12.2031 29.6213 12.1725 29.5387C11.9009 28.8079 11.3727 28.1991 11.0106 27.5084C10.1964 25.9562 10.1874 26.2867 9.94518 25.6234C9.74554 25.0763 9.64901 24.5693 9.17057 24.2215C9.06865 24.1473 8.77187 23.9312 8.49248 24.0282C8.2137 24.1252 8.11417 24.4783 8.10518 24.5119C7.97448 25.0009 8.38277 25.393 9.36422 26.7356C9.76472 27.2827 10.0735 27.7334 10.2839 28.0405C11.23 29.4208 11.0376 29.2664 11.2522 29.4909C11.507 29.7566 11.8721 30.0727 11.7846 30.3127C11.7366 30.445 11.5819 30.4665 11.5424 30.6509C11.5142 30.7844 11.5598 30.9346 11.6389 31.0376C11.754 31.1866 11.8757 31.1531 11.9297 31.2794C11.9902 31.4219 11.8637 31.5344 11.9297 31.6176C12.0094 31.7182 12.2331 31.6027 12.317 31.7146C12.3656 31.7786 12.3128 31.8451 12.3656 31.9079C12.4213 31.975 12.5214 31.9486 12.6563 31.9564C12.8206 31.966 13.1162 32.0318 13.1887 32.1982C13.2535 32.3467 13.1024 32.4868 13.1887 32.5849C13.2121 32.6119 13.2853 32.6352 13.4309 32.6813C13.5533 32.7202 13.5545 32.7136 13.576 32.7298C13.6072 32.7525 13.6618 32.81 13.6732 33.1165C13.6804 33.311 13.66 33.332 13.6732 33.4547C13.6905 33.6127 13.7367 33.6893 13.7703 33.7929C13.9016 34.2041 13.6222 34.416 13.7703 34.6632C13.8692 34.8272 14.1066 34.923 14.2547 34.8565C14.3818 34.7991 14.4166 34.6333 14.4484 34.4699C14.5485 33.9545 14.4316 33.2913 14.2062 33.0195C14.1792 32.9872 14.0886 32.8854 14.0611 32.7292C14.0467 32.6478 14.0551 32.5849 14.0611 32.5358C14.1096 32.1587 14.1336 31.9702 14.1096 31.9073C14.0179 31.6721 13.663 31.6733 13.6738 31.5691C13.6822 31.4871 13.9076 31.4069 14.1096 31.4243C14.2835 31.4386 14.4034 31.5224 14.4484 31.4728C14.4921 31.4249 14.4094 31.3153 14.4484 31.2794C14.5065 31.2261 14.72 31.4422 14.8357 31.3758C14.9064 31.3351 14.8633 31.2333 14.9328 31.1824C15.0683 31.0831 15.3855 31.3584 15.4652 31.2794C15.5072 31.2381 15.4316 31.1519 15.4652 31.0861C15.5318 30.955 15.952 31.0502 16.3849 31.1346C17.346 31.3213 17.6056 31.3034 17.8376 31.2309C17.9797 31.1866 18.2519 31.1022 18.322 30.8927C18.3928 30.6802 18.2237 30.4336 18.322 30.3612C18.352 30.339 18.3904 30.3462 18.4671 30.3612C18.6908 30.4049 18.7837 30.5426 18.8544 30.5061C18.8964 30.4845 18.9096 30.4127 18.903 30.3612C18.882 30.2032 18.6626 30.1936 18.6122 30.023C18.5906 29.9488 18.599 29.8398 18.6608 29.7812C18.7669 29.6812 18.93 29.8237 19.2417 29.7812C19.3371 29.768 19.5421 29.7405 19.6291 29.5878C19.6812 29.4968 19.692 29.3598 19.6291 29.2975C19.5823 29.252 19.5307 29.2808 19.3868 29.249C19.3359 29.2377 19.231 29.2143 19.1446 29.1527C19.0151 29.0593 18.9767 28.912 18.951 28.8145C18.9342 28.7498 18.897 28.5774 18.951 28.3793C19.0217 28.1195 19.2064 27.977 19.4354 27.7993C19.7028 27.5922 19.9294 27.4162 20.2586 27.4126C20.4918 27.4102 20.6651 27.4952 20.791 27.5574C20.9493 27.6353 21.2268 27.8076 21.4205 28.1375C21.5212 28.3093 21.7353 28.6744 21.6142 29.0078C21.4679 29.4095 20.9972 29.3167 20.6944 29.8297C20.5428 30.0858 20.4672 30.436 20.5973 30.5545C20.7142 30.6611 20.9487 30.5348 20.9846 30.603C21.038 30.7042 20.5571 31.0573 20.4522 31.1346C19.9594 31.4967 19.5589 31.6894 19.3389 31.9079C19.0547 32.1899 19.0481 32.1976 19.0481 32.1982C19.0283 32.2228 19.0001 32.2587 18.951 32.2946C18.8496 32.37 18.7489 32.382 18.7087 32.391C18.412 32.4574 18.3862 33.0387 18.1278 33.068C18.0522 33.0764 17.9857 33.0345 17.8856 32.971C17.7561 32.8896 17.6805 32.7825 17.6434 32.7292C17.5252 32.5592 17.53 32.458 17.4497 32.4389C17.3604 32.4179 17.2686 32.5215 17.256 32.5352C17.2063 32.5909 17.1787 32.6591 17.1589 32.9219C17.1403 33.1685 17.1313 33.2919 17.1589 33.4535C17.1991 33.6863 17.2525 33.666 17.256 33.7917C17.262 34.0395 17.0522 34.1191 16.7716 34.565C16.6445 34.7674 16.5636 34.899 16.5294 35.0966C16.5006 35.2648 16.5264 35.4019 16.578 35.6766C16.6229 35.9148 16.6715 36.1632 16.8202 36.45C16.9143 36.6313 16.9749 36.7445 17.111 36.8366C17.2333 36.9199 17.4905 37.0354 17.6434 36.9336C17.7848 36.839 17.7057 36.6475 17.837 36.1603C17.8472 36.1231 17.9581 35.7155 18.0307 35.7251C18.0774 35.7311 18.0522 35.9029 18.1272 36.1118C18.2321 36.4033 18.4605 36.5691 18.5631 36.6433C18.5984 36.669 19.15 37.0623 19.3862 36.8851C19.6165 36.7121 19.3778 36.1231 19.5313 36.0633C19.5679 36.0495 19.6201 36.0669 19.8701 36.3051C20.2628 36.6786 20.2208 36.7169 20.3545 36.7888C20.541 36.8887 20.5721 36.7864 21.2262 36.8372C21.5086 36.8588 21.5782 36.8839 21.7107 36.8372C21.9679 36.7469 22.0992 36.5158 22.1465 36.5475C22.1789 36.5691 22.1154 36.6774 22.098 36.8372C22.0752 37.0533 22.1525 37.2257 22.1951 37.3209C22.3858 37.7465 22.8942 38.0272 23.357 37.9979C23.3702 37.9973 23.3984 37.9949 23.4368 37.9895C23.429 37.9841 23.426 37.9775 23.4296 37.974C23.4218 37.3215 23.4134 36.669 23.4056 36.0166L23.4542 34.228L23.5027 30.603V28.3314C23.5027 28.3314 23.5921 25.8329 23.5998 25.6246C23.646 24.3113 23.6976 22.2444 23.721 18.9301C23.7287 18.8415 23.7371 18.7529 23.7449 18.6643C24.0273 18.8654 24.3097 19.0672 24.5921 19.2683C24.6646 19.2922 24.7372 19.3168 24.8097 19.3407L24.8583 21.0808V22.8209L24.7612 23.1112L24.7126 25.0446C24.7126 25.0446 24.7126 26.1083 24.7126 26.1562C24.7126 26.2046 24.6155 29.2011 24.6155 29.2011V31.5697V33.5516C24.6155 34.5507 24.6155 35.5497 24.6155 36.5487C24.6041 36.6547 24.5825 36.7774 24.5429 36.9115C24.5297 36.957 24.5148 36.9995 24.4998 37.0414C24.5279 36.9887 24.5597 36.9528 24.6155 36.936C24.7378 36.8995 24.8055 37.0049 25.0028 37.0809C25.278 37.1874 25.6161 37.1635 25.8913 37.0539C25.7732 37.006 25.724 36.514 25.9711 34.7123C25.9633 33.3667 25.9549 32.0217 25.9471 30.6761C25.9573 30.682 25.9657 30.688 25.974 30.6946C25.9716 30.6808 25.9699 30.6665 25.9711 30.6521C25.9717 30.6431 25.9752 30.6072 25.995 30.5791C26.0274 30.2732 26.0598 29.9673 26.0916 29.6615C26.1323 29.6902 26.1659 29.7153 26.1947 29.7369C26.0808 29.6321 25.8859 29.4813 25.5352 29.2502C25.0687 28.9438 24.9962 28.9366 24.9542 28.8151C24.8259 28.4457 25.3092 27.9735 25.4866 27.7999C25.6455 27.6442 25.7882 27.5054 25.9465 27.4287C25.9543 24.7812 25.9627 22.1337 25.9705 19.4862C26.4417 19.4227 26.6587 19.3377 26.769 19.2689C26.7834 19.2599 26.8704 19.2048 26.9933 19.133C27.1432 19.0456 27.2181 19.0019 27.2289 19.0025C27.3476 19.0109 27.3698 20.8982 27.1078 27.3886C27.0604 27.5461 27.0131 27.7035 26.9657 27.8609C27.0023 27.8879 27.0412 27.9154 27.0832 27.9447C27.5239 28.2512 27.7421 28.3314 27.8578 28.6217C27.8956 28.7157 27.9514 28.8558 27.9064 29.0084C27.8542 29.1874 27.7097 29.2287 27.4705 29.5399C27.3932 29.6405 27.2877 29.78 27.3254 29.8297C27.3734 29.8937 27.6018 29.7375 27.7127 29.8297C27.7625 29.871 27.7613 29.9398 27.7613 30.0715C27.7613 30.6497 27.7865 30.691 27.8099 30.7C27.8584 30.7185 27.9184 30.6 28.1486 30.4097C28.2649 30.3133 28.3303 30.2606 28.3746 30.2618C28.3423 30.1852 28.3267 30.0996 28.2937 30.023C28.0731 29.5076 28.2451 28.2344 28.2451 28.2344C28.2451 28.186 28.3417 26.301 28.3417 26.2525C28.3656 26.1801 28.3896 26.1083 28.4142 26.0358C28.3578 26.0185 28.3015 25.9951 28.2451 25.9628C28.199 25.9359 28.0809 25.8623 28.0029 25.721C27.952 25.6288 27.886 25.4498 27.9543 25.3828C28.0407 25.2984 28.2601 25.4672 28.3417 25.3828C28.3968 25.3253 28.359 25.1799 28.2931 25.0925C28.2391 25.0213 28.1996 25.032 28.0994 24.9476C27.9957 24.8602 27.9418 24.7675 27.9058 24.7058C27.8734 24.6501 27.7463 24.4316 27.8087 24.3676C27.8356 24.3401 27.8872 24.3514 27.9537 24.3676C28.112 24.4053 28.2295 24.4346 28.3201 24.455L28.3165 24.4532C28.3165 24.4532 28.3417 20.0177 28.3417 19.9213C28.3506 19.877 28.3692 19.819 28.4142 19.8004C28.4274 19.795 28.44 19.7944 28.4532 19.7968C28.422 19.7753 28.3854 19.7525 28.3417 19.728C28.2391 19.6705 28.1414 19.628 28.148 19.5831C28.1528 19.552 28.2062 19.5269 28.2931 19.4868C28.362 19.4544 28.3746 19.458 28.3902 19.4383C28.4334 19.3832 28.404 19.2659 28.3417 19.1965C28.2673 19.1139 28.181 19.1396 28.0509 19.0995C27.8914 19.051 27.7667 18.89 27.5185 18.5679C27.3992 18.4129 27.3434 18.3207 27.3734 18.2776C27.4058 18.2321 27.5065 18.286 27.567 18.2291C27.6276 18.1723 27.6132 18.0358 27.567 17.9388C27.4837 17.7646 27.3194 17.764 27.2763 17.6006C27.2679 17.5689 27.2709 17.5312 27.2763 17.4558C27.2895 17.2786 27.3242 17.1601 27.3734 16.9721C27.3866 16.9212 27.4148 16.8093 27.4705 16.5854C27.5401 16.3053 27.5628 16.2059 27.6156 16.1988C27.687 16.1892 27.7355 16.3562 27.8093 16.3436C27.8692 16.3334 27.8584 16.2203 27.9543 16.1018C28.0503 15.9839 28.2044 15.9204 28.2451 15.9569C28.2829 15.9905 28.202 16.0916 28.2451 16.1503C28.2883 16.2089 28.431 16.1904 28.5359 16.1503C28.8645 16.0246 28.8459 15.6786 29.1169 15.6187C29.2182 15.5972 29.3519 15.611 29.4616 15.6666ZM14.0892 33.5756C14.1234 33.7875 14.2104 33.7887 14.2589 33.9862C14.3063 34.1795 14.2925 34.4621 14.1618 34.5177C14.1006 34.5441 14.0143 34.5201 13.9681 34.4693C13.8974 34.3914 13.9657 34.2987 13.9442 34.0586C13.931 33.9144 13.904 33.9204 13.8956 33.7683C13.8854 33.5792 13.9256 33.5367 13.9196 33.4541C13.919 33.4493 13.9178 33.4331 13.9274 33.4205C13.9448 33.3966 13.9903 33.3954 14.0161 33.4056C14.0719 33.4283 14.0803 33.5205 14.0892 33.5756ZM13.8716 33.1165C13.904 33.074 13.9849 33.0734 14.0167 33.1165C14.0377 33.1452 14.0323 33.1859 14.0167 33.2128C13.9975 33.2464 13.9561 33.2709 13.9196 33.2613C13.8662 33.247 13.8362 33.162 13.8716 33.1165ZM19.0277 20.2344C18.4611 20.5876 17.903 20.9174 17.3574 21.225L16.9701 20.5002C16.9701 20.5002 17.0186 20.4038 17.0186 20.3553C17.0186 20.3068 18.4228 19.6304 18.4228 19.5819C18.4228 19.309 19.0205 19.2713 19.391 18.9049C19.4726 18.9397 19.6219 19.0157 19.7544 19.1707C19.9084 19.3515 19.9558 19.5412 19.972 19.6298C19.6656 19.8321 19.3509 20.0333 19.0277 20.2344ZM22.1022 24.2221C21.9949 24.3293 21.8552 24.3215 21.8114 24.3185C21.7658 24.3161 21.6489 24.3095 21.5692 24.2221C21.4667 24.1096 21.4739 23.9139 21.5692 23.787C21.6807 23.6385 21.9055 23.5942 22.0536 23.69C22.1759 23.769 22.1963 23.9121 22.1987 23.9318C22.2017 23.951 22.2185 24.1066 22.1022 24.2221ZM22.1507 22.0475C22.0248 22.1211 21.8636 22.0828 21.7634 21.999C21.6321 21.8895 21.6004 21.6973 21.6669 21.5638C21.7071 21.4824 21.7748 21.4411 21.812 21.419C21.8492 21.3962 22.0134 21.2969 22.1507 21.3705C22.2754 21.4375 22.2904 21.601 22.2958 21.6602C22.3006 21.7117 22.3222 21.9469 22.1507 22.0475ZM28.6558 33.2853C28.6582 33.2853 28.66 33.2853 28.6624 33.2853C28.6624 33.2811 28.6618 33.2763 28.6618 33.2709C28.66 33.2757 28.6582 33.2805 28.6558 33.2853ZM29.3165 34.5662C29.3063 34.5513 29.2967 34.5375 29.2871 34.5237C29.2907 34.5351 29.2925 34.5417 29.2925 34.5417C29.3603 34.7919 29.3651 34.9044 29.3651 34.9044C29.3933 35.5365 29.2134 36.177 29.2686 36.6445C29.2733 36.684 29.2859 36.7822 29.2488 36.8953C29.3927 36.6996 29.4844 36.5685 29.5587 36.3542C29.7248 35.8771 29.6427 35.4587 29.6073 35.2905C29.5749 35.1385 29.5132 34.8583 29.3165 34.5662ZM29.2919 24.6058C29.3315 24.6094 29.3591 24.6088 29.3645 24.6088C29.4005 24.6082 29.681 24.6016 29.8004 24.4155C29.9257 24.2197 29.7902 23.9546 29.8489 23.9318C29.9005 23.9121 29.9664 24.1324 30.1877 24.27C30.2056 24.2814 30.3292 24.3556 30.4928 24.3772C30.4551 24.3197 30.4742 24.2371 30.4778 24.2215L30.5264 17.9376C30.5228 17.8862 30.5096 17.6048 30.6949 17.3857C30.4245 17.5863 30.1691 17.8484 29.8004 18.2274C29.7074 18.3231 29.5479 18.4949 29.5581 18.711C29.5641 18.8379 29.6277 18.9516 29.6553 19.0013C29.7158 19.1109 29.7584 19.13 29.8975 19.2916C30.0408 19.458 30.1127 19.5412 30.1397 19.6298C30.2038 19.8399 30.1097 20.0291 30.0911 20.065C30.0612 20.1231 29.9934 20.253 29.8489 20.3068C29.75 20.3439 29.6637 20.3272 29.5581 20.3068C29.4053 20.2775 29.3543 20.2302 29.1708 20.162C29.1696 20.1614 29.1678 20.1608 29.1666 20.1602C29.1762 20.168 29.1852 20.1763 29.1948 20.1859C29.2668 20.2589 29.2997 20.3439 29.3159 20.4032L29.2919 24.6058Z" fill="white"/>
<defs>
<filter id="filter0_d" x="0" y="0" width="46" height="61.5771" filterUnits="userSpaceOnUse" color-interpolation-filters="sRGB">
<feFlood flood-opacity="0" result="BackgroundImageFix"/>
<feColorMatrix in="SourceAlpha" type="matrix" values="0 0 0 0 0 0 0 0 0 0 0 0 0 0 0 0 0 0 127 0"/>
<feOffset dy="4"/>
<feGaussianBlur stdDeviation="1.5"/>
<feColorMatrix type="matrix" values="0 0 0 0 0 0 0 0 0 0 0 0 0 0 0 0 0 0 0.15 0"/>
<feBlend mode="normal" in2="BackgroundImageFix" result="effect1_dropShadow"/>
<feBlend mode="normal" in="SourceGraphic" in2="effect1_dropShadow" result="shape"/>
</filter>
</defs>
</svg>
