<?xml version="1.0" encoding="utf-8"?>
<!-- Generator: Adobe Illustrator 24.1.2, SVG Export Plug-In . SVG Version: 6.00 Build 0)  -->
<svg width="60" height="60" version="1.1" id="Layer_1" xmlns="http://www.w3.org/2000/svg" xmlns:xlink="http://www.w3.org/1999/xlink" x="0px" y="0px"
	 viewBox="0 0 52.9 61.1" style="enable-background:new 0 0 52.9 61.1;" xml:space="preserve">
<style type="text/css">
	.st0{fill:#D50000;}
	.st1{fill:#FFFFFF;}
	.st2{fill:#FFFFFF;stroke:#000000;stroke-width:0.5;stroke-miterlimit:10;}
	.st3{fill:none;stroke:#000000;stroke-width:0.3;}
</style>
<g>
	<path class="st0" d="M15.6,50.4c0.6,0.2,1.1,0.4,1.7,0.5c4.4,1.5,6.9,5.7,8.2,10.2c1.3-4.5,3.8-8.7,8.2-10.2c0.5-0.2,1-0.3,1.5-0.5
		c9.8-3,10.3-10.8,10.3-12.4V6.5h-40V38C5.4,39.6,5.8,47.4,15.6,50.4z"/>
</g>
<path class="st1" d="M28.8,43.1C28.8,43.1,28.8,43.1,28.8,43.1L28.8,43.1C28.8,43.1,28.8,43.1,28.8,43.1z M28.5,37.4
	C28.5,37.4,28.5,37.4,28.5,37.4C28.5,37.4,28.5,37.4,28.5,37.4C28.5,37.4,28.5,37.4,28.5,37.4z M40.6,24.6
	C40.6,24.6,40.6,24.6,40.6,24.6c0.1,0.1,0,0.1,0.1,0.2c0,0,0,0.1,0,0.1c0,0.4,0,0.6,0,0.7c0,0,0,0.1,0,0.2c0,0.1,0,0.1,0,0.2
	c0,0,0,0,0,0c0.2-0.1,0.3-0.2,0.4-0.4c0.1-0.1,0.2-0.3,0.2-0.4c0-0.1-0.1-0.3-0.2-0.4c-0.1,0-0.1-0.1-0.3-0.1
	C40.8,24.6,40.7,24.6,40.6,24.6z M35.2,28.3l0.1-0.6l-0.1-2.1l0-1.3c0-0.6,0-1.3,0-1.9c0,0,0,0,0,0c-0.1,0.1-0.2,0-0.2,0
	c-0.2,0.1-0.2,0.4-0.4,0.5c-0.2,0.1-0.4-0.1-0.4,0c0,0,0,0.1,0,0.2c0,0.1,0,0.1-0.1,0.2c0,0,0,0,0,0c0,0,0,0-0.1,0.2l0,0.3L34,24.2
	v1.1v5.5c0,0.2,0,0.3,0,0.5c0,0,0,0.1,0,0c0,0,0-0.1,0-0.1c0,0,0,0.1-0.1,0.2c0.2,0.1,0.4,0.1,0.5,0c0.2-0.1,0.2-0.3,0.3-0.2
	c0.1,0,0.1,0.1,0.2,0.2c0.2,0.5,0.2,0.4,0.3,0.6c0,0,0,0.1,0,0.1c0-0.1,0-0.1,0-0.2C35.2,30.7,35.2,29.5,35.2,28.3z M36.2,21.4
	C36.2,21.4,36.2,21.4,36.2,21.4c0.1,0,0.2,0.1,0.2,0.1l0,6v2.5l0,2c0,0.1,0,0.2-0.1,0.2c0,0,0,0,0,0c0.1,0,0.1,0.1,0.3,0.2
	c0.1,0,0.3,0.1,0.5,0c0.1,0,0.2,0,0.2-0.1c0,0,0.1-0.1,0.1-0.2c0-0.1,0-0.2,0-0.2c0,0,0.1,0,0.1,0c0.1-0.1-0.1-0.5,0-0.5
	c0,0,0.1,0,0.1,0c0,0-0.1-0.2-0.1-0.3c0,0,0,0,0,0c-0.1-0.1-0.1-0.2-0.1-0.2c0-0.3,0-0.6,0-0.8v-0.7v-1.6v-1.1V26v-1.9v-3.4
	c0-0.1,0-0.1,0-0.2c0,0,0,0-0.1,0c-0.1,0-0.1,0-0.2,0c-0.2,0-0.2,0.2-0.4,0.4c-0.1,0.1-0.2,0.2-0.4,0.3
	C36.4,21.4,36.4,21.4,36.2,21.4C36.3,21.4,36.2,21.4,36.2,21.4z M28.8,36.6C28.8,36.6,28.8,36.6,28.8,36.6c0,0.2,0,0.3,0.1,0.4
	c0,0.1,0,0.2-0.1,0.2c0,0,0,0,0,0c0,0,0,0-0.1,0c0.1,0.1,0.2,0.1,0.2,0.1c0,0,0-0.1,0-0.2C28.9,36.9,28.8,36.7,28.8,36.6z
	 M15.2,18.4c0.1,0,0.1-0.1,0.2-0.1c0.1,0,0.2,0,0.3,0.1c0,0.1,0,0.1,0,0.3c0,0,0,0.2,0.1,0.4c0,0.1,0.1,0.2,0.2,0.3
	c0.2,0.1,0.4,0.1,0.5,0.1c0.1,0,0.5,0,0.5-0.1c0-0.1-0.1-0.1-0.2-0.3c-0.1-0.2-0.1-0.4-0.1-0.5c0.1-0.4,0.9-0.6,0.9-0.6
	c0,0,0.1,0,0.1-0.1c0-0.1,0-0.2,0-0.3c-0.1-0.1-0.1-0.1-0.1-0.2c0-0.2,0.2-0.3,0.3-0.4c0.3-0.1,0.3,0,0.6-0.1
	c0.2-0.1,0.3-0.2,0.4-0.1c0.1,0,0.1,0.1,0.1,0.1c0,0.1,0,0.2,0,0.3c0,0.1,0,0.2,0,0.4c0,0.2,0.1,0.3,0.1,0.4
	c0.1,0.1,0.2,0.2,0.4,0.3c0.1,0.1,0.3,0.1,0.6,0.2c0.2,0,0.4,0.1,0.6,0c0.2,0,0.3-0.1,0.4,0c0,0,0,0,0,0.2c0,0.1-0.1,0.2-0.1,0.2
	c-0.1,0.1-0.2,0-0.3,0.1c-0.1,0-0.2-0.1-0.2,0c0,0.1,0.1,0.2,0,0.2c-0.2,0.1,0.5,0.1,1,0.1c0.1,0-0.1-0.1,0.2-0.1c0.3,0,0.9,0,1.3,0
	c0.1,0,0.4,0.1,0.5,0c0-0.1,0-0.3,0-0.2c0,0-0.1-0.1,0-0.2c0,0,0.2,0.1,0.3-0.1c0,0,0.1,0,0.1,0c0,0,0.2,0,0.2-0.1
	c0-0.1,0-0.1,0-0.2c0-0.1,0-0.2,0.1-0.2c0.2-0.1,0.5-0.1,0.9-0.4c0.3-0.2,0.5-0.4,0.9-0.7c0.1-0.2,0.3-0.3,0.4-0.5
	c0.1-0.1,0.2-0.3,0.2-0.4c0-0.1,0.1-0.1,0.1-0.1c0.2-0.1,0.5,0,0.5,0c0.3,0.1,0.1,0.6,0.6,1c0.2,0.2,0.5,0.7,1,1.1
	c0.2,0.2,0.6,0.2,0.6,0.4c0.1,0.4,0,0.5,0.1,0.6c0.1,0.1,0.2,0.1,0.8,0c0.5,0,0.5,0,1,0c0.4,0,0.4-0.1,0.6,0c0.3,0,0.4-0.1,0.7,0
	c0.1,0,0.2,0,0.4-0.2c0.1-0.1,0.2-0.3,0.3-0.5c0.1-0.2,0.1-0.3,0-0.5c0-0.3-0.2-0.3-0.1-0.5c0-0.1,0.1-0.2,0.1-0.2
	c0.1,0,0.1,0.1,0.3,0.2c0.3,0.3,0.5,0.3,0.5,0.5c0,0.1-0.1,0.1-0.2,0.3c0,0.1,0,0.2,0,0.3c0,0.3,0.1,0.5,0.3,0.6
	c0.1,0.1,0.2,0,0.2,0.1c0.1,0.1,0.1,0.3,0.1,0.3c0,0.1,0,0.2-0.1,0.3c-0.1,0.2-0.2,0.2-0.2,0.3c0,0.1,0.2,0.1,0.3,0.1
	c0.1,0,0.1-0.1,0.2-0.1c0.1,0,0.1,0,0.2,0c0.1,0,0.1,0,0.1-0.1c0.1-0.1,0.2,0,0.2-0.1c0,0,0-0.1,0-0.3c0-0.1,0-0.2,0-0.2
	c0-0.1,0-0.1,0-0.1c0-0.1,0.1,0,0.1-0.1c0,0,0-0.1,0-0.1c0.1-0.1,0.2-0.1,0.2,0c0.1,0,0.1,0,0.1,0c0.1,0.1,0,0.2,0,0.2
	c0,0,0.1,0.1,0.1,0c0.1,0,0.1-0.1,0.1-0.1c0-0.1,0-0.1,0-0.3c0-0.2,0.1-0.3,0-0.3c0,0-0.1,0-0.1-0.1c0-0.1,0-0.1,0-0.1
	c0,0-0.1,0-0.1,0c-0.1,0-0.2,0-0.2,0c-0.1,0-0.1-0.1-0.1-0.1c-0.1-0.1-0.2,0.1-0.3,0c-0.1,0-0.1-0.1-0.1-0.1c0-0.1,0.2-0.1,0.2-0.2
	c0,0,0,0,0-0.1c0-0.1,0.1-0.1,0.1-0.1c0.1-0.1,0.1-0.2,0.1-0.2c0-0.1-0.1-0.1-0.2-0.2c-0.3-0.2-0.5-0.3-0.6-0.4
	c-0.3-0.2-0.3-0.2-0.4-0.2c-0.1-0.1-0.1-0.2-0.2-0.2c-0.1-0.1-0.2,0-0.3-0.1c-0.1-0.1-0.2-0.2-0.2-0.3c-0.1-0.1,0-0.2-0.1-0.2
	c-0.1-0.1-0.3-0.1-0.5,0c-0.1,0-0.1,0.1-0.3,0.2c-0.3,0.2-0.4,0.3-0.4,0.4c0,0.1,0,0.1,0,0.2c0,0.1-0.1,0-0.1,0.1c0,0.1,0,0.1,0,0.2
	c0,0.1,0,0.1,0,0.1c0,0.1,0.1,0.1,0.1,0.1c0,0,0.1,0,0.2,0.3c0.1,0.2,0.2,0.3,0.2,0.3c0,0.2-0.1,0.4-0.2,0.6
	c-0.1,0.1-0.2,0.2-0.3,0.2c0,0-0.1,0-0.2,0c-0.1-0.1,0.1-0.3,0-0.5C31.8,18,31.6,18,31.5,18c-0.1,0-0.1,0-0.3,0c-0.2,0-0.3,0-0.4,0
	c-0.1,0-0.2,0-0.3,0c-0.1,0-0.1,0-0.1,0c-0.2,0.1-0.4,0.1-0.7,0c-0.2-0.1-0.3-0.2-0.4-0.2c-0.1-0.1-0.2-0.2-0.3-0.5
	c0-0.1-0.1-0.2-0.2-0.4c0-0.1,0-0.1-0.1-0.4c-0.1-0.2-0.1-0.3-0.1-0.3c0-0.1,0.1-0.1,0.1-0.3c0.1-0.2,0-0.2,0-0.4
	c0.1-0.2,0.2-0.4,0.2-0.5C29,15,29,15,29,14.9c0-0.1,0.1-0.2,0.1-0.3c0-0.1,0-0.1,0-0.2c0,0,0,0,0.1-0.1c0,0,0.1-0.1,0.1-0.2
	c0-0.1,0-0.2,0-0.2c0-0.1,0-0.2-0.1-0.3c-0.1-0.1-0.1,0-0.1-0.1c0-0.1,0-0.1,0-0.1c0,0-0.1,0-0.1,0c-0.1,0-0.1-0.1-0.2-0.1
	c-0.2-0.1-0.3,0-0.4,0c-0.1,0,0-0.1-0.1-0.1c-0.2-0.1-0.3,0.1-0.4,0c0,0,0-0.1,0-0.2c-0.1-0.1-0.3-0.2-0.4-0.2
	c-0.2,0-0.4,0.1-0.4,0.3c0,0.1,0,0.1,0,0.2c-0.1,0.1-0.5-0.2-0.8,0c-0.1,0-0.2,0.1-0.3,0.2c-0.1,0.1-0.3,0.3-0.4,0.7
	c0,0.1,0,0,0,0.3c0,0.2,0,0.3,0,0.3c0,0,0.1,0,0.1,0c0.1,0,0,0.1,0,0.3c0,0.2,0,0.2,0,0.2c0,0.1,0.1,0,0.1,0.1c0,0.1,0,0.1,0,0.2
	c0,0,0.1,0,0.1,0c0.1,0,0.1,0.2,0,0.3c0,0.4,0.1,0.4,0,0.6c0,0.1-0.1,0.2-0.1,0.3c-0.4,0.5-1,1-1.1,1.1c-0.5,0.4-0.7,0.5-0.9,0.5
	c-0.2,0-0.4,0-0.5,0c-0.4,0-0.5-0.2-0.9-0.2c-0.4-0.1-0.4,0-0.7,0c-0.2-0.1-0.3-0.1-0.5-0.1c-0.2,0-0.3,0.1-0.4,0
	c-0.3,0-0.6-0.2-0.7-0.5c-0.1-0.2,0-0.4,0.1-0.5c0.1,0,0.1,0,0.2,0c0,0,0-0.1,0-0.2c0-0.2,0.2-0.2,0.2-0.3c0-0.2-0.2-0.3-0.3-0.4
	c-0.3-0.2-0.5-0.5-0.9-0.4c-0.4,0-0.3,0.3-0.9,0.5c-0.4,0.1-0.8,0.1-0.8,0.1c-0.3,0-0.4-0.1-0.5,0c-0.3,0.1-0.6,0.3-0.6,0.6
	c0,0.3,0.2,0.4,0.1,0.6c0,0.1-0.1,0.1-0.2,0.1c-0.3,0.1-0.5,0-0.7,0c-0.2,0.1-0.4,0.2-0.7,0.6c-0.1,0.2-0.2,0.2-0.1,0.3
	C14.9,18.4,15.1,18.5,15.2,18.4z M28.5,13.4c0-0.1,0.1-0.1,0.1-0.1l0.2,0l0.2,0.2v0.3c-0.1,0-0.1,0-0.2,0c0,0-0.1,0-0.2-0.1
	c0-0.1,0-0.1,0-0.1l-0.2-0.1C28.4,13.5,28.4,13.4,28.5,13.4z M25.7,14.2c0,0,0-0.4,0-0.4c0,0,0-0.1,0-0.1c0-0.1,0-0.1,0.1-0.2
	c0,0,0.1-0.1,0.2-0.1c0.1,0,0.2,0,0.2,0c0,0,0.1,0,0.1,0c0,0,0.1,0,0.1,0c0,0,0,0.1,0,0.1c0,0.1-0.1,0.1-0.1,0.1c-0.1,0-0.1,0-0.2,0
	c0,0-0.1,0.1-0.1,0.1c-0.1,0.1-0.1,0.2,0,0.2c0,0,0,0.1,0,0.1c0,0.1,0,0.1,0,0.2L25.7,14.2L25.7,14.2z M25.9,15c0-0.1,0-0.1,0-0.2
	c0,0,0,0,0.1-0.1c0,0,0.1,0,0.1,0c0,0.1,0,0.1,0.1,0.2c0,0.1,0.1,0.2,0.1,0.3c0,0.1,0,0.2,0,0.2l0.1,0.1l-0.1,0.1L26,15.6
	C25.9,15.3,25.9,15.1,25.9,15z M39.5,36.5c-0.1-0.2,0.1-0.4,0-0.5c-0.1,0-0.2,0.1-0.2,0c0,0,0-0.1,0-0.1c0-0.1-0.1,0-0.1-0.1
	c-0.1-0.1,0.1-0.2,0-0.4c0-0.1-0.1-0.3-0.2-0.3c-0.1,0-0.3,0.1-0.3,0.1c-0.1,0,0-0.2,0-0.3c-0.1-0.2-0.3-0.4-0.5-0.4
	c-0.2-0.1-0.4-0.1-0.6-0.1c-0.2,0-0.4,0-0.6,0c-0.4,0.1-1,0.4-1.1,0.8c0,0.1,0,0.3-0.1,0.4c-0.1,0.1-0.2,0-0.2,0
	c-0.1,0.1,0.1,0.3,0,0.5c0,0,0,0-0.1,0.1c-0.1,0.2-0.2,0.2-0.2,0.3c-0.1,0.2,0.1,0.3,0,0.5C35,37,34.9,37.1,34.9,37c0,0,0-0.1,0-0.1
	c-0.1-0.1-0.2-0.1-0.2,0c-0.1,0,0,0.1-0.1,0.1c-0.1,0.1-0.4,0-0.4,0c0,0,0.1,0.1,0,0.1c0,0.1-0.2,0.1-0.4,0.1c-0.3,0-0.4-0.1-0.5,0
	c-0.1,0,0,0.1-0.1,0.1c-0.1,0.1-0.3,0.1-0.4,0c0-0.1,0-0.1,0-0.1c-0.1-0.1-0.3,0.1-0.5,0c-0.1,0-0.2-0.2-0.1-0.2
	c0-0.1,0.3,0.1,0.4,0c0.1-0.1,0-0.2,0-0.2c-0.1-0.2-0.3-0.2-0.2-0.2c0,0,0.1,0,0.2,0c0.3,0,0.5,0.1,0.6,0c0.1,0,0.2-0.1,0.2-0.1
	c0.1-0.1,0.1-0.3,0-0.3c0,0,0,0-0.1,0c-0.1,0-0.2-0.1-0.3-0.2c-0.2-0.2-0.3-0.2-0.2-0.2c0-0.1,0.3-0.1,0.4,0c0.2,0,0.2,0.1,0.3,0
	c0.1-0.1,0-0.2,0-0.2c-0.1-0.3-0.3-0.2-0.4-0.4c-0.1-0.4,0.2-0.7,0-1.2c-0.1-0.2-0.2-0.4-0.2-0.5c-0.1-0.1-0.4-0.6-0.9-0.7
	c0,0-0.1,0-0.1,0c0,0.1,0.1,0.2,0.1,0.2c0,0.2,0,2.6,0,5.1v0c0,0,0,0,0,0c0.1,0,0.2,0,0.4,0c0.3,0,0.4,0,0.8,0c0.2,0,0.3,0,0.4,0
	c0.2,0,0.3-0.1,0.5-0.1c0.1-0.1,0.2-0.2,0.2-0.1c0.1,0-0.1,0.3,0,0.4c0.1,0.1,0.2,0,0.2,0c0,0,0,0.1,0,0.1c-0.1,0.1-0.1,0.3-0.1,0.6
	c0,0.2,0,0.4,0,0.4c0.1,0.1,0.1,0.1,0.3,0.2c0.1,0,0.2,0.2,0.3,0.3c0.1,0.1,0,0.1,0.1,0.2c0.1,0.2,0.2,0.2,0.2,0.3
	c0.1,0.1,0.3,0.3,0.5,0.2c0.1,0,0.1-0.1,0.3-0.2c0.1,0,0.2-0.1,0.3,0c0.1,0.1,0,0.3,0.1,0.3c0,0,0.1,0,0.2,0c0.3,0,0.3,0,0.6,0
	c0.3,0,0.4-0.1,0.4-0.1c0.1-0.1,0-0.3,0.1-0.4c0.1,0,0.1,0,0.3,0c0,0,0.2,0,0.3,0c0.2,0,0.4-0.2,0.7-0.6c0,0,0.1-0.1,0.1-0.2
	c0-0.1-0.1-0.1-0.1-0.2c0,0-0.1-0.1,0-0.2c0.1-0.1,0.3-0.1,0.3-0.2c0-0.1-0.1-0.2,0-0.2c0-0.1,0.1,0,0.1-0.1c0.1-0.1,0-0.5-0.1-0.6
	c0,0-0.1-0.1-0.1-0.1c0-0.1,0-0.2,0-0.3c0.1-0.1,0.2-0.1,0.2-0.2C39.6,36.8,39.6,36.6,39.5,36.5C39.5,36.5,39.5,36.5,39.5,36.5z
	 M38.7,35.3c0.1,0,0.1,0,0.2,0c0,0.1,0,0.2-0.1,0.2c-0.1,0-0.1,0-0.1-0.1C38.6,35.3,38.7,35.3,38.7,35.3z M37.1,35
	c0-0.2,0.2-0.4,0.4-0.4c0.2,0,0.3,0.1,0.4,0.1c0,0,0.1,0.2,0.1,0.3c0,0.2-0.2,0.4-0.4,0.5C37.3,35.5,37.1,35.2,37.1,35z M34.7,39
	c-0.1,0-0.1,0-0.1,0c0,0-0.1,0-0.1,0c0-0.1,0-0.1,0-0.2c0-0.1,0-0.2,0-0.3c0,0,0.1,0,0.1,0c0,0,0.1,0,0.1,0
	C34.8,38.7,34.7,38.9,34.7,39z M35.5,40.1c-0.1,0-0.1,0-0.1,0c0,0,0-0.1,0-0.1c0,0-0.1,0-0.1,0c-0.1,0-0.1,0-0.2,0
	c0-0.1,0-0.1,0-0.1c0,0,0-0.1,0-0.1c0.1,0,0.1,0.1,0.2,0.1c0,0,0.1,0,0.1,0c0,0,0.1,0,0.1,0c0.1,0,0.1,0.1,0.1,0.1
	c0,0,0.1,0.1,0.1,0.1C35.7,40,35.6,40.1,35.5,40.1z M37.4,40.1C37.4,40.1,37.4,40.1,37.4,40.1c-0.1,0.1-0.2,0.2-0.4,0.2
	c-0.1,0-0.2,0-0.3,0l0-0.1c0,0,0-0.1,0.1-0.1c0.1,0,0.1,0,0.2,0l0.3-0.1C37.4,40,37.4,40,37.4,40.1z M38.7,39.3
	c-0.1,0.1-0.2,0.1-0.2,0.2c0,0,0,0-0.1,0.1c0,0-0.1,0-0.1,0c0,0,0,0-0.1-0.1c0,0,0-0.1,0-0.1c0-0.1,0.1-0.1,0.1-0.1
	c0.1,0,0.1,0,0.2,0c0,0,0-0.1,0-0.1c0-0.1,0.1-0.2,0.1-0.2c0,0,0.1,0,0.1,0c0.1,0,0.1,0.1,0.1,0.1C38.8,39.2,38.7,39.3,38.7,39.3z
	 M38.7,38.7c-0.1,0-0.2,0-0.2,0c-0.1,0-0.2,0.1-0.3,0.4c0,0.1-0.2,0.3-0.4,0.5c0,0-0.2,0.2-0.2,0.1c0,0,0-0.1,0-0.1
	c-0.1-0.1-0.2-0.1-0.2,0c0,0,0,0.1,0,0.1c-0.1,0.1-0.3-0.1-0.3,0c0,0,0,0.1,0,0.1c-0.1,0.1-0.3-0.1-0.4,0c0,0,0,0.1,0,0.1
	c-0.1,0.1-0.3,0-0.3,0c0-0.1,0.1-0.1,0-0.1c0-0.1-0.1-0.1-0.1-0.1c-0.4-0.1-0.5-0.4-0.7-0.3c-0.1,0,0,0.1-0.1,0.1
	c-0.1,0-0.2-0.1-0.2-0.2c0-0.1,0-0.1,0-0.1c0-0.1,0-0.1,0-0.3c0-0.3,0-0.4,0-0.5c-0.1-0.1-0.2,0-0.3-0.1c-0.1-0.1-0.1-0.1-0.1-0.2
	c0-0.1,0.3,0,0.3,0c0,0-0.1-0.1-0.1-0.1c0-0.1,0-0.2,0-0.2c0.1-0.1,0.4,0.1,0.4,0c0,0,0-0.1,0-0.1c0-0.1,0.2-0.1,0.3,0
	c0.1,0,0,0.1,0.1,0.1c0.1,0.1,0.2-0.1,0.3,0c0,0,0,0.1,0,0.1c0,0.1,0.2,0.1,0.6,0.1c0.1,0,0.3,0,0.3,0c0,0,0,0,0,0c0,0,0.1,0,0.2,0
	c0.1,0,0.2,0,0.3,0c0.4-0.2,0.7-0.3,0.8-0.4c0.1-0.1,0.1-0.1,0.1-0.1c0,0,0-0.1,0-0.1c0-0.1,0.1-0.1,0.1-0.1c0,0,0-0.1,0.1-0.1
	c0-0.1,0.1-0.1,0.1-0.2c0-0.1,0-0.1,0-0.2c0,0,0-0.1,0-0.2c0,0,0-0.1,0-0.2c0,0,0-0.1,0.1-0.1c0,0,0.1-0.1,0.1,0
	c0.1,0-0.3,1-0.1,1.2c0.1,0,0.1,0,0.2,0.1c0.1,0.1,0.1,0.2,0,0.2c-0.1,0.1-0.2,0.1-0.2,0.1c0,0.1,0,0.2,0,0.2c0,0-0.1,0-0.1,0
	c-0.1,0.1-0.2,0.5,0,0.6c0.1,0.1,0.2,0,0.2,0.1C38.9,38.6,38.8,38.7,38.7,38.7z M39.2,38C39.2,38,39.2,38,39.2,38
	c-0.1,0,0,0.1-0.1,0.2c0,0.1-0.1,0.1-0.1,0.1c0,0-0.1,0-0.1,0c0,0-0.1,0-0.1,0c0-0.1,0-0.1,0-0.2c0-0.1,0-0.1,0-0.2c0,0,0.1,0,0.1,0
	c0-0.1,0-0.1,0-0.2c0-0.1,0-0.1,0-0.2c0,0,0.1-0.1,0.1-0.1c0.1,0,0.1,0,0.1,0.1c0,0.1,0,0.1,0,0.2C39.2,37.9,39.2,38,39.2,38z
	 M39.3,36.9c0,0-0.1,0-0.1,0c0,0-0.1,0-0.1,0c0-0.1,0-0.2,0-0.3c0-0.1,0-0.1,0-0.2c0,0-0.1,0-0.1,0c0,0,0,0,0-0.1c0-0.1,0-0.1,0-0.1
	c0,0,0-0.1,0.1-0.1c0.1,0,0.2,0.1,0.2,0.1c0,0.1,0,0.2,0,0.3C39.3,36.7,39.3,36.8,39.3,36.9z M30.5,39.6c-0.1-0.2-0.2-0.2-0.8-0.9
	c-0.1-0.1-0.1-0.1-0.1-0.2c0,0,0,0,0,0c-0.1,3.7-0.1,4.7-0.2,4.7c0,0,0,0,0,0c0,0.1,0,0.1,0,0.2c0,0.1,0,0.3,0.1,0.3
	c0.2,0.1,0.4,0,0.5,0c0.1,0,0.4-0.1,0.4-0.4c0.1-0.3-0.1-0.4,0-0.5c0,0,0.1,0,0.2,0c0-0.2,0.1-2.9,0.1-3.1
	C30.5,39.7,30.5,39.6,30.5,39.6z M41,26.6c-0.2-0.1-0.2-0.1-0.3-0.1c-0.1,0-0.2-0.1-0.3-0.1c0,0,0,0,0,0c0,0,0,0.1,0,0.1
	c0.1,0.1,0.1,0.1,0.2,0.1c0,0.2,0,0.4,0,0.5c0,0.2,0,0.4,0,0.5c0,0.1,0,0.1,0,0.1c0,0,0,0.1-0.1,0.1c0,0,0,0,0,0c0,0,0,0,0,0
	c0,0,0,0,0,0c0.2,0,0.3,0,0.4,0c0.1-0.1,0.1-0.1,0.2-0.4c0.2-0.5,0.3-0.6,0.2-0.7C41.2,26.7,41.2,26.7,41,26.6z M39.5,37.5
	C39.5,37.5,39.4,37.5,39.5,37.5C39.4,37.5,39.4,37.5,39.5,37.5C39.4,37.5,39.5,37.5,39.5,37.5z M40,28.1C40,28.1,40,28.1,40,28.1
	c-0.1,0-0.1,0-0.1-0.1c0,0,0-0.1,0-0.1c0-0.1,0-0.1,0-0.1c0-0.1,0-0.3,0-0.4c0-0.2,0-0.4,0-1c0.1,0,0.2,0,0.3-0.1c0,0,0,0,0,0
	c0,0,0,0,0-0.1c0,0,0,0,0,0c0,0-0.1,0-0.1,0c-0.1,0-0.2,0-0.2,0.1c0-0.5,0-1,0-1.4c0,0,0.1-0.2,0.2-0.2c0.1,0,0.1,0,0.2,0
	c0,0,0,0,0,0c0,0,0-0.1,0-0.2c0.1-0.2,0.2-0.4,0.3-0.6c0.2-0.4,0.3-0.6,0.3-0.6c0-0.1,0-0.2,0-0.3c0-0.1,0-0.3,0-0.4
	c0,0-0.1,0-0.1,0c-0.1,0-0.1,0.1-0.1,0.4c0,0-0.1,0.2-0.1,0.2c-0.2,0.4-0.2,0.5-0.3,0.7c0,0-0.2,0.5-0.4,0.7c0,0,0,0,0,0
	c0,0,0-0.2,0-0.3c0-0.3,0-1.1,0-1.7c0-0.1,0.1-0.2,0.1-0.2c0.1,0,0.1,0,0.2-0.1c-0.1,0-0.2,0-0.2,0v0c0,0,0,0,0,0c0,0,0,0,0,0
	c0-0.4,0-0.9,0-1.4c0-0.1,0-0.2,0-0.3c0,0-0.1,0-0.1,0c-0.2,0-0.3,0.2-0.4,0.4c-0.1,0.2-0.2,0.3-0.3,0.5c-0.1,0.1-0.2,0.2-0.2,0.2
	c0,0,0-0.2,0-0.2c0-0.2,0.1-0.2,0.3-0.4c0.1-0.2,0.2-0.2,0.2-0.3c0-0.1,0-0.1,0-0.3c0-0.2,0-0.2,0-0.5c0-0.3,0-0.3,0-0.4
	c0-0.1-0.1,0-0.3-0.1c-0.2-0.1-0.2-0.1-0.3-0.1c0,0-0.1,0-0.2,0c0,0,0,0,0,0c0,0,0,0.1,0,0.2c0,0,0,0.4,0,0.7c0,0,0,0.2,0,0.2
	s0,1.1,0,1.1c0,0-0.1,0.1-0.1,0.1l0,0.4l0.2,0v0.5v1.8l0,1.4c0,0,0,2.1,0,2.1c0,1.2,0,2.4,0,3.6c0,0-0.1,0.1-0.1,0.1
	c0.2,0,0.4,0,0.6,0c0.2,0,0.3-0.1,0.3-0.1c0.1-0.1,0.1-0.4,0.1-0.5c0-0.3-0.2-0.6-0.3-0.8c-0.2-0.2-0.3-0.3-0.2-0.4
	c0,0,0.1,0,0.4,0.1c0.1,0,0.2,0.1,0.3,0.1c0,0,0,0,0,0c-0.1-0.1,0-0.3,0-0.7c0-0.3,0-0.5,0-0.8c0-0.1,0-0.2,0-0.2
	c0.1-0.1,0.3,0.1,0.5,0.4c0,0,0,0,0,0C40.1,28.2,40,28.1,40,28.1z M31.8,22.2c0.1,0,0.1,0.1,0.2,0.1c0.1,0,0.2,0.1,0.2,0
	c0.1-0.1,0.1-0.2,0-0.3c0,0-0.1,0-0.1-0.1c0,0-0.1-0.1,0-0.1c0-0.1,0.3-0.1,0.4,0c0,0,0.1,0.1,0.1,0.2c0.2,0.4,0.2,0.4,0.2,0.4
	c0.1,0.1,0.3,0.1,0.4,0c0.1-0.1,0.1-0.3,0.1-0.3c0,0-0.2,0.1-0.3,0c-0.1,0-0.1-0.1-0.2-0.2c-0.1-0.2-0.1-0.3-0.2-0.4
	c-0.1-0.1-0.2-0.2-0.3-0.2c-0.2-0.1-0.2-0.1-0.2-0.1c0,0,0.3,0.1,0.7,0c0.1,0,0.2,0,0.2,0c0,0.1,0,0.1,0,0.2c0,0.1,0.2,0,0.3,0
	c0-0.1,0-0.1,0-0.2c0,0,0.1,0,0.1,0c0,0-0.1-0.1,0-0.2c0-0.1,0.1,0,0.1-0.1c0.1-0.1,0.1-0.5-0.1-0.6c-0.1-0.1-0.1,0-0.2-0.1
	c-0.1-0.1-0.1-0.1-0.1-0.1c-0.1-0.1-0.2,0.1-0.3,0c0,0,0-0.1,0-0.1c-0.1-0.1-0.5,0.1-0.6,0c0-0.1,0.1-0.2,0-0.2
	c-0.1-0.1-0.2,0-0.3,0c-0.1,0-0.1-0.1-0.2-0.1c-0.3-0.2-0.7-0.1-0.9-0.1c-0.2,0-0.2,0.1-0.5,0.1c-0.4,0.1-0.8,0.2-1.1,0
	c0,0-0.1-0.1-0.2-0.1c-0.1,0-0.3-0.1-0.3,0c-0.1,0.1-0.1,0.2,0,0.2c0,0.1,0.1,0.2,0.1,0.2c0.1,0.1,0.1,0.1,0.1,0.1
	c0,0.1-0.1,0.2-0.1,0.2c-0.2,0.1-0.3,0-0.3,0.1c-0.1,0.1-0.1,0.2,0,0.3c0.1,0,0.2,0,0.2,0c0,0,0,0.2,0,0.2c-0.2,0.2-0.5,0-0.7,0.2
	c-0.1,0.1-0.1,0.2,0,0.2c0.1,0.1,0.2-0.1,0.3,0c0.1,0,0.1,0.2,0,0.2c0,0.3-0.4,0.5-0.6,0.6c-0.5,0.4-0.3,0.6-1,1.4
	c0,0-0.7,0.8-0.6,1.1c0,0,0,0.1,0,0.1c0,0-0.1,0-0.1-0.1c-0.1-0.1-0.1-0.3-0.1-0.4c0-0.1,0-0.1-0.2-0.6C25.3,23,25.3,23,25.3,23
	c-0.2-0.4-0.3-0.9-0.6-1.3c0,0-0.1-0.1,0-0.2c0-0.1,0.1-0.1,0.1-0.1c0,0,0,0,0-0.1c-0.1-0.1-0.1-0.1-0.2-0.2
	c-0.1-0.1-0.2-0.1-0.1-0.2c0-0.1,0.1-0.1,0.1-0.1c0.1,0,0.2,0,0.2,0c0,0,0-0.2,0-0.2c-0.1-0.1-0.2,0-0.3-0.1c0,0,0-0.1,0-0.1
	c0.1-0.1,0.3,0,0.5-0.1c0,0,0.2-0.1,0.2-0.3c0,0,0-0.2,0-0.2c-0.1-0.1-0.3,0-0.4,0c-0.1,0.1-0.2,0.2-0.2,0.2c-0.4,0.4-1.7,0.3-1.8,0
	c0,0,0-0.1,0-0.1c-0.1-0.1-0.5,0.1-0.6,0c0,0,0-0.1,0-0.1c0-0.1-0.5-0.2-0.6,0c-0.1,0.1,0,0.1-0.1,0.2c-0.1,0.1-0.3,0-0.4,0
	c-0.1,0.1,0,0.2-0.1,0.3c-0.2,0.2-0.7-0.2-0.8,0c0,0,0,0.1,0,0.1c-0.1,0.1-0.3-0.1-0.5-0.1c-0.1,0-0.1,0.1-0.2,0.1
	c-0.2,0.3-0.4,0.8-0.2,1.1c0,0.1,0.1,0.2,0.2,0.2c0.1,0,0.2-0.2,0.4-0.3c0.1,0,0.2-0.1,0.4-0.1c0.2,0,0.4,0.1,0.4,0.1
	c0,0-0.1,0-0.3,0.1c-0.1,0.1-0.3,0.1-0.3,0.3c-0.1,0.1,0,0.2,0,0.3c-0.1,0.1-0.2,0.1-0.2,0.1c-0.3,0-0.5-0.1-0.5,0
	c-0.1,0.1,0,0.2,0,0.3c0.2,0.2,0.5,0.2,0.7,0.1c0.1,0,0.2-0.1,0.3-0.2c0.1-0.1,0.1-0.2,0.1-0.4c0,0,0.2-0.3,0.4-0.3
	c0.1,0,0.2,0,0.2,0c0,0-0.1,0.1-0.2,0.2c-0.3,0.3-0.3,0.4-0.3,0.4c0,0.1,0.1,0.1,0.1,0.1c0.2,0,0.4-0.1,0.4-0.1
	c0.1-0.1,0.1-0.1,0.2-0.1c0.2,0,0.3,0.3,0.3,0.3c0.1,0.1,0.1,0.2,0.1,0.3c0.1,0.1,0.2,0.2,0.3,0.1c0.1,0,0-0.3,0.1-0.3
	c0.1,0,0.3,0.1,0.3,0.3c0.1,0.2,0.1,0.4,0.2,0.4c0.1,0.1,0.2,0,0.2,0.1c0,0,0,0.1,0,0.2c0,0.1,0,0.2-0.1,0.3
	c-0.1,0.2-0.2,0.3-0.1,0.3c0,0.1,0.1,0.1,0.1,0.2c0,0,0,0.1,0,0.1c0,0,0.1-0.1,0.1-0.1c0.1,0,0.2,0.1,0.4,0.2c0,0,0.1,0,0.2,0
	c0.2,0,0.2,0,0.3,0.1c0.1,0,0.2,0.1,0.2,0.1c0.2,0.1,0.3,0.2,0.3,0.2c0.2,0.1,0.2,0.2,0.3,0.2c0,0,0,0,0.2-0.1
	c0.1,0,0.1-0.1,0.2-0.1c0.1-0.1,0.2-0.1,0.2-0.1c0.1,0,0.1,0,0.2,0c0.1,0,0.2,0,0.3,0c0.3-0.1,0.4-0.3,0.6-0.3c0.1,0,0.1,0,0.1,0.1
	c0,0.1-0.2,0.3-0.2,0.3c-0.1,0.1-0.2,0.1-0.3,0.1c-0.4,0.1-0.7,0-0.9,0.1c0,0-0.1,0.1-0.1,0.2c0,0.1,0,0.1,0,0.2
	c0.1,0.1,0.1,0.1,0.1,0.2c0,0.1,0,0.2-0.1,0.3c-0.1,0.1-0.2,0.1-0.3,0.1c0,0-0.2,0-0.2-0.1c-0.1-0.1-0.1-0.3-0.1-0.3
	c0-0.1,0.1-0.2,0.1-0.3c0-0.2,0-0.3-0.1-0.5c-0.1-0.1-0.3-0.2-0.5-0.2c-0.1,0-0.1,0-0.4-0.1c-0.1,0-0.1,0-0.2,0
	c-0.2,0-0.3-0.1-0.4-0.2c0,0,0-0.1,0-0.1c0,0,0,0,0-0.1c0,0-0.1,0.1-0.1,0.1c-0.4,0.3-0.6,0.5-0.7,0.6c-0.4,0.2-0.7,0.4-1.2,0.8
	c-0.3,0.2-0.6,0.3-0.9,0.5c0,0-0.1,0.1-0.2,0c-0.1,0-0.1-0.1-0.1-0.1c-0.1-0.2-0.2-0.3-0.2-0.3c0-0.1,0.1-0.1,0.2-0.2
	c0.2-0.2,0.3-0.1,0.3-0.2c0.1-0.1,0.1-0.3,0-0.4c-0.1-0.3-0.2-0.5-0.3-0.6c-0.5-0.6-0.7-0.9-0.9-1.2c-0.2-0.3-0.5-0.6-0.6-0.9
	c-0.1-0.1-0.2-0.4-0.3-0.3c0,0-0.1,0.1-0.1,0.2c-0.1,0.1-0.1,0.2-0.1,0.2c-0.1,0-0.1-0.3-0.3-0.7c-0.3-0.6-0.6-0.5-0.9-1
	c-0.1-0.3-0.1-0.4-0.3-0.5c-0.2-0.1-0.4-0.1-0.5,0c-0.1,0.1,0,0.3-0.1,0.3c-0.1,0-0.2-0.1-0.2-0.1c-0.1-0.2-0.2-0.3-0.2-0.4
	c-0.2-0.4-0.4-0.3-0.6-0.7c-0.1-0.2-0.1-0.3-0.3-0.4c-0.1-0.1-0.2-0.2-0.4-0.2c-0.2,0-0.4,0.1-0.5,0.3c0,0.1,0,0.1,0,0.4
	c0,0.6,0,0.6,0,0.7c0,0.1,0.1,0.1,0.2,0.4c0.2,0.3,0.2,0.3,0.1,0.3c0,0-0.1,0-0.1,0c-0.2-0.1-0.2-0.2-0.4-0.4
	c-0.1-0.2-0.2-0.3-0.3-0.3c0,0-0.2-0.1-0.3,0c-0.2,0.1-0.3,0.3-0.3,0.5c-0.1,0.2-0.1,0.4,0,0.5c0,0.1,0,0.2,0,0.3
	c0,0.1,0.1,0.2,0.1,0.3c0,0.1,0,0.1,0,0.1c0,0-0.1,0-0.1,0c-0.1,0-0.1-0.1-0.1-0.1c-0.1-0.1-0.3-0.1-0.4,0c-0.1,0-0.1,0.1-0.1,0.2
	c-0.1,0.5-0.1,1,0,1c0,0.2,0,0.2,0,0.3c0.1,0.3,0.3,0.5,0.4,0.6c0.2,0.2,0.4,0.2,0.3,0.3c0,0.1-0.1,0.1-0.5,0.1
	c-0.6,0.1-0.7,0.1-0.8,0.1c-0.2,0.2-0.1,0.4-0.1,0.6c0,0.1,0.1,0.5,0.3,0.7c0.2,0.2,0.4,0.1,0.7,0.3c0.1,0.1,0.2,0.1,0.1,0.2
	c0,0.1-0.4,0.1-0.8,0.3c-0.3,0.2-0.5,0.6-0.4,1c0,0.1,0,0.3,0.1,0.4c0.3,0.3,0.9,0,1.1,0.3c0.1,0.1,0.1,0.2,0,0.2
	c0,0.3-0.4,0.2-0.6,0.5c-0.1,0.2-0.2,0.5-0.1,0.7c0.2,0.3,0.7,0.3,0.8,0.3c0,0,0.1,0,0.1,0c0.2,0,0.3,0.1,0.4,0.1
	c0.1,0,0.2-0.2,0.2-0.1c0,0,0,0.2,0,0.2c0,0.1-0.1,0.2-0.1,0.3c-0.1,0.1-0.1,0.2-0.1,0.5c0,0.4,0,0.8,0.2,1c0.3,0.2,0.7,0.1,0.7,0
	c0.3-0.1,0.5-0.3,0.6-0.3c0.1,0,0,0.2,0,0.5c0,0.1,0.1,0.3,0.2,0.4c0.1,0.1,0.2,0.2,0.4,0.3c0.3,0.1,0.6-0.1,0.8-0.2
	c0.3-0.2,0.3-0.2,0.4-0.2c0.3,0,0.4,0.5,0.8,0.5c0.1,0,0.2,0,0.3-0.1c0.1,0,0.3-0.2,0.4-0.5c0.2-0.5,0.2-0.8,0.3-0.9
	c0.1,0,0.1,0.2,0.3,0.2c0,0,0.2,0.1,0.4,0c0.3-0.1,0.3-0.4,0.4-0.4c0.1,0,0.2,0.2,0.4,0.3c0.2,0.1,0.4,0.1,0.5,0
	c0.1-0.1,0-0.4,0.1-0.4c0.1,0,0.1,0.2,0.3,0.3c0.2,0,0.3-0.1,0.4-0.2c0.2-0.2,0.3-0.4,0.4-0.4c0,0,0.1,0.1,0,0.2
	c0,0.1,0,0.2-0.2,0.3c-0.3,0.2-0.5,0.2-0.5,0.4c0,0.1,0,0.2,0.1,0.2c0.1,0.1,0.2-0.1,0.3,0c0.1,0,0.1,0.2,0.1,0.3
	c0,0.3-0.5,0.5-0.5,0.5c-0.6,0.2-0.8-0.2-1.4,0c-0.3,0.1-0.5,0.3-0.7,0.6c-0.1,0.1-0.1,0.2-0.1,0.2c0,0.2,0.1,0.3,0,0.4
	c0,0-0.1,0-0.1,0c-0.1,0.1-0.1,0.3,0,0.4c0,0.1,0.1,0.1,0.1,0.2c0.1,0.1,0.1,0.4,0,0.5c-0.1,0.2-0.5,0.1-0.6,0.3c0,0.1,0,0.2,0,0.2
	c0.1,0.2,0.5,0,0.5,0c0,0-0.1,0.1-0.2,0.2c-0.2,0.2-0.4,0.5-0.3,0.6c0.1,0.1,0.5-0.1,0.5,0c0,0.1-0.2,0.2-0.1,0.3
	c0,0.1,0.5-0.2,0.6-0.1c0,0,0.1,0.1,0,0.1c0,0.1-0.1,0.1-0.2,0.1c-0.5,0.1-0.9,0.1-0.9,0.1c-0.4,0-0.5-0.1-0.7,0
	c-0.1,0-0.1,0.1-0.2,0.1c-0.1,0-0.3,0.1-0.4,0C16,37.1,16,37,15.8,36.7c-0.1-0.1-0.2-0.2-0.2-0.2c-0.1,0-0.2,0-0.4,0
	c-0.1,0-0.1,0.1-0.2,0c-0.2,0-0.4-0.4-0.4-0.5c-0.3-0.7-0.8-1.3-1.2-2c-0.8-1.6-0.8-1.2-1.1-1.9c-0.2-0.5-0.3-1.1-0.8-1.4
	c-0.1-0.1-0.4-0.3-0.7-0.2c-0.3,0.1-0.4,0.5-0.4,0.5c-0.1,0.5,0.3,0.9,1.3,2.2c0.4,0.5,0.7,1,0.9,1.3c0.9,1.4,0.8,1.2,1,1.5
	c0.3,0.3,0.6,0.6,0.5,0.8c0,0.1-0.2,0.2-0.2,0.3c0,0.1,0,0.3,0.1,0.4c0.1,0.1,0.2,0.1,0.3,0.2c0.1,0.1-0.1,0.3,0,0.3
	c0.1,0.1,0.3,0,0.4,0.1c0,0.1,0,0.1,0,0.2c0.1,0.1,0.2,0,0.3,0c0.2,0,0.5,0.1,0.5,0.2c0.1,0.1-0.1,0.3,0,0.4c0,0,0.1,0.1,0.2,0.1
	c0.1,0,0.1,0,0.1,0c0,0,0.1,0.1,0.1,0.4c0,0.2,0,0.2,0,0.3c0,0.2,0.1,0.2,0.1,0.3c0.1,0.4-0.1,0.6,0,0.9c0.1,0.2,0.3,0.3,0.5,0.2
	c0.1-0.1,0.2-0.2,0.2-0.4c0.1-0.5,0-1.2-0.2-1.5c0,0-0.1-0.1-0.1-0.3c0-0.1,0-0.1,0-0.2c0-0.4,0.1-0.6,0-0.6
	c-0.1-0.2-0.4-0.2-0.4-0.3c0-0.1,0.2-0.2,0.4-0.1c0.2,0,0.3,0.1,0.3,0c0,0,0-0.2,0-0.2c0.1-0.1,0.3,0.2,0.4,0.1c0.1,0,0-0.1,0.1-0.2
	c0.1-0.1,0.5,0.2,0.5,0.1c0,0,0-0.1,0-0.2c0.1-0.1,0.5,0,0.9,0c1,0.2,1.2,0.2,1.5,0.1c0.1,0,0.4-0.1,0.5-0.3c0.1-0.2-0.1-0.5,0-0.5
	c0,0,0.1,0,0.1,0c0.2,0,0.3,0.2,0.4,0.1c0,0,0.1-0.1,0-0.1c0-0.2-0.2-0.2-0.3-0.3c0-0.1,0-0.2,0-0.2c0.1-0.1,0.3,0,0.6,0
	c0.1,0,0.3,0,0.4-0.2c0.1-0.1,0.1-0.2,0-0.3c0,0-0.1,0-0.2,0c-0.1,0-0.2,0-0.2-0.1c-0.1-0.1-0.2-0.2-0.2-0.3c0-0.1-0.1-0.2,0-0.4
	c0.1-0.3,0.3-0.4,0.5-0.6c0.3-0.2,0.5-0.4,0.8-0.4c0.2,0,0.4,0.1,0.5,0.1c0.2,0.1,0.4,0.3,0.6,0.6c0.1,0.2,0.3,0.5,0.2,0.9
	c-0.1,0.4-0.6,0.3-0.9,0.8c-0.2,0.3-0.2,0.6-0.1,0.7c0.1,0.1,0.4,0,0.4,0c0.1,0.1-0.4,0.5-0.5,0.5c-0.5,0.4-0.9,0.6-1.1,0.8
	c-0.3,0.3-0.3,0.3-0.3,0.3c0,0,0,0.1-0.1,0.1c-0.1,0.1-0.2,0.1-0.2,0.1c-0.3,0.1-0.3,0.6-0.6,0.7c-0.1,0-0.1,0-0.2-0.1
	c-0.1-0.1-0.2-0.2-0.2-0.2c-0.1-0.2-0.1-0.3-0.2-0.3c-0.1,0-0.2,0.1-0.2,0.1c0,0.1-0.1,0.1-0.1,0.4c0,0.2,0,0.4,0,0.5
	c0,0.2,0.1,0.2,0.1,0.3c0,0.2-0.2,0.3-0.5,0.8c-0.1,0.2-0.2,0.3-0.2,0.5c0,0.2,0,0.3,0,0.6c0,0.2,0.1,0.5,0.2,0.8
	c0.1,0.2,0.2,0.3,0.3,0.4c0.1,0.1,0.4,0.2,0.5,0.1c0.1-0.1,0.1-0.3,0.2-0.8c0,0,0.1-0.4,0.2-0.4c0,0,0,0.2,0.1,0.4
	c0.1,0.3,0.3,0.5,0.4,0.5c0,0,0.6,0.4,0.8,0.2c0.2-0.2,0-0.8,0.1-0.8c0,0,0.1,0,0.3,0.2c0.4,0.4,0.4,0.4,0.5,0.5
	c0.2,0.1,0.2,0,0.9,0c0.3,0,0.4,0,0.5,0c0.3-0.1,0.4-0.3,0.4-0.3c0,0,0,0.1,0,0.3c0,0.2,0.1,0.4,0.1,0.5c0.2,0.4,0.7,0.7,1.2,0.7
	c0,0,0,0,0.1,0c0,0,0,0,0,0c0-0.7,0-1.3,0-2l0-1.8l0-3.6v-2.3c0,0,0.1-2.5,0.1-2.7c0-1.3,0.1-3.4,0.1-6.7c0-0.1,0-0.2,0-0.3
	c0.3,0.2,0.6,0.4,0.8,0.6c0.1,0,0.1,0,0.2,0.1l0,1.7v1.7l-0.1,0.3l0,1.9c0,0,0,1.1,0,1.1c0,0-0.1,3-0.1,3v2.4v2c0,1,0,2,0,3
	c0,0.1,0,0.2-0.1,0.4c0,0,0,0.1,0,0.1c0-0.1,0.1-0.1,0.1-0.1c0.1,0,0.2,0.1,0.4,0.1c0.3,0.1,0.6,0.1,0.9,0c-0.1,0-0.2-0.5,0.1-2.3
	c0-1.3,0-2.7,0-4c0,0,0,0,0,0c0,0,0,0,0,0c0,0,0,0,0-0.1c0-0.3,0.1-0.6,0.1-0.9c0,0,0.1,0.1,0.1,0.1c-0.1-0.1-0.3-0.3-0.7-0.5
	c-0.5-0.3-0.5-0.3-0.6-0.4c-0.1-0.4,0.4-0.8,0.5-1c0.2-0.2,0.3-0.3,0.5-0.4c0-2.6,0-5.3,0-7.9c0.5-0.1,0.7-0.1,0.8-0.2
	c0,0,0.1-0.1,0.2-0.1c0.1-0.1,0.2-0.1,0.2-0.1c0.1,0,0.1,1.9-0.1,8.4c0,0.2-0.1,0.3-0.1,0.5c0,0,0.1,0.1,0.1,0.1
	c0.4,0.3,0.7,0.4,0.8,0.7c0,0.1,0.1,0.2,0,0.4c-0.1,0.2-0.2,0.2-0.4,0.5c-0.1,0.1-0.2,0.2-0.1,0.3c0,0.1,0.3-0.1,0.4,0
	c0,0,0,0.1,0,0.2c0,0.6,0,0.6,0,0.6c0,0,0.1-0.1,0.3-0.3c0.1-0.1,0.2-0.1,0.2-0.1c0-0.1,0-0.2-0.1-0.2c-0.2-0.5,0-1.8,0-1.8
	c0,0,0.1-1.9,0.1-2c0-0.1,0-0.1,0.1-0.2c-0.1,0-0.1,0-0.2-0.1c0,0-0.2-0.1-0.2-0.2c-0.1-0.1-0.1-0.3,0-0.3c0.1-0.1,0.3,0.1,0.4,0
	c0.1-0.1,0-0.2,0-0.3c-0.1-0.1-0.1-0.1-0.2-0.1c-0.1-0.1-0.2-0.2-0.2-0.2c0-0.1-0.2-0.3-0.1-0.3c0,0,0.1,0,0.1,0
	c0.2,0,0.3,0.1,0.4,0.1l0,0c0,0,0-4.4,0-4.5c0,0,0-0.1,0.1-0.1c0,0,0,0,0,0c0,0-0.1,0-0.1-0.1c-0.1-0.1-0.2-0.1-0.2-0.1
	c0,0,0.1-0.1,0.1-0.1c0.1,0,0.1,0,0.1,0c0-0.1,0-0.2,0-0.2c-0.1-0.1-0.2-0.1-0.3-0.1c-0.2,0-0.3-0.2-0.5-0.5
	c-0.1-0.2-0.2-0.2-0.1-0.3c0,0,0.1,0,0.2,0c0.1-0.1,0-0.2,0-0.3c-0.1-0.2-0.2-0.2-0.3-0.3c0,0,0-0.1,0-0.1c0-0.2,0-0.3,0.1-0.5
	c0-0.1,0-0.2,0.1-0.4c0.1-0.3,0.1-0.4,0.1-0.4c0.1,0,0.1,0.2,0.2,0.1c0.1,0,0-0.1,0.1-0.2c0.1-0.1,0.3-0.2,0.3-0.1c0,0,0,0.1,0,0.2
	c0,0.1,0.2,0,0.3,0c0.3-0.1,0.3-0.5,0.6-0.5C31.6,22.1,31.7,22.1,31.8,22.2z M16.4,40.1c0,0.2,0.1,0.2,0.2,0.4c0,0.2,0,0.5-0.1,0.5
	c-0.1,0-0.1,0-0.2,0c-0.1-0.1,0-0.2,0-0.4c0-0.1,0-0.1,0-0.3c0-0.2,0-0.2,0-0.3c0,0,0,0,0,0c0,0,0.1,0,0.1,0
	C16.4,40,16.4,40,16.4,40.1z M16.2,39.6c0,0,0.1,0,0.1,0c0,0,0,0.1,0,0.1c0,0-0.1,0.1-0.1,0C16.2,39.8,16.2,39.7,16.2,39.6z
	 M21.4,26.8c-0.6,0.4-1.1,0.7-1.7,1L19.3,27c0,0,0-0.1,0-0.1c0,0,1.4-0.7,1.4-0.8c0-0.3,0.6-0.3,1-0.7c0.1,0,0.2,0.1,0.4,0.3
	c0.2,0.2,0.2,0.4,0.2,0.5C22,26.4,21.7,26.6,21.4,26.8z M24.5,30.7c-0.1,0.1-0.2,0.1-0.3,0.1c0,0-0.2,0-0.2-0.1
	c-0.1-0.1-0.1-0.3,0-0.4c0.1-0.1,0.3-0.2,0.5-0.1c0.1,0.1,0.1,0.2,0.1,0.2C24.6,30.5,24.6,30.6,24.5,30.7z M24.5,28.6
	c-0.1,0.1-0.3,0-0.4,0C24,28.4,24,28.2,24,28.1c0-0.1,0.1-0.1,0.1-0.1c0,0,0.2-0.1,0.3,0c0.1,0.1,0.1,0.2,0.1,0.3
	C24.7,28.2,24.7,28.5,24.5,28.6z M31,39.8C31,39.8,31,39.8,31,39.8C31,39.8,31,39.8,31,39.8C31,39.8,31,39.8,31,39.8z M31.7,41.1
	C31.7,41.1,31.7,41.1,31.7,41.1C31.6,41.1,31.6,41.1,31.7,41.1c0,0.2,0,0.3,0,0.3c0,0.6-0.2,1.3-0.1,1.7c0,0,0,0.1,0,0.3
	c0.1-0.2,0.2-0.3,0.3-0.5c0.2-0.5,0.1-0.9,0-1.1C31.9,41.7,31.9,41.4,31.7,41.1z M31.6,31.1C31.7,31.1,31.7,31.1,31.6,31.1
	c0.1,0,0.4,0,0.5-0.2c0.1-0.2,0-0.5,0-0.5c0.1,0,0.1,0.2,0.3,0.3c0,0,0.1,0.1,0.3,0.1c0-0.1,0-0.1,0-0.2l0-6.3c0-0.1,0-0.3,0.2-0.6
	c-0.3,0.2-0.5,0.5-0.9,0.8c-0.1,0.1-0.3,0.3-0.2,0.5c0,0.1,0.1,0.2,0.1,0.3c0.1,0.1,0.1,0.1,0.2,0.3c0.1,0.2,0.2,0.2,0.2,0.3
	c0.1,0.2,0,0.4,0,0.4c0,0.1-0.1,0.2-0.2,0.2c-0.1,0-0.2,0-0.3,0c-0.2,0-0.2-0.1-0.4-0.1c0,0,0,0,0,0c0,0,0,0,0,0
	c0.1,0.1,0.1,0.2,0.1,0.2L31.6,31.1z"/>
<g>
	<path class="st2" d="M43.2,3.8c0.4,0.1,0.7,0,1-0.3c0.3-0.4,0.5-0.9,0.3-1.4c-0.1-0.3-0.1-0.6-0.1-0.9c0.1-0.6,0.7-1,1.3-1
		c0.6,0,1.1,0.5,1.2,1.1c0.1,0.6-0.2,1-0.6,1.3c-0.5,0.4-0.6,0.9-0.7,1.5c0,0.3,0.1,0.5,0.3,0.7c0.1,0.1,0.3,0.2,0.5,0.4
		c0.3,0.2,0.6,0.1,0.7-0.2c0-0.1,0-0.1,0-0.2c0.1-0.6,0.5-1,1.1-0.9c0.5,0,1,0.5,0.9,1.1c0,0.6-0.5,1-1,1c-0.1,0-0.2,0-0.4,0.1
		c-0.3,0.1-0.4,0.4-0.2,0.7c0.1,0.1,0.1,0.2,0.2,0.3c0.2,0.4,0.6,0.6,1.1,0.6c0.6-0.1,1.2-0.4,1.7-0.8c0.6-0.4,1.4-0.3,1.8,0.2
		c0.3,0.4,0.3,1,0,1.4C52.1,8.8,51.6,9,51,8.9c-0.3-0.1-0.6-0.2-0.9-0.2c-0.4,0-0.7,0-1.1,0.1c-0.5,0.1-0.8,0.7-0.7,1.1
		c0,0.1,0.1,0.2,0.2,0.3c0.3,0.2,0.6,0.3,1,0.1c0.5-0.2,1.1-0.1,1.4,0.4c0.3,0.5,0.1,1.1-0.4,1.4c-0.5,0.3-1.1,0.2-1.4-0.3
		c-0.2-0.2-0.7-0.4-1-0.4c-0.1,0-0.1,0-0.2,0.1c-0.3,0.3-0.5,0.6-0.6,1c-0.1,0.2,0.1,0.4,0.2,0.5c0.4,0.3,0.8,0.6,1.4,0.8
		c0.2,0.1,0.5,0.2,0.6,0.4c0.3,0.4,0.4,1,0.2,1.4c-0.2,0.4-0.7,0.7-1.2,0.7c-0.6-0.1-1-0.4-1.1-0.9c-0.1-0.4-0.3-0.8-0.5-1.1
		c-0.1-0.1-0.2-0.3-0.4-0.4c-0.2-0.1-0.4-0.1-0.6,0c-0.3,0.2-0.6,0.4-1,0.5c-0.2,0.1-0.2,0.2-0.2,0.4c0,0.2,0.1,0.4,0.3,0.5
		c0.4,0.3,0.6,0.9,0.3,1.3C45.1,17,44.5,17.2,44,17c-0.5-0.2-0.7-0.7-0.6-1.2c0-0.1,0.1-0.2,0.1-0.3c0.1-0.2,0.1-0.4,0.1-0.6
		c-0.1-0.2-0.2-0.3-0.4-0.3c-0.1,0-0.3,0-0.4,0c-0.5,0-0.9,0.3-1.1,0.8c-0.2,0.6-0.3,1.3-0.2,1.9c0.1,0.6-0.2,1.1-0.7,1.3
		c-0.6,0.2-1.2,0.1-1.5-0.4c-0.3-0.4-0.3-1.1,0.1-1.5c0.3-0.3,0.6-0.6,0.8-1c0.2-0.3,0.3-0.6,0.3-0.9c0.1-0.7-0.6-1.3-1.1-1.3
		c-0.4,0-0.8,0.4-0.8,0.8c-0.1,0.4-0.3,0.7-0.7,0.9c-0.4,0.1-0.8,0.1-1.1-0.2c-0.3-0.3-0.4-0.7-0.3-1.1c0.1-0.4,0.5-0.7,1-0.7
		c0.4,0,0.9-0.4,0.8-0.9c0-0.1,0-0.2-0.1-0.3c-0.1-0.2-0.2-0.3-0.3-0.5c-0.3-0.5-0.7-0.6-1.2-0.5c-0.5,0.2-1,0.4-1.4,0.7
		c-0.7,0.5-1.8,0.1-1.9-0.8c-0.1-0.5,0.1-0.9,0.5-1.3c0.4-0.3,0.8-0.3,1.2-0.2c0.6,0.2,1.1,0.2,1.7,0c0.4-0.1,0.6-0.4,0.7-0.7
		c0-0.1,0-0.2,0-0.3c0.1-0.5-0.4-0.6-0.7-0.5c-0.2,0.1-0.5,0.1-0.7,0.1c-0.5-0.1-0.8-0.5-0.8-1c0-0.4,0.3-0.9,0.7-1
		c0.4-0.1,0.9,0,1.2,0.4c0.1,0.1,0.1,0.2,0.2,0.3c0.3,0.2,0.6,0.2,0.7-0.1c0-0.1,0.1-0.1,0.1-0.2c0.2-0.4,0.2-0.8-0.2-1.2
		c-0.4-0.4-0.9-0.7-1.4-0.8c-0.4-0.1-0.7-0.4-0.8-0.8c-0.3-0.7,0.1-1.4,0.7-1.6c0.7-0.2,1.4,0.1,1.6,0.8c0.2,0.5,0.4,1,0.8,1.4
		c0.4,0.5,0.8,0.5,1.4,0.2c0.1-0.1,0.2-0.1,0.3-0.2c0.4-0.2,0.5-0.7,0.3-1.1c0-0.1-0.1-0.1-0.2-0.2c-0.4-0.3-0.5-0.9-0.3-1.3
		c0.2-0.4,0.8-0.6,1.2-0.5c0.6,0.2,0.9,0.8,0.6,1.4c-0.3,0.6,0.1,1.1,0.7,1.1C43,3.9,43.1,3.8,43.2,3.8z M42.2,9.4
		c0,0.6,0.5,0.8,0.8,0.8c0.6,0,0.9-0.5,0.9-0.9c0-0.5-0.4-0.8-0.9-0.8C42.5,8.6,42.1,9,42.2,9.4z M39.8,7.9c-0.4,0-0.6,0.3-0.6,0.7
		c0,0.4,0.2,0.7,0.6,0.7c0.4,0,0.6-0.3,0.6-0.7C40.4,8.2,40.2,7.9,39.8,7.9z M45.3,11.1c-0.4,0-0.7,0.3-0.7,0.7
		c0,0.3,0.2,0.6,0.6,0.6c0.4,0,0.7-0.3,0.7-0.7C45.9,11.4,45.7,11.1,45.3,11.1z M43.1,6.7c0.3,0,0.6-0.3,0.6-0.6
		c0-0.3-0.3-0.6-0.7-0.6c-0.3,0-0.6,0.3-0.6,0.6C42.5,6.5,42.8,6.7,43.1,6.7z M41,12c0.2,0,0.4-0.1,0.4-0.4c0-0.3-0.2-0.5-0.5-0.5
		c-0.2,0-0.4,0.1-0.4,0.4C40.4,11.8,40.7,12,41,12z M45.5,8.6c0,0.3,0.1,0.4,0.3,0.5c0.1,0,0.3,0,0.4-0.2c0.1-0.2,0.1-0.5,0-0.7
		c-0.2-0.2-0.4-0.2-0.6,0C45.6,8.4,45.5,8.5,45.5,8.6z"/>
	<path d="M45.7,47.6"/>
	<path d="M46,47.2"/>
	<path d="M45.7,47.2"/>
</g>
<g>
	<path class="st3" d="M2.2,8"/>
	<path class="st3" d="M2.2,6.5"/>
	<path class="st3" d="M1.5,8.8"/>
	<path class="st3" d="M0,8.8"/>
	<path class="st3" d="M1.5,50.4"/>
	<path class="st3" d="M0,50.4"/>
	<path class="st3" d="M2.2,51.2"/>
	<path class="st3" d="M2.2,52.7"/>
	<path class="st3" d="M43.9,8"/>
	<path class="st3" d="M43.9,6.5"/>
	<path class="st3" d="M44.7,8.8"/>
	<path class="st3" d="M46.2,8.8"/>
	<path class="st3" d="M44.7,50.4"/>
	<path class="st3" d="M46.2,50.4"/>
	<path class="st3" d="M43.9,51.2"/>
	<path class="st3" d="M43.9,52.7"/>
</g>
</svg>
